# MagicaVoxel @ Ephtracy

# group
o 

# material
mtllib pilot-5.mtl
usemtl palette

# normals
vn -1 0 0
vn 1 0 0
vn 0 0 1
vn 0 0 -1
vn 0 -1 0
vn 0 1 0

# texcoords
vt 0.0136719 0.5
vt 0.591797 0.5
vt 0.958984 0.5
vt 0.962891 0.5
vt 0.986328 0.5
vt 0.994141 0.5

# verts
v -0.9 0.9 0.7
v -0.9 0.9 0.6
v -0.9 0.9 0.5
v -0.9 0.9 0.4
v -0.9 1 0.7
v -0.9 1 0.6
v -0.9 1 0.5
v -0.9 1 0.4
v -0.9 1.1 0.7
v -0.9 1.1 0.4
v -0.9 1.3 0.7
v -0.9 1.3 0.4
v -0.9 1.7 0.7
v -0.9 1.7 0.4
v -0.8 1.1 0.7
v -0.8 1.1 0.4
v -0.8 1.3 0.7
v -0.8 1.3 0.4
v -0.8 1.4 0.8
v -0.8 1.4 0.7
v -0.8 1.5 0.8
v -0.8 1.5 0.7
v -0.8 1.6 0.8
v -0.8 1.6 0.7
v -0.7 1.7 0.6
v -0.7 1.7 0.5
v -0.7 1.8 0.6
v -0.7 1.8 0.5
v -0.4 1.7 0.6
v -0.4 1.7 0.5
v -0.4 1.8 0.6
v -0.4 1.8 0.5
v -0.3 1.1 0.7
v -0.3 1.1 0.6
v -0.3 1.1 0.4
v -0.3 1.2 0.7
v -0.3 1.2 0.6
v -0.3 1.2 0.4
v -0.3 1.3 0.7
v -0.3 1.3 0.4
v -0.3 1.4 0.8
v -0.3 1.4 0.7
v -0.3 1.5 0.8
v -0.3 1.5 0.7
v -0.3 1.6 0.8
v -0.3 1.6 0.7
v -0.2 0.9 0.7
v -0.2 0.9 0.4
v -0.2 1 0.7
v -0.2 1 0.4
v -0.2 1.1 0.7
v -0.2 1.1 0.4
v -0.2 1.3 0.7
v -0.2 1.3 0.4
v -0.2 1.4 0.6
v -0.2 1.4 0.5
v -0.2 1.6 0.7
v -0.2 1.6 0.6
v -0.2 1.6 0.5
v -0.2 1.6 0.4
v -0.2 1.7 0.7
v -0.2 1.7 0.4
v -0.8 1.4 0.8
v -0.8 1.5 0.8
v -0.8 1.6 0.8
v -0.6 1.5 0.8
v -0.6 1.6 0.8
v -0.4 1.4 0.8
v -0.4 1.5 0.8
v -0.3 1.4 0.8
v -0.3 1.5 0.8
v -0.3 1.6 0.8
v -0.9 0.9 0.7
v -0.9 1 0.7
v -0.9 1.1 0.7
v -0.9 1.3 0.7
v -0.9 1.7 0.7
v -0.8 1 0.7
v -0.8 1.1 0.7
v -0.8 1.3 0.7
v -0.8 1.4 0.7
v -0.8 1.5 0.7
v -0.8 1.6 0.7
v -0.7 1.1 0.7
v -0.7 1.2 0.7
v -0.6 1 0.7
v -0.6 1.1 0.7
v -0.6 1.2 0.7
v -0.6 1.3 0.7
v -0.6 1.6 0.7
v -0.5 1 0.7
v -0.5 1.1 0.7
v -0.5 1.2 0.7
v -0.5 1.3 0.7
v -0.5 1.4 0.7
v -0.5 1.6 0.7
v -0.5 1.7 0.7
v -0.4 1 0.7
v -0.4 1.1 0.7
v -0.4 1.2 0.7
v -0.4 1.4 0.7
v -0.3 1.1 0.7
v -0.3 1.2 0.7
v -0.3 1.3 0.7
v -0.3 1.4 0.7
v -0.3 1.5 0.7
v -0.3 1.6 0.7
v -0.3 1.7 0.7
v -0.2 0.9 0.7
v -0.2 1 0.7
v -0.2 1.1 0.7
v -0.2 1.3 0.7
v -0.2 1.6 0.7
v -0.2 1.7 0.7
v -0.7 1.7 0.6
v -0.7 1.8 0.6
v -0.5 1.7 0.6
v -0.4 1.7 0.6
v -0.4 1.8 0.6
v -0.7 1.7 0.5
v -0.7 1.8 0.5
v -0.4 1.7 0.5
v -0.4 1.8 0.5
v -0.9 0.9 0.4
v -0.9 1 0.4
v -0.9 1.1 0.4
v -0.9 1.3 0.4
v -0.9 1.7 0.4
v -0.8 1 0.4
v -0.8 1.1 0.4
v -0.8 1.3 0.4
v -0.7 1.1 0.4
v -0.7 1.2 0.4
v -0.6 1.2 0.4
v -0.6 1.3 0.4
v -0.5 1.3 0.4
v -0.5 1.4 0.4
v -0.4 1.4 0.4
v -0.4 1.5 0.4
v -0.3 1.1 0.4
v -0.3 1.2 0.4
v -0.3 1.3 0.4
v -0.3 1.5 0.4
v -0.3 1.6 0.4
v -0.2 0.9 0.4
v -0.2 1 0.4
v -0.2 1.1 0.4
v -0.2 1.3 0.4
v -0.2 1.6 0.4
v -0.2 1.7 0.4
v -0.9 0.9 0.7
v -0.2 0.9 0.7
v -0.9 0.9 0.6
v -0.8 0.9 0.6
v -0.9 0.9 0.5
v -0.8 0.9 0.5
v -0.9 0.9 0.4
v -0.2 0.9 0.4
v -0.9 1.3 0.7
v -0.8 1.3 0.7
v -0.3 1.3 0.7
v -0.2 1.3 0.7
v -0.9 1.3 0.4
v -0.8 1.3 0.4
v -0.3 1.3 0.4
v -0.2 1.3 0.4
v -0.8 1.4 0.8
v -0.4 1.4 0.8
v -0.3 1.4 0.8
v -0.8 1.4 0.7
v -0.5 1.4 0.7
v -0.4 1.4 0.7
v -0.3 1.4 0.7
v -0.9 1.1 0.7
v -0.8 1.1 0.7
v -0.3 1.1 0.7
v -0.2 1.1 0.7
v -0.3 1.1 0.6
v -0.9 1.1 0.4
v -0.8 1.1 0.4
v -0.3 1.1 0.4
v -0.2 1.1 0.4
v -0.8 1.6 0.8
v -0.6 1.6 0.8
v -0.3 1.6 0.8
v -0.8 1.6 0.7
v -0.6 1.6 0.7
v -0.5 1.6 0.7
v -0.3 1.6 0.7
v -0.9 1.7 0.7
v -0.5 1.7 0.7
v -0.3 1.7 0.7
v -0.2 1.7 0.7
v -0.7 1.7 0.6
v -0.5 1.7 0.6
v -0.4 1.7 0.6
v -0.3 1.7 0.6
v -0.7 1.7 0.5
v -0.4 1.7 0.5
v -0.9 1.7 0.4
v -0.2 1.7 0.4
v -0.7 1.8 0.6
v -0.4 1.8 0.6
v -0.7 1.8 0.5
v -0.4 1.8 0.5

# faces
f 5/2/1 2/2/1 1/2/1
f 6/5/1 3/5/1 2/5/1
f 6/2/1 2/2/1 5/2/1
f 7/2/1 4/2/1 3/2/1
f 7/5/1 3/5/1 6/5/1
f 8/2/1 4/2/1 7/2/1
f 9/5/1 6/5/1 5/5/1
f 9/5/1 7/5/1 6/5/1
f 9/5/1 8/5/1 7/5/1
f 10/5/1 8/5/1 9/5/1
f 13/5/1 12/5/1 11/5/1
f 14/5/1 12/5/1 13/5/1
f 17/5/1 16/5/1 15/5/1
f 18/5/1 16/5/1 17/5/1
f 21/5/1 20/5/1 19/5/1
f 22/5/1 20/5/1 21/5/1
f 23/3/1 22/3/1 21/3/1
f 24/3/1 22/3/1 23/3/1
f 27/5/1 26/5/1 25/5/1
f 28/5/1 26/5/1 27/5/1
f 29/5/2 30/5/2 31/5/2
f 31/5/2 30/5/2 32/5/2
f 33/6/2 34/6/2 36/6/2
f 34/4/2 35/4/2 37/4/2
f 36/6/2 34/6/2 37/6/2
f 37/4/2 35/4/2 38/4/2
f 36/2/2 37/2/2 39/2/2
f 37/2/2 38/2/2 39/2/2
f 39/2/2 38/2/2 40/2/2
f 41/2/2 42/2/2 43/2/2
f 43/2/2 42/2/2 44/2/2
f 43/5/2 44/5/2 45/5/2
f 45/5/2 44/5/2 46/5/2
f 47/2/2 48/2/2 49/2/2
f 49/2/2 48/2/2 50/2/2
f 49/4/2 50/4/2 51/4/2
f 51/4/2 50/4/2 52/4/2
f 53/2/2 54/2/2 55/2/2
f 55/2/2 54/2/2 56/2/2
f 53/2/2 55/2/2 57/2/2
f 55/5/2 56/5/2 58/5/2
f 57/2/2 55/2/2 58/2/2
f 56/2/2 54/2/2 59/2/2
f 58/5/2 56/5/2 59/5/2
f 59/2/2 54/2/2 60/2/2
f 57/5/2 58/5/2 61/5/2
f 58/5/2 59/5/2 61/5/2
f 59/5/2 60/5/2 61/5/2
f 61/5/2 60/5/2 62/5/2
f 66/5/3 64/5/3 63/5/3
f 66/3/3 65/3/3 64/3/3
f 67/3/3 65/3/3 66/3/3
f 68/5/3 66/5/3 63/5/3
f 68/5/3 67/5/3 66/5/3
f 69/5/3 67/5/3 68/5/3
f 70/2/3 69/2/3 68/2/3
f 71/5/3 67/5/3 69/5/3
f 71/2/3 69/2/3 70/2/3
f 72/5/3 67/5/3 71/5/3
f 78/2/3 74/2/3 73/2/3
f 78/5/3 75/5/3 74/5/3
f 79/5/3 75/5/3 78/5/3
f 80/5/3 77/5/3 76/5/3
f 81/5/3 77/5/3 80/5/3
f 82/5/3 77/5/3 81/5/3
f 83/5/3 77/5/3 82/5/3
f 84/2/3 79/2/3 78/2/3
f 84/5/3 80/5/3 79/5/3
f 84/5/3 81/5/3 80/5/3
f 85/5/3 81/5/3 84/5/3
f 86/2/3 78/2/3 73/2/3
f 86/2/3 84/2/3 78/2/3
f 86/2/3 85/2/3 84/2/3
f 87/2/3 85/2/3 86/2/3
f 88/5/3 81/5/3 85/5/3
f 88/2/3 85/2/3 87/2/3
f 89/5/3 81/5/3 88/5/3
f 90/5/3 77/5/3 83/5/3
f 91/4/3 87/4/3 86/4/3
f 91/2/3 86/2/3 73/2/3
f 92/2/3 88/2/3 87/2/3
f 92/4/3 87/4/3 91/4/3
f 92/2/3 89/2/3 88/2/3
f 93/2/3 89/2/3 92/2/3
f 94/5/3 81/5/3 89/5/3
f 94/2/3 89/2/3 93/2/3
f 95/5/3 81/5/3 94/5/3
f 96/5/3 77/5/3 90/5/3
f 97/5/3 77/5/3 96/5/3
f 98/2/3 91/2/3 73/2/3
f 98/6/3 92/6/3 91/6/3
f 99/4/3 93/4/3 92/4/3
f 99/6/3 92/6/3 98/6/3
f 100/2/3 95/2/3 94/2/3
f 100/4/3 93/4/3 99/4/3
f 100/2/3 94/2/3 93/2/3
f 101/2/3 95/2/3 100/2/3
f 102/4/3 99/4/3 98/4/3
f 102/6/3 100/6/3 99/6/3
f 103/2/3 101/2/3 100/2/3
f 103/6/3 100/6/3 102/6/3
f 104/2/3 101/2/3 103/2/3
f 105/2/3 101/2/3 104/2/3
f 107/1/3 97/1/3 96/1/3
f 108/1/3 97/1/3 107/1/3
f 109/2/3 98/2/3 73/2/3
f 110/4/3 102/4/3 98/4/3
f 110/2/3 98/2/3 109/2/3
f 111/4/3 102/4/3 110/4/3
f 112/2/3 105/2/3 104/2/3
f 112/2/3 106/2/3 105/2/3
f 112/2/3 107/2/3 106/2/3
f 113/5/3 108/5/3 107/5/3
f 113/2/3 107/2/3 112/2/3
f 114/5/3 108/5/3 113/5/3
f 117/5/3 116/5/3 115/5/3
f 118/5/3 116/5/3 117/5/3
f 119/5/3 116/5/3 118/5/3
f 120/5/4 121/5/4 122/5/4
f 122/5/4 121/5/4 123/5/4
f 124/2/4 125/2/4 129/2/4
f 125/5/4 126/5/4 129/5/4
f 129/5/4 126/5/4 130/5/4
f 127/5/4 128/5/4 131/5/4
f 129/4/4 130/4/4 132/4/4
f 130/5/4 131/5/4 132/5/4
f 132/5/4 131/5/4 133/5/4
f 132/4/4 133/4/4 134/4/4
f 133/5/4 131/5/4 134/5/4
f 131/5/4 128/5/4 135/5/4
f 134/5/4 131/5/4 135/5/4
f 134/2/4 135/2/4 136/2/4
f 135/5/4 128/5/4 136/5/4
f 136/5/4 128/5/4 137/5/4
f 136/2/4 137/2/4 138/2/4
f 137/5/4 128/5/4 138/5/4
f 138/5/4 128/5/4 139/5/4
f 132/4/4 134/4/4 140/4/4
f 129/4/4 132/4/4 140/4/4
f 138/2/4 139/2/4 141/2/4
f 140/4/4 134/4/4 141/4/4
f 134/2/4 136/2/4 141/2/4
f 136/2/4 138/2/4 141/2/4
f 141/2/4 139/2/4 142/2/4
f 139/5/4 128/5/4 143/5/4
f 142/2/4 139/2/4 143/2/4
f 143/5/4 128/5/4 144/5/4
f 124/2/4 129/2/4 145/2/4
f 129/4/4 140/4/4 146/4/4
f 145/2/4 129/2/4 146/2/4
f 146/4/4 140/4/4 147/4/4
f 143/2/4 144/2/4 148/2/4
f 142/2/4 143/2/4 148/2/4
f 144/5/4 128/5/4 149/5/4
f 148/2/4 144/2/4 149/2/4
f 149/5/4 128/5/4 150/5/4
f 153/2/5 152/2/5 151/2/5
f 154/2/5 152/2/5 153/2/5
f 155/5/5 154/5/5 153/5/5
f 156/2/5 152/2/5 154/2/5
f 156/5/5 154/5/5 155/5/5
f 157/2/5 156/2/5 155/2/5
f 158/2/5 152/2/5 156/2/5
f 158/2/5 156/2/5 157/2/5
f 163/5/5 160/5/5 159/5/5
f 164/5/5 160/5/5 163/5/5
f 165/2/5 162/2/5 161/2/5
f 166/2/5 162/2/5 165/2/5
f 170/5/5 168/5/5 167/5/5
f 171/5/5 168/5/5 170/5/5
f 172/2/5 169/2/5 168/2/5
f 172/5/5 168/5/5 171/5/5
f 173/2/5 169/2/5 172/2/5
f 176/4/6 177/4/6 178/4/6
f 174/5/6 175/5/6 179/5/6
f 179/5/6 175/5/6 180/5/6
f 178/4/6 177/4/6 181/4/6
f 181/4/6 177/4/6 182/4/6
f 183/3/6 184/3/6 186/3/6
f 184/5/6 185/5/6 187/5/6
f 186/3/6 184/3/6 187/3/6
f 187/5/6 185/5/6 188/5/6
f 188/5/6 185/5/6 189/5/6
f 190/5/6 191/5/6 194/5/6
f 191/1/6 192/1/6 195/1/6
f 194/5/6 191/5/6 195/5/6
f 195/1/6 192/1/6 196/1/6
f 192/5/6 193/5/6 197/5/6
f 196/1/6 192/1/6 197/1/6
f 190/5/6 194/5/6 198/5/6
f 196/5/6 197/5/6 199/5/6
f 190/5/6 198/5/6 200/5/6
f 198/5/6 199/5/6 200/5/6
f 197/5/6 193/5/6 201/5/6
f 200/5/6 199/5/6 201/5/6
f 199/5/6 197/5/6 201/5/6
f 202/5/6 203/5/6 204/5/6
f 204/5/6 203/5/6 205/5/6
