# MagicaVoxel @ Ephtracy

# group
o 

# material
mtllib AlPlaque.mtl
usemtl palette

# normals
vn -1 0 0
vn 1 0 0
vn 0 0 1
vn 0 0 -1
vn 0 -1 0
vn 0 1 0

# texcoords
vt 0.00195312 0.5
vt 0.169922 0.5
vt 0.974609 0.5

# verts
v -2 0 -1.8
v -2 0 -2
v -2 4 -1.8
v -2 4 -2
v 0.9 0.1 -1.8
v 0.9 0.1 -1.9
v 0.9 0.4 -1.8
v 0.9 0.4 -1.9
v 0.9 1.9 -1.8
v 0.9 1.9 -1.9
v 0.9 3.9 -1.8
v 0.9 3.9 -1.9
v -1.9 0.1 -1.8
v -1.9 0.1 -1.9
v -1.9 3.9 -1.8
v -1.9 3.9 -1.9
v 1 0 -1.8
v 1 0 -2
v 1 0.4 -1.8
v 1 0.4 -2
v 1 1.8 -1.9
v 1 1.8 -2
v 1 1.9 -1.8
v 1 1.9 -1.9
v 1 4 -1.8
v 1 4 -2
v -2 0 -1.8
v -2 4 -1.8
v -1.9 0.1 -1.8
v -1.9 3.9 -1.8
v -1.1 3.9 -1.8
v -1.1 4 -1.8
v 0.1 3.9 -1.8
v 0.1 4 -1.8
v 0.9 0.1 -1.8
v 0.9 0.4 -1.8
v 0.9 1.9 -1.8
v 0.9 3.9 -1.8
v 1 0 -1.8
v 1 0.4 -1.8
v 1 1.9 -1.8
v 1 4 -1.8
v -1.9 0.1 -1.9
v -1.9 3.9 -1.9
v -1.6 1.7 -1.9
v -1.6 2.7 -1.9
v -1.5 1.2 -1.9
v -1.5 1.7 -1.9
v -1.5 2.7 -1.9
v -1.5 3.3 -1.9
v -1.4 1 -1.9
v -1.4 1.2 -1.9
v -1.4 3.3 -1.9
v -1.4 3.6 -1.9
v -1.3 0.9 -1.9
v -1.3 1 -1.9
v -1.3 3.6 -1.9
v -1.3 3.7 -1.9
v -1.2 0.8 -1.9
v -1.2 0.9 -1.9
v -1.2 3.7 -1.9
v -1.2 3.8 -1.9
v -1.1 0.7 -1.9
v -1.1 0.8 -1.9
v -1.1 3.8 -1.9
v -1.1 3.9 -1.9
v -1 0.6 -1.9
v -1 0.7 -1.9
v -0.9 0.5 -1.9
v -0.9 0.6 -1.9
v -0.8 0.4 -1.9
v -0.8 0.5 -1.9
v 0.1 0.3 -1.9
v 0.1 0.4 -1.9
v 0.1 3.9 -1.9
v 0.2 3.8 -1.9
v 0.2 3.9 -1.9
v 0.3 3.6 -1.9
v 0.3 3.8 -1.9
v 0.4 3.5 -1.9
v 0.4 3.6 -1.9
v 0.5 3.3 -1.9
v 0.5 3.5 -1.9
v 0.6 3.1 -1.9
v 0.6 3.3 -1.9
v 0.7 2.6 -1.9
v 0.7 3.1 -1.9
v 0.8 0.3 -1.9
v 0.8 0.4 -1.9
v 0.8 1.9 -1.9
v 0.8 2.6 -1.9
v 0.9 0.1 -1.9
v 0.9 0.4 -1.9
v 0.9 1.9 -1.9
v 0.9 3.9 -1.9
v -2 0 -2
v -2 4 -2
v -1.6 0 -2
v -1.6 0.1 -2
v -1.6 1.7 -2
v -1.6 2.7 -2
v -1.5 0 -2
v -1.5 0.1 -2
v -1.5 1.2 -2
v -1.5 1.7 -2
v -1.5 2.7 -2
v -1.5 3.3 -2
v -1.4 1 -2
v -1.4 1.2 -2
v -1.4 3.3 -2
v -1.4 3.6 -2
v -1.3 0.9 -2
v -1.3 1 -2
v -1.3 3.6 -2
v -1.3 3.7 -2
v -1.2 0.8 -2
v -1.2 0.9 -2
v -1.2 3.7 -2
v -1.2 3.8 -2
v -1.1 0.7 -2
v -1.1 0.8 -2
v -1.1 3.8 -2
v -1.1 4 -2
v -1 0.6 -2
v -1 0.7 -2
v -0.9 0.5 -2
v -0.9 0.6 -2
v -0.8 0.4 -2
v -0.8 0.5 -2
v 0.1 0.3 -2
v 0.1 0.4 -2
v 0.2 3.8 -2
v 0.2 4 -2
v 0.3 3.6 -2
v 0.3 3.8 -2
v 0.4 3.5 -2
v 0.4 3.6 -2
v 0.5 3.3 -2
v 0.5 3.5 -2
v 0.6 3.1 -2
v 0.6 3.3 -2
v 0.7 2.6 -2
v 0.7 3.1 -2
v 0.8 0.3 -2
v 0.8 0.4 -2
v 0.8 1.9 -2
v 0.8 2.6 -2
v 0.9 1.8 -2
v 0.9 1.9 -2
v 1 0 -2
v 1 0.4 -2
v 1 1.8 -2
v 1 4 -2
v -2 0 -1.8
v 1 0 -1.8
v -1.6 0 -1.9
v -1.5 0 -1.9
v -2 0 -2
v -1.6 0 -2
v -1.5 0 -2
v 1 0 -2
v -1.9 3.9 -1.8
v -1.1 3.9 -1.8
v 0.1 3.9 -1.8
v 0.9 3.9 -1.8
v -1.9 3.9 -1.9
v -1.1 3.9 -1.9
v 0.1 3.9 -1.9
v 0.2 3.9 -1.9
v 0.9 3.9 -1.9
v -1.9 0.1 -1.8
v 0.9 0.1 -1.8
v -1.9 0.1 -1.9
v 0.9 0.1 -1.9
v -2 4 -1.8
v -1.1 4 -1.8
v 0.1 4 -1.8
v 1 4 -1.8
v 0.1 4 -1.9
v 0.2 4 -1.9
v -2 4 -2
v -1.1 4 -2
v 0.2 4 -2
v 1 4 -2

# faces
f 3/2/1 2/2/1 1/2/1
f 4/2/1 2/2/1 3/2/1
f 7/2/1 6/2/1 5/2/1
f 8/2/1 6/2/1 7/2/1
f 9/3/1 8/3/1 7/3/1
f 10/3/1 8/3/1 9/3/1
f 11/1/1 10/1/1 9/1/1
f 12/1/1 10/1/1 11/1/1
f 13/2/2 14/2/2 15/2/2
f 15/2/2 14/2/2 16/2/2
f 17/2/2 18/2/2 19/2/2
f 19/2/2 18/2/2 20/2/2
f 19/3/2 20/3/2 21/3/2
f 21/3/2 20/3/2 22/3/2
f 19/3/2 21/3/2 23/3/2
f 21/1/2 22/1/2 24/1/2
f 23/3/2 21/3/2 24/3/2
f 23/1/2 24/1/2 25/1/2
f 24/1/2 22/1/2 26/1/2
f 25/1/2 24/1/2 26/1/2
f 29/2/3 28/2/3 27/2/3
f 30/2/3 28/2/3 29/2/3
f 31/2/3 28/2/3 30/2/3
f 32/2/3 28/2/3 31/2/3
f 33/3/3 32/3/3 31/3/3
f 34/3/3 32/3/3 33/3/3
f 35/2/3 29/2/3 27/2/3
f 38/1/3 34/1/3 33/1/3
f 39/2/3 35/2/3 27/2/3
f 39/2/3 36/2/3 35/2/3
f 40/3/3 37/3/3 36/3/3
f 40/2/3 36/2/3 39/2/3
f 41/1/3 38/1/3 37/1/3
f 41/3/3 37/3/3 40/3/3
f 42/1/3 34/1/3 38/1/3
f 42/1/3 38/1/3 41/1/3
f 45/2/3 44/2/3 43/2/3
f 46/2/3 44/2/3 45/2/3
f 47/2/3 45/2/3 43/2/3
f 48/3/3 46/3/3 45/3/3
f 48/2/3 45/2/3 47/2/3
f 49/2/3 44/2/3 46/2/3
f 49/3/3 46/3/3 48/3/3
f 50/2/3 44/2/3 49/2/3
f 51/2/3 47/2/3 43/2/3
f 52/3/3 48/3/3 47/3/3
f 52/2/3 47/2/3 51/2/3
f 52/3/3 49/3/3 48/3/3
f 52/3/3 50/3/3 49/3/3
f 53/2/3 44/2/3 50/2/3
f 53/3/3 50/3/3 52/3/3
f 54/2/3 44/2/3 53/2/3
f 55/2/3 51/2/3 43/2/3
f 56/3/3 52/3/3 51/3/3
f 56/2/3 51/2/3 55/2/3
f 56/3/3 53/3/3 52/3/3
f 56/3/3 54/3/3 53/3/3
f 57/2/3 44/2/3 54/2/3
f 57/3/3 54/3/3 56/3/3
f 58/2/3 44/2/3 57/2/3
f 59/2/3 55/2/3 43/2/3
f 60/3/3 56/3/3 55/3/3
f 60/2/3 55/2/3 59/2/3
f 60/3/3 57/3/3 56/3/3
f 60/3/3 58/3/3 57/3/3
f 61/2/3 44/2/3 58/2/3
f 61/3/3 58/3/3 60/3/3
f 62/2/3 44/2/3 61/2/3
f 63/2/3 59/2/3 43/2/3
f 64/3/3 60/3/3 59/3/3
f 64/2/3 59/2/3 63/2/3
f 64/3/3 61/3/3 60/3/3
f 64/3/3 62/3/3 61/3/3
f 65/2/3 44/2/3 62/2/3
f 65/3/3 62/3/3 64/3/3
f 66/2/3 44/2/3 65/2/3
f 67/2/3 63/2/3 43/2/3
f 68/3/3 64/3/3 63/3/3
f 68/2/3 63/2/3 67/2/3
f 68/3/3 65/3/3 64/3/3
f 68/3/3 66/3/3 65/3/3
f 69/2/3 67/2/3 43/2/3
f 70/3/3 68/3/3 67/3/3
f 70/2/3 67/2/3 69/2/3
f 71/2/3 69/2/3 43/2/3
f 72/3/3 70/3/3 69/3/3
f 72/2/3 69/2/3 71/2/3
f 73/2/3 71/2/3 43/2/3
f 74/3/3 72/3/3 71/3/3
f 74/2/3 71/2/3 73/2/3
f 75/3/3 66/3/3 68/3/3
f 75/3/3 72/3/3 74/3/3
f 75/3/3 68/3/3 70/3/3
f 75/3/3 70/3/3 72/3/3
f 76/3/3 74/3/3 73/3/3
f 76/3/3 75/3/3 74/3/3
f 77/3/3 75/3/3 76/3/3
f 78/3/3 76/3/3 73/3/3
f 79/1/3 77/1/3 76/1/3
f 79/3/3 76/3/3 78/3/3
f 80/3/3 78/3/3 73/3/3
f 81/1/3 79/1/3 78/1/3
f 81/3/3 78/3/3 80/3/3
f 82/3/3 80/3/3 73/3/3
f 83/1/3 81/1/3 80/1/3
f 83/3/3 80/3/3 82/3/3
f 84/3/3 82/3/3 73/3/3
f 85/1/3 83/1/3 82/1/3
f 85/3/3 82/3/3 84/3/3
f 86/3/3 84/3/3 73/3/3
f 87/1/3 85/1/3 84/1/3
f 87/3/3 84/3/3 86/3/3
f 88/2/3 73/2/3 43/2/3
f 88/3/3 86/3/3 73/3/3
f 89/3/3 86/3/3 88/3/3
f 90/3/3 86/3/3 89/3/3
f 91/1/3 87/1/3 86/1/3
f 91/3/3 86/3/3 90/3/3
f 92/2/3 88/2/3 43/2/3
f 92/2/3 89/2/3 88/2/3
f 93/3/3 90/3/3 89/3/3
f 93/2/3 89/2/3 92/2/3
f 94/1/3 91/1/3 90/1/3
f 94/3/3 90/3/3 93/3/3
f 95/1/3 85/1/3 87/1/3
f 95/1/3 91/1/3 94/1/3
f 95/1/3 77/1/3 79/1/3
f 95/1/3 79/1/3 81/1/3
f 95/1/3 87/1/3 91/1/3
f 95/1/3 81/1/3 83/1/3
f 95/1/3 83/1/3 85/1/3
f 96/2/4 97/2/4 98/2/4
f 98/2/4 97/2/4 99/2/4
f 99/2/4 97/2/4 100/2/4
f 100/2/4 97/2/4 101/2/4
f 98/3/4 99/3/4 102/3/4
f 99/2/4 100/2/4 103/2/4
f 102/3/4 99/3/4 103/3/4
f 103/2/4 100/2/4 104/2/4
f 100/3/4 101/3/4 105/3/4
f 104/2/4 100/2/4 105/2/4
f 101/2/4 97/2/4 106/2/4
f 105/3/4 101/3/4 106/3/4
f 106/2/4 97/2/4 107/2/4
f 103/2/4 104/2/4 108/2/4
f 102/2/4 103/2/4 108/2/4
f 104/3/4 105/3/4 109/3/4
f 108/2/4 104/2/4 109/2/4
f 106/3/4 107/3/4 109/3/4
f 105/3/4 106/3/4 109/3/4
f 107/2/4 97/2/4 110/2/4
f 109/3/4 107/3/4 110/3/4
f 110/2/4 97/2/4 111/2/4
f 102/2/4 108/2/4 112/2/4
f 108/3/4 109/3/4 113/3/4
f 112/2/4 108/2/4 113/2/4
f 109/3/4 110/3/4 113/3/4
f 110/3/4 111/3/4 113/3/4
f 111/2/4 97/2/4 114/2/4
f 113/3/4 111/3/4 114/3/4
f 114/2/4 97/2/4 115/2/4
f 102/2/4 112/2/4 116/2/4
f 112/3/4 113/3/4 117/3/4
f 116/2/4 112/2/4 117/2/4
f 113/3/4 114/3/4 117/3/4
f 114/3/4 115/3/4 117/3/4
f 115/2/4 97/2/4 118/2/4
f 117/3/4 115/3/4 118/3/4
f 118/2/4 97/2/4 119/2/4
f 102/2/4 116/2/4 120/2/4
f 116/3/4 117/3/4 121/3/4
f 120/2/4 116/2/4 121/2/4
f 117/3/4 118/3/4 121/3/4
f 118/3/4 119/3/4 121/3/4
f 119/2/4 97/2/4 122/2/4
f 121/3/4 119/3/4 122/3/4
f 122/2/4 97/2/4 123/2/4
f 102/2/4 120/2/4 124/2/4
f 120/3/4 121/3/4 125/3/4
f 124/2/4 120/2/4 125/2/4
f 121/3/4 122/3/4 125/3/4
f 122/3/4 123/3/4 125/3/4
f 102/2/4 124/2/4 126/2/4
f 124/3/4 125/3/4 127/3/4
f 126/2/4 124/2/4 127/2/4
f 102/2/4 126/2/4 128/2/4
f 126/3/4 127/3/4 129/3/4
f 128/2/4 126/2/4 129/2/4
f 102/2/4 128/2/4 130/2/4
f 128/3/4 129/3/4 131/3/4
f 130/2/4 128/2/4 131/2/4
f 125/3/4 123/3/4 132/3/4
f 131/3/4 129/3/4 132/3/4
f 130/3/4 131/3/4 132/3/4
f 127/3/4 125/3/4 132/3/4
f 129/3/4 127/3/4 132/3/4
f 132/3/4 123/3/4 133/3/4
f 130/3/4 132/3/4 134/3/4
f 132/1/4 133/1/4 135/1/4
f 134/3/4 132/3/4 135/3/4
f 130/3/4 134/3/4 136/3/4
f 134/1/4 135/1/4 137/1/4
f 136/3/4 134/3/4 137/3/4
f 130/3/4 136/3/4 138/3/4
f 136/1/4 137/1/4 139/1/4
f 138/3/4 136/3/4 139/3/4
f 130/3/4 138/3/4 140/3/4
f 138/1/4 139/1/4 141/1/4
f 140/3/4 138/3/4 141/3/4
f 130/3/4 140/3/4 142/3/4
f 140/1/4 141/1/4 143/1/4
f 142/3/4 140/3/4 143/3/4
f 102/2/4 130/2/4 144/2/4
f 130/3/4 142/3/4 144/3/4
f 144/3/4 142/3/4 145/3/4
f 145/3/4 142/3/4 146/3/4
f 142/1/4 143/1/4 147/1/4
f 146/3/4 142/3/4 147/3/4
f 145/3/4 146/3/4 148/3/4
f 146/1/4 147/1/4 149/1/4
f 148/3/4 146/3/4 149/3/4
f 102/2/4 144/2/4 150/2/4
f 144/2/4 145/2/4 150/2/4
f 145/3/4 148/3/4 151/3/4
f 150/2/4 145/2/4 151/2/4
f 148/1/4 149/1/4 152/1/4
f 151/3/4 148/3/4 152/3/4
f 143/1/4 141/1/4 153/1/4
f 152/1/4 149/1/4 153/1/4
f 135/1/4 133/1/4 153/1/4
f 137/1/4 135/1/4 153/1/4
f 139/1/4 137/1/4 153/1/4
f 149/1/4 147/1/4 153/1/4
f 147/1/4 143/1/4 153/1/4
f 141/1/4 139/1/4 153/1/4
f 156/2/5 155/2/5 154/2/5
f 157/2/5 155/2/5 156/2/5
f 158/2/5 156/2/5 154/2/5
f 159/3/5 157/3/5 156/3/5
f 159/2/5 156/2/5 158/2/5
f 160/2/5 155/2/5 157/2/5
f 160/3/5 157/3/5 159/3/5
f 161/2/5 155/2/5 160/2/5
f 166/2/5 163/2/5 162/2/5
f 167/3/5 164/3/5 163/3/5
f 167/2/5 163/2/5 166/2/5
f 168/1/5 165/1/5 164/1/5
f 168/3/5 164/3/5 167/3/5
f 169/1/5 165/1/5 168/1/5
f 170/1/5 165/1/5 169/1/5
f 171/2/6 172/2/6 173/2/6
f 173/2/6 172/2/6 174/2/6
f 176/3/6 177/3/6 179/3/6
f 177/1/6 178/1/6 179/1/6
f 179/1/6 178/1/6 180/1/6
f 175/2/6 176/2/6 181/2/6
f 176/3/6 179/3/6 182/3/6
f 181/2/6 176/2/6 182/2/6
f 179/3/6 180/3/6 182/3/6
f 180/1/6 178/1/6 183/1/6
f 182/3/6 180/3/6 183/3/6
f 183/1/6 178/1/6 184/1/6
