# MagicaVoxel @ Ephtracy

# group
o 

# material
mtllib JessPlaque.mtl
usemtl palette

# normals
vn -1 0 0
vn 1 0 0
vn 0 0 1
vn 0 0 -1
vn 0 -1 0
vn 0 1 0

# texcoords
vt 0.0214844 0.5
vt 0.0410156 0.5
vt 0.208984 0.5

# verts
v -2 0 -1.8
v -2 0 -2
v -2 4 -1.8
v -2 4 -2
v 0.9 0.1 -1.8
v 0.9 0.1 -1.9
v 0.9 0.4 -1.8
v 0.9 0.4 -1.9
v 0.9 1.9 -1.8
v 0.9 1.9 -1.9
v 0.9 3.9 -1.8
v 0.9 3.9 -1.9
v -1.9 0.1 -1.8
v -1.9 0.1 -1.9
v -1.9 3.9 -1.8
v -1.9 3.9 -1.9
v 1 0 -1.8
v 1 0 -2
v 1 0.4 -1.8
v 1 0.4 -2
v 1 1.8 -1.9
v 1 1.8 -2
v 1 1.9 -1.8
v 1 1.9 -1.9
v 1 4 -1.8
v 1 4 -2
v -2 0 -1.8
v -2 4 -1.8
v -1.9 0.1 -1.8
v -1.9 3.9 -1.8
v -1.1 3.9 -1.8
v -1.1 4 -1.8
v 0.1 3.9 -1.8
v 0.1 4 -1.8
v 0.9 0.1 -1.8
v 0.9 0.4 -1.8
v 0.9 1.9 -1.8
v 0.9 3.9 -1.8
v 1 0 -1.8
v 1 0.4 -1.8
v 1 1.9 -1.8
v 1 4 -1.8
v -1.9 0.1 -1.9
v -1.9 3.9 -1.9
v -1.6 1.7 -1.9
v -1.6 2.7 -1.9
v -1.5 1.2 -1.9
v -1.5 1.7 -1.9
v -1.5 2.7 -1.9
v -1.5 3.3 -1.9
v -1.4 1 -1.9
v -1.4 1.2 -1.9
v -1.4 3.3 -1.9
v -1.4 3.6 -1.9
v -1.3 0.9 -1.9
v -1.3 1 -1.9
v -1.3 3.6 -1.9
v -1.3 3.7 -1.9
v -1.2 0.8 -1.9
v -1.2 0.9 -1.9
v -1.2 3.7 -1.9
v -1.2 3.8 -1.9
v -1.1 0.7 -1.9
v -1.1 0.8 -1.9
v -1.1 3.8 -1.9
v -1.1 3.9 -1.9
v -1 0.6 -1.9
v -1 0.7 -1.9
v -0.9 0.5 -1.9
v -0.9 0.6 -1.9
v -0.8 0.4 -1.9
v -0.8 0.5 -1.9
v 0.1 0.3 -1.9
v 0.1 0.4 -1.9
v 0.1 3.9 -1.9
v 0.2 3.8 -1.9
v 0.2 3.9 -1.9
v 0.3 3.6 -1.9
v 0.3 3.8 -1.9
v 0.4 3.5 -1.9
v 0.4 3.6 -1.9
v 0.5 3.3 -1.9
v 0.5 3.5 -1.9
v 0.6 3.1 -1.9
v 0.6 3.3 -1.9
v 0.7 2.6 -1.9
v 0.7 3.1 -1.9
v 0.8 0.3 -1.9
v 0.8 0.4 -1.9
v 0.8 1.9 -1.9
v 0.8 2.6 -1.9
v 0.9 0.1 -1.9
v 0.9 0.4 -1.9
v 0.9 1.9 -1.9
v 0.9 3.9 -1.9
v -2 0 -2
v -2 4 -2
v -1.6 0 -2
v -1.6 0.1 -2
v -1.6 1.7 -2
v -1.6 2.7 -2
v -1.5 0 -2
v -1.5 0.1 -2
v -1.5 1.2 -2
v -1.5 1.7 -2
v -1.5 2.7 -2
v -1.5 3.3 -2
v -1.4 1 -2
v -1.4 1.2 -2
v -1.4 3.3 -2
v -1.4 3.6 -2
v -1.3 0.9 -2
v -1.3 1 -2
v -1.3 3.6 -2
v -1.3 3.7 -2
v -1.2 0.8 -2
v -1.2 0.9 -2
v -1.2 3.7 -2
v -1.2 3.8 -2
v -1.1 0.7 -2
v -1.1 0.8 -2
v -1.1 3.8 -2
v -1.1 4 -2
v -1 0.6 -2
v -1 0.7 -2
v -0.9 0.5 -2
v -0.9 0.6 -2
v -0.8 0.4 -2
v -0.8 0.5 -2
v 0.1 0.3 -2
v 0.1 0.4 -2
v 0.2 3.8 -2
v 0.2 4 -2
v 0.3 3.6 -2
v 0.3 3.8 -2
v 0.4 3.5 -2
v 0.4 3.6 -2
v 0.5 3.3 -2
v 0.5 3.5 -2
v 0.6 3.1 -2
v 0.6 3.3 -2
v 0.7 2.6 -2
v 0.7 3.1 -2
v 0.8 0.3 -2
v 0.8 0.4 -2
v 0.8 1.9 -2
v 0.8 2.6 -2
v 0.9 1.8 -2
v 0.9 1.9 -2
v 1 0 -2
v 1 0.4 -2
v 1 1.8 -2
v 1 4 -2
v -2 0 -1.8
v 1 0 -1.8
v -1.6 0 -1.9
v -1.5 0 -1.9
v -2 0 -2
v -1.6 0 -2
v -1.5 0 -2
v 1 0 -2
v -1.9 3.9 -1.8
v -1.1 3.9 -1.8
v 0.1 3.9 -1.8
v 0.9 3.9 -1.8
v -1.9 3.9 -1.9
v -1.1 3.9 -1.9
v 0.1 3.9 -1.9
v 0.2 3.9 -1.9
v 0.9 3.9 -1.9
v -1.9 0.1 -1.8
v 0.9 0.1 -1.8
v -1.9 0.1 -1.9
v 0.9 0.1 -1.9
v -2 4 -1.8
v -1.1 4 -1.8
v 0.1 4 -1.8
v 1 4 -1.8
v 0.1 4 -1.9
v 0.2 4 -1.9
v -2 4 -2
v -1.1 4 -2
v 0.2 4 -2
v 1 4 -2

# faces
f 3/3/1 2/3/1 1/3/1
f 4/3/1 2/3/1 3/3/1
f 7/3/1 6/3/1 5/3/1
f 8/3/1 6/3/1 7/3/1
f 9/2/1 8/2/1 7/2/1
f 10/2/1 8/2/1 9/2/1
f 11/1/1 10/1/1 9/1/1
f 12/1/1 10/1/1 11/1/1
f 13/3/2 14/3/2 15/3/2
f 15/3/2 14/3/2 16/3/2
f 17/3/2 18/3/2 19/3/2
f 19/3/2 18/3/2 20/3/2
f 19/2/2 20/2/2 21/2/2
f 21/2/2 20/2/2 22/2/2
f 19/2/2 21/2/2 23/2/2
f 21/1/2 22/1/2 24/1/2
f 23/2/2 21/2/2 24/2/2
f 23/1/2 24/1/2 25/1/2
f 24/1/2 22/1/2 26/1/2
f 25/1/2 24/1/2 26/1/2
f 29/3/3 28/3/3 27/3/3
f 30/3/3 28/3/3 29/3/3
f 31/3/3 28/3/3 30/3/3
f 32/3/3 28/3/3 31/3/3
f 33/2/3 32/2/3 31/2/3
f 34/2/3 32/2/3 33/2/3
f 35/3/3 29/3/3 27/3/3
f 38/1/3 34/1/3 33/1/3
f 39/3/3 35/3/3 27/3/3
f 39/3/3 36/3/3 35/3/3
f 40/2/3 37/2/3 36/2/3
f 40/3/3 36/3/3 39/3/3
f 41/1/3 38/1/3 37/1/3
f 41/2/3 37/2/3 40/2/3
f 42/1/3 34/1/3 38/1/3
f 42/1/3 38/1/3 41/1/3
f 45/3/3 44/3/3 43/3/3
f 46/3/3 44/3/3 45/3/3
f 47/3/3 45/3/3 43/3/3
f 48/2/3 46/2/3 45/2/3
f 48/3/3 45/3/3 47/3/3
f 49/3/3 44/3/3 46/3/3
f 49/2/3 46/2/3 48/2/3
f 50/3/3 44/3/3 49/3/3
f 51/3/3 47/3/3 43/3/3
f 52/2/3 48/2/3 47/2/3
f 52/3/3 47/3/3 51/3/3
f 52/2/3 49/2/3 48/2/3
f 52/2/3 50/2/3 49/2/3
f 53/3/3 44/3/3 50/3/3
f 53/2/3 50/2/3 52/2/3
f 54/3/3 44/3/3 53/3/3
f 55/3/3 51/3/3 43/3/3
f 56/2/3 52/2/3 51/2/3
f 56/3/3 51/3/3 55/3/3
f 56/2/3 53/2/3 52/2/3
f 56/2/3 54/2/3 53/2/3
f 57/3/3 44/3/3 54/3/3
f 57/2/3 54/2/3 56/2/3
f 58/3/3 44/3/3 57/3/3
f 59/3/3 55/3/3 43/3/3
f 60/2/3 56/2/3 55/2/3
f 60/3/3 55/3/3 59/3/3
f 60/2/3 57/2/3 56/2/3
f 60/2/3 58/2/3 57/2/3
f 61/3/3 44/3/3 58/3/3
f 61/2/3 58/2/3 60/2/3
f 62/3/3 44/3/3 61/3/3
f 63/3/3 59/3/3 43/3/3
f 64/2/3 60/2/3 59/2/3
f 64/3/3 59/3/3 63/3/3
f 64/2/3 61/2/3 60/2/3
f 64/2/3 62/2/3 61/2/3
f 65/3/3 44/3/3 62/3/3
f 65/2/3 62/2/3 64/2/3
f 66/3/3 44/3/3 65/3/3
f 67/3/3 63/3/3 43/3/3
f 68/2/3 64/2/3 63/2/3
f 68/3/3 63/3/3 67/3/3
f 68/2/3 65/2/3 64/2/3
f 68/2/3 66/2/3 65/2/3
f 69/3/3 67/3/3 43/3/3
f 70/2/3 68/2/3 67/2/3
f 70/3/3 67/3/3 69/3/3
f 71/3/3 69/3/3 43/3/3
f 72/2/3 70/2/3 69/2/3
f 72/3/3 69/3/3 71/3/3
f 73/3/3 71/3/3 43/3/3
f 74/2/3 72/2/3 71/2/3
f 74/3/3 71/3/3 73/3/3
f 75/2/3 66/2/3 68/2/3
f 75/2/3 72/2/3 74/2/3
f 75/2/3 68/2/3 70/2/3
f 75/2/3 70/2/3 72/2/3
f 76/2/3 74/2/3 73/2/3
f 76/2/3 75/2/3 74/2/3
f 77/2/3 75/2/3 76/2/3
f 78/2/3 76/2/3 73/2/3
f 79/1/3 77/1/3 76/1/3
f 79/2/3 76/2/3 78/2/3
f 80/2/3 78/2/3 73/2/3
f 81/1/3 79/1/3 78/1/3
f 81/2/3 78/2/3 80/2/3
f 82/2/3 80/2/3 73/2/3
f 83/1/3 81/1/3 80/1/3
f 83/2/3 80/2/3 82/2/3
f 84/2/3 82/2/3 73/2/3
f 85/1/3 83/1/3 82/1/3
f 85/2/3 82/2/3 84/2/3
f 86/2/3 84/2/3 73/2/3
f 87/1/3 85/1/3 84/1/3
f 87/2/3 84/2/3 86/2/3
f 88/3/3 73/3/3 43/3/3
f 88/2/3 86/2/3 73/2/3
f 89/2/3 86/2/3 88/2/3
f 90/2/3 86/2/3 89/2/3
f 91/1/3 87/1/3 86/1/3
f 91/2/3 86/2/3 90/2/3
f 92/3/3 88/3/3 43/3/3
f 92/3/3 89/3/3 88/3/3
f 93/2/3 90/2/3 89/2/3
f 93/3/3 89/3/3 92/3/3
f 94/1/3 91/1/3 90/1/3
f 94/2/3 90/2/3 93/2/3
f 95/1/3 85/1/3 87/1/3
f 95/1/3 91/1/3 94/1/3
f 95/1/3 77/1/3 79/1/3
f 95/1/3 79/1/3 81/1/3
f 95/1/3 87/1/3 91/1/3
f 95/1/3 81/1/3 83/1/3
f 95/1/3 83/1/3 85/1/3
f 96/3/4 97/3/4 98/3/4
f 98/3/4 97/3/4 99/3/4
f 99/3/4 97/3/4 100/3/4
f 100/3/4 97/3/4 101/3/4
f 98/2/4 99/2/4 102/2/4
f 99/3/4 100/3/4 103/3/4
f 102/2/4 99/2/4 103/2/4
f 103/3/4 100/3/4 104/3/4
f 100/2/4 101/2/4 105/2/4
f 104/3/4 100/3/4 105/3/4
f 101/3/4 97/3/4 106/3/4
f 105/2/4 101/2/4 106/2/4
f 106/3/4 97/3/4 107/3/4
f 103/3/4 104/3/4 108/3/4
f 102/3/4 103/3/4 108/3/4
f 104/2/4 105/2/4 109/2/4
f 108/3/4 104/3/4 109/3/4
f 106/2/4 107/2/4 109/2/4
f 105/2/4 106/2/4 109/2/4
f 107/3/4 97/3/4 110/3/4
f 109/2/4 107/2/4 110/2/4
f 110/3/4 97/3/4 111/3/4
f 102/3/4 108/3/4 112/3/4
f 108/2/4 109/2/4 113/2/4
f 112/3/4 108/3/4 113/3/4
f 109/2/4 110/2/4 113/2/4
f 110/2/4 111/2/4 113/2/4
f 111/3/4 97/3/4 114/3/4
f 113/2/4 111/2/4 114/2/4
f 114/3/4 97/3/4 115/3/4
f 102/3/4 112/3/4 116/3/4
f 112/2/4 113/2/4 117/2/4
f 116/3/4 112/3/4 117/3/4
f 113/2/4 114/2/4 117/2/4
f 114/2/4 115/2/4 117/2/4
f 115/3/4 97/3/4 118/3/4
f 117/2/4 115/2/4 118/2/4
f 118/3/4 97/3/4 119/3/4
f 102/3/4 116/3/4 120/3/4
f 116/2/4 117/2/4 121/2/4
f 120/3/4 116/3/4 121/3/4
f 117/2/4 118/2/4 121/2/4
f 118/2/4 119/2/4 121/2/4
f 119/3/4 97/3/4 122/3/4
f 121/2/4 119/2/4 122/2/4
f 122/3/4 97/3/4 123/3/4
f 102/3/4 120/3/4 124/3/4
f 120/2/4 121/2/4 125/2/4
f 124/3/4 120/3/4 125/3/4
f 121/2/4 122/2/4 125/2/4
f 122/2/4 123/2/4 125/2/4
f 102/3/4 124/3/4 126/3/4
f 124/2/4 125/2/4 127/2/4
f 126/3/4 124/3/4 127/3/4
f 102/3/4 126/3/4 128/3/4
f 126/2/4 127/2/4 129/2/4
f 128/3/4 126/3/4 129/3/4
f 102/3/4 128/3/4 130/3/4
f 128/2/4 129/2/4 131/2/4
f 130/3/4 128/3/4 131/3/4
f 125/2/4 123/2/4 132/2/4
f 131/2/4 129/2/4 132/2/4
f 130/2/4 131/2/4 132/2/4
f 127/2/4 125/2/4 132/2/4
f 129/2/4 127/2/4 132/2/4
f 132/2/4 123/2/4 133/2/4
f 130/2/4 132/2/4 134/2/4
f 132/1/4 133/1/4 135/1/4
f 134/2/4 132/2/4 135/2/4
f 130/2/4 134/2/4 136/2/4
f 134/1/4 135/1/4 137/1/4
f 136/2/4 134/2/4 137/2/4
f 130/2/4 136/2/4 138/2/4
f 136/1/4 137/1/4 139/1/4
f 138/2/4 136/2/4 139/2/4
f 130/2/4 138/2/4 140/2/4
f 138/1/4 139/1/4 141/1/4
f 140/2/4 138/2/4 141/2/4
f 130/2/4 140/2/4 142/2/4
f 140/1/4 141/1/4 143/1/4
f 142/2/4 140/2/4 143/2/4
f 102/3/4 130/3/4 144/3/4
f 130/2/4 142/2/4 144/2/4
f 144/2/4 142/2/4 145/2/4
f 145/2/4 142/2/4 146/2/4
f 142/1/4 143/1/4 147/1/4
f 146/2/4 142/2/4 147/2/4
f 145/2/4 146/2/4 148/2/4
f 146/1/4 147/1/4 149/1/4
f 148/2/4 146/2/4 149/2/4
f 102/3/4 144/3/4 150/3/4
f 144/3/4 145/3/4 150/3/4
f 145/2/4 148/2/4 151/2/4
f 150/3/4 145/3/4 151/3/4
f 148/1/4 149/1/4 152/1/4
f 151/2/4 148/2/4 152/2/4
f 143/1/4 141/1/4 153/1/4
f 152/1/4 149/1/4 153/1/4
f 135/1/4 133/1/4 153/1/4
f 137/1/4 135/1/4 153/1/4
f 139/1/4 137/1/4 153/1/4
f 149/1/4 147/1/4 153/1/4
f 147/1/4 143/1/4 153/1/4
f 141/1/4 139/1/4 153/1/4
f 156/3/5 155/3/5 154/3/5
f 157/3/5 155/3/5 156/3/5
f 158/3/5 156/3/5 154/3/5
f 159/2/5 157/2/5 156/2/5
f 159/3/5 156/3/5 158/3/5
f 160/3/5 155/3/5 157/3/5
f 160/2/5 157/2/5 159/2/5
f 161/3/5 155/3/5 160/3/5
f 166/3/5 163/3/5 162/3/5
f 167/2/5 164/2/5 163/2/5
f 167/3/5 163/3/5 166/3/5
f 168/1/5 165/1/5 164/1/5
f 168/2/5 164/2/5 167/2/5
f 169/1/5 165/1/5 168/1/5
f 170/1/5 165/1/5 169/1/5
f 171/3/6 172/3/6 173/3/6
f 173/3/6 172/3/6 174/3/6
f 176/2/6 177/2/6 179/2/6
f 177/1/6 178/1/6 179/1/6
f 179/1/6 178/1/6 180/1/6
f 175/3/6 176/3/6 181/3/6
f 176/2/6 179/2/6 182/2/6
f 181/3/6 176/3/6 182/3/6
f 179/2/6 180/2/6 182/2/6
f 180/1/6 178/1/6 183/1/6
f 182/2/6 180/2/6 183/2/6
f 183/1/6 178/1/6 184/1/6
