# MagicaVoxel @ Ephtracy

# group
o 

# material
mtllib Marigold Split-1.mtl
usemtl palette

# normals
vn -1 0 0
vn 1 0 0
vn 0 0 1
vn 0 0 -1
vn 0 -1 0
vn 0 1 0

# texcoords
vt 0.0253906 0.5
vt 0.0292969 0.5
vt 0.0488281 0.5
vt 0.201172 0.5
vt 0.958984 0.5

# verts
v 0.1 0 0.7
v 0.1 0 0.4
v 0.1 0.1 0.7
v 0.1 0.1 0.6
v 0.1 0.1 0.4
v 0.1 0.2 0.7
v 0.1 0.2 0.6
v 0.1 0.5 0.6
v 0.1 0.5 0.5
v 0.1 0.7 0.7
v 0.1 0.7 0.6
v 0.1 0.7 0.5
v 0.1 0.7 0.4
v 0.1 0.8 0.7
v 0.1 0.8 0.4
v 0.1 0.9 0.7
v 0.1 0.9 0.4
v 0.4 0 0.7
v 0.4 0 0.4
v 0.4 0.1 0.7
v 0.4 0.1 0.6
v 0.4 0.1 0.5
v 0.4 0.1 0.4
v 0.4 0.2 0.7
v 0.4 0.2 0.6
v 0.4 0.2 0.5
v 0.4 0.3 0.7
v 0.4 0.3 0.6
v 0.4 0.4 0.7
v 0.4 0.4 0.6
v 0.4 0.5 0.7
v 0.4 0.5 0.6
v 0.4 0.6 0.7
v 0.4 0.6 0.6
v 0.4 0.7 0.7
v 0.4 0.7 0.4
v 0.4 0.8 0.7
v 0.4 0.8 0.4
v 0.4 0.9 0.7
v 0.4 0.9 0.4
v 0.1 0 0.7
v 0.1 0.1 0.7
v 0.1 0.2 0.7
v 0.1 0.7 0.7
v 0.1 0.8 0.7
v 0.1 0.9 0.7
v 0.2 0.2 0.7
v 0.2 0.3 0.7
v 0.2 0.4 0.7
v 0.2 0.5 0.7
v 0.2 0.6 0.7
v 0.2 0.7 0.7
v 0.3 0.1 0.7
v 0.3 0.2 0.7
v 0.3 0.3 0.7
v 0.3 0.4 0.7
v 0.3 0.5 0.7
v 0.3 0.6 0.7
v 0.3 0.7 0.7
v 0.4 0 0.7
v 0.4 0.1 0.7
v 0.4 0.2 0.7
v 0.4 0.3 0.7
v 0.4 0.4 0.7
v 0.4 0.5 0.7
v 0.4 0.6 0.7
v 0.4 0.7 0.7
v 0.4 0.8 0.7
v 0.4 0.9 0.7
v 0.1 0 0.4
v 0.1 0.1 0.4
v 0.1 0.7 0.4
v 0.1 0.8 0.4
v 0.1 0.9 0.4
v 0.4 0 0.4
v 0.4 0.1 0.4
v 0.4 0.7 0.4
v 0.4 0.8 0.4
v 0.4 0.9 0.4
v 0.1 0 0.7
v 0.4 0 0.7
v 0.1 0 0.4
v 0.4 0 0.4
v 0.1 0.9 0.7
v 0.4 0.9 0.7
v 0.1 0.9 0.4
v 0.4 0.9 0.4

# faces
f 3/1/1 2/1/1 1/1/1
f 4/1/1 2/1/1 3/1/1
f 5/1/1 2/1/1 4/1/1
f 6/4/1 4/4/1 3/4/1
f 7/2/1 5/2/1 4/2/1
f 7/4/1 4/4/1 6/4/1
f 8/2/1 7/2/1 6/2/1
f 8/2/1 5/2/1 7/2/1
f 9/2/1 5/2/1 8/2/1
f 10/2/1 8/2/1 6/2/1
f 11/4/1 9/4/1 8/4/1
f 11/2/1 8/2/1 10/2/1
f 12/2/1 5/2/1 9/2/1
f 12/4/1 9/4/1 11/4/1
f 13/2/1 5/2/1 12/2/1
f 14/4/1 11/4/1 10/4/1
f 14/4/1 12/4/1 11/4/1
f 14/4/1 13/4/1 12/4/1
f 15/4/1 13/4/1 14/4/1
f 16/5/1 15/5/1 14/5/1
f 17/5/1 15/5/1 16/5/1
f 18/1/2 19/1/2 20/1/2
f 20/1/2 19/1/2 21/1/2
f 21/1/2 19/1/2 22/1/2
f 22/1/2 19/1/2 23/1/2
f 20/5/2 21/5/2 24/5/2
f 21/3/2 22/3/2 25/3/2
f 24/5/2 21/5/2 25/5/2
f 22/2/2 23/2/2 26/2/2
f 25/3/2 22/3/2 26/3/2
f 24/2/2 25/2/2 27/2/2
f 25/2/2 26/2/2 27/2/2
f 27/2/2 26/2/2 28/2/2
f 27/4/2 28/4/2 29/4/2
f 28/2/2 26/2/2 30/2/2
f 29/4/2 28/4/2 30/4/2
f 29/2/2 30/2/2 31/2/2
f 30/2/2 26/2/2 32/2/2
f 31/2/2 30/2/2 32/2/2
f 31/4/2 32/4/2 33/4/2
f 32/2/2 26/2/2 34/2/2
f 33/4/2 32/4/2 34/4/2
f 33/2/2 34/2/2 35/2/2
f 26/2/2 23/2/2 36/2/2
f 35/2/2 34/2/2 36/2/2
f 34/2/2 26/2/2 36/2/2
f 35/4/2 36/4/2 37/4/2
f 37/4/2 36/4/2 38/4/2
f 37/5/2 38/5/2 39/5/2
f 39/5/2 38/5/2 40/5/2
f 47/4/3 43/4/3 42/4/3
f 47/2/3 44/2/3 43/2/3
f 48/2/3 44/2/3 47/2/3
f 49/2/3 44/2/3 48/2/3
f 50/2/3 44/2/3 49/2/3
f 51/2/3 44/2/3 50/2/3
f 52/4/3 45/4/3 44/4/3
f 52/2/3 44/2/3 51/2/3
f 53/1/3 42/1/3 41/1/3
f 53/4/3 47/4/3 42/4/3
f 54/3/3 48/3/3 47/3/3
f 54/4/3 47/4/3 53/4/3
f 55/4/3 49/4/3 48/4/3
f 55/3/3 48/3/3 54/3/3
f 56/3/3 50/3/3 49/3/3
f 56/4/3 49/4/3 55/4/3
f 57/4/3 51/4/3 50/4/3
f 57/3/3 50/3/3 56/3/3
f 58/3/3 52/3/3 51/3/3
f 58/4/3 51/4/3 57/4/3
f 59/4/3 45/4/3 52/4/3
f 59/3/3 52/3/3 58/3/3
f 60/1/3 53/1/3 41/1/3
f 61/5/3 54/5/3 53/5/3
f 61/1/3 53/1/3 60/1/3
f 62/2/3 55/2/3 54/2/3
f 62/5/3 54/5/3 61/5/3
f 63/4/3 56/4/3 55/4/3
f 63/2/3 55/2/3 62/2/3
f 64/2/3 57/2/3 56/2/3
f 64/4/3 56/4/3 63/4/3
f 65/4/3 58/4/3 57/4/3
f 65/2/3 57/2/3 64/2/3
f 66/2/3 59/2/3 58/2/3
f 66/4/3 58/4/3 65/4/3
f 67/4/3 45/4/3 59/4/3
f 67/2/3 59/2/3 66/2/3
f 68/5/3 46/5/3 45/5/3
f 68/4/3 45/4/3 67/4/3
f 69/5/3 46/5/3 68/5/3
f 70/1/4 71/1/4 75/1/4
f 71/2/4 72/2/4 76/2/4
f 75/1/4 71/1/4 76/1/4
f 72/4/4 73/4/4 77/4/4
f 76/2/4 72/2/4 77/2/4
f 73/5/4 74/5/4 78/5/4
f 77/4/4 73/4/4 78/4/4
f 78/5/4 74/5/4 79/5/4
f 82/1/5 81/1/5 80/1/5
f 83/1/5 81/1/5 82/1/5
f 84/5/6 85/5/6 86/5/6
f 86/5/6 85/5/6 87/5/6
