# MagicaVoxel @ Ephtracy

# group
o 

# material
mtllib Marigold Split-5.mtl
usemtl palette

# normals
vn -1 0 0
vn 1 0 0
vn 0 0 1
vn 0 0 -1
vn 0 -1 0
vn 0 1 0

# texcoords
vt 0.0136719 0.5
vt 0.0253906 0.5
vt 0.0292969 0.5
vt 0.0488281 0.5
vt 0.201172 0.5
vt 0.587891 0.5
vt 0.958984 0.5

# verts
v -0.4 0.5 0.6
v -0.4 0.5 0.5
v -0.4 0.5 0.3
v -0.4 0.6 0.7
v -0.4 0.6 0.6
v -0.4 0.6 0.5
v -0.4 0.6 0.3
v -0.4 0.7 0.7
v -0.4 0.7 0.6
v -0.4 0.7 0.5
v -0.4 0.7 0.4
v -0.4 0.7 0.3
v -0.4 0.8 0.8
v -0.4 0.8 0.7
v -0.4 0.8 0.6
v -0.4 0.8 0.5
v -0.4 0.8 0.4
v -0.4 0.9 0.8
v -0.4 0.9 0.7
v -0.4 1 0.8
v -0.4 1 0.7
v -0.4 1 0.3
v -0.4 1.1 0.8
v -0.4 1.1 0.3
v -0.3 1.1 0.7
v -0.3 1.1 0.4
v -0.3 1.2 0.7
v -0.3 1.2 0.4
v -0.3 1.3 0.7
v -0.3 1.3 0.4
v -0.3 1.6 0.7
v -0.3 1.6 0.4
v -0.3 1.7 0.7
v -0.3 1.7 0.4
v -0.2 0.4 0.4
v -0.2 0.4 0.3
v -0.2 0.5 0.4
v -0.2 0.5 0.3
v -0.2 1.2 0.7
v -0.2 1.2 0.4
v -0.2 1.3 0.7
v -0.2 1.3 0.4
v -0.2 1.4 0.8
v -0.2 1.4 0.7
v -0.2 1.5 0.8
v -0.2 1.5 0.7
v -0.2 1.6 0.8
v -0.2 1.6 0.7
v -0.1 1.7 0.6
v -0.1 1.7 0.5
v -0.1 1.8 0.6
v -0.1 1.8 0.5
v 0.2 0.9 0.8
v 0.2 0.9 0.7
v 0.2 1 0.8
v 0.2 1 0.7
v 0.3 0.8 0.8
v 0.3 0.8 0.7
v 0.3 0.9 0.8
v 0.3 0.9 0.7
v 0.4 0.5 0.6
v 0.4 0.5 0.5
v 0.4 0.5 0.4
v 0.4 0.6 0.7
v 0.4 0.6 0.6
v 0.4 0.6 0.5
v 0.4 0.6 0.4
v 0.4 0.7 0.7
v 0.4 0.7 0.6
v 0.4 0.7 0.5
v 0.4 0.7 0.4
v 0.4 0.8 0.7
v 0.4 0.8 0.6
v 0.4 0.8 0.5
v 0.4 0.8 0.4
v 0.4 0.9 0.7
v 0.4 0.9 0.6
v 0.4 0.9 0.5
v 0.4 0.9 0.4
v -0.3 0.5 0.6
v -0.3 0.5 0.5
v -0.3 0.5 0.4
v -0.3 0.6 0.7
v -0.3 0.6 0.6
v -0.3 0.6 0.5
v -0.3 0.6 0.4
v -0.3 0.7 0.7
v -0.3 0.7 0.6
v -0.3 0.7 0.5
v -0.3 0.7 0.4
v -0.3 0.8 0.7
v -0.3 0.8 0.6
v -0.3 0.8 0.5
v -0.3 0.8 0.4
v -0.3 0.9 0.7
v -0.3 0.9 0.4
v -0.2 0.8 0.8
v -0.2 0.8 0.7
v -0.2 0.9 0.8
v -0.2 0.9 0.7
v -0.1 0.9 0.8
v -0.1 0.9 0.7
v -0.1 1 0.8
v -0.1 1 0.7
v 0.2 1.7 0.6
v 0.2 1.7 0.5
v 0.2 1.8 0.6
v 0.2 1.8 0.5
v 0.3 1.2 0.7
v 0.3 1.2 0.4
v 0.3 1.3 0.7
v 0.3 1.3 0.4
v 0.3 1.4 0.8
v 0.3 1.4 0.7
v 0.3 1.5 0.8
v 0.3 1.5 0.7
v 0.3 1.6 0.8
v 0.3 1.6 0.7
v 0.4 0.4 0.4
v 0.4 0.4 0.3
v 0.4 0.5 0.4
v 0.4 0.5 0.3
v 0.4 1.1 0.7
v 0.4 1.1 0.4
v 0.4 1.2 0.7
v 0.4 1.2 0.4
v 0.4 1.3 0.7
v 0.4 1.3 0.4
v 0.4 1.6 0.7
v 0.4 1.6 0.4
v 0.4 1.7 0.7
v 0.4 1.7 0.4
v 0.5 0.5 0.6
v 0.5 0.5 0.5
v 0.5 0.5 0.3
v 0.5 0.6 0.7
v 0.5 0.6 0.6
v 0.5 0.6 0.5
v 0.5 0.6 0.4
v 0.5 0.6 0.3
v 0.5 0.7 0.7
v 0.5 0.7 0.6
v 0.5 0.7 0.5
v 0.5 0.7 0.4
v 0.5 0.8 0.8
v 0.5 0.8 0.7
v 0.5 0.8 0.6
v 0.5 0.8 0.5
v 0.5 0.8 0.3
v 0.5 0.9 0.8
v 0.5 0.9 0.7
v 0.5 0.9 0.6
v 0.5 0.9 0.5
v 0.5 0.9 0.4
v 0.5 0.9 0.3
v 0.5 1 0.8
v 0.5 1 0.7
v 0.5 1 0.6
v 0.5 1 0.4
v 0.5 1 0.3
v 0.5 1.1 0.8
v 0.5 1.1 0.3
v -0.4 0.8 0.8
v -0.4 0.9 0.8
v -0.4 1 0.8
v -0.4 1.1 0.8
v -0.3 0.8 0.8
v -0.3 0.9 0.8
v -0.3 1 0.8
v -0.2 0.8 0.8
v -0.2 0.9 0.8
v -0.2 1 0.8
v -0.2 1.4 0.8
v -0.2 1.5 0.8
v -0.2 1.6 0.8
v -0.1 0.9 0.8
v -0.1 1 0.8
v 0.2 0.9 0.8
v 0.2 1 0.8
v 0.3 0.8 0.8
v 0.3 0.9 0.8
v 0.3 1 0.8
v 0.3 1.4 0.8
v 0.3 1.5 0.8
v 0.3 1.6 0.8
v 0.4 0.8 0.8
v 0.4 0.9 0.8
v 0.4 1 0.8
v 0.5 0.8 0.8
v 0.5 0.9 0.8
v 0.5 1 0.8
v 0.5 1.1 0.8
v -0.4 0.6 0.7
v -0.4 0.7 0.7
v -0.4 0.8 0.7
v -0.3 0.6 0.7
v -0.3 0.7 0.7
v -0.3 0.8 0.7
v -0.3 1.1 0.7
v -0.3 1.2 0.7
v -0.3 1.3 0.7
v -0.3 1.6 0.7
v -0.3 1.7 0.7
v -0.2 1.2 0.7
v -0.2 1.3 0.7
v -0.2 1.4 0.7
v -0.2 1.5 0.7
v -0.2 1.6 0.7
v -0.1 0.9 0.7
v -0.1 1 0.7
v 0 1.3 0.7
v 0 1.4 0.7
v 0.1 1.3 0.7
v 0.1 1.4 0.7
v 0.2 0.9 0.7
v 0.2 1 0.7
v 0.3 1.2 0.7
v 0.3 1.3 0.7
v 0.3 1.4 0.7
v 0.3 1.5 0.7
v 0.3 1.6 0.7
v 0.4 0.6 0.7
v 0.4 0.7 0.7
v 0.4 0.8 0.7
v 0.4 1.1 0.7
v 0.4 1.2 0.7
v 0.4 1.3 0.7
v 0.4 1.6 0.7
v 0.4 1.7 0.7
v 0.5 0.6 0.7
v 0.5 0.7 0.7
v 0.5 0.8 0.7
v -0.4 0.5 0.6
v -0.4 0.6 0.6
v -0.3 0.5 0.6
v -0.3 0.6 0.6
v -0.1 1.7 0.6
v -0.1 1.8 0.6
v 0.2 1.7 0.6
v 0.2 1.8 0.6
v 0.4 0.5 0.6
v 0.4 0.6 0.6
v 0.5 0.5 0.6
v 0.5 0.6 0.6
v -0.3 0.5 0.4
v -0.3 0.6 0.4
v -0.3 0.7 0.4
v -0.3 0.8 0.4
v -0.3 0.9 0.4
v -0.2 0.4 0.4
v -0.2 0.5 0.4
v -0.2 0.6 0.4
v -0.2 0.7 0.4
v -0.2 0.9 0.4
v -0.1 0.6 0.4
v -0.1 0.7 0.4
v -0.1 0.8 0.4
v -0.1 0.9 0.4
v 0 0.8 0.4
v 0 0.9 0.4
v 0.1 0.6 0.4
v 0.1 0.7 0.4
v 0.2 0.6 0.4
v 0.2 0.7 0.4
v 0.2 0.8 0.4
v 0.2 0.9 0.4
v 0.3 0.6 0.4
v 0.3 0.8 0.4
v 0.4 0.4 0.4
v 0.4 0.5 0.4
v 0.4 0.6 0.4
v 0.4 0.7 0.4
v 0.4 0.8 0.4
v 0.4 0.9 0.4
v -0.3 0.8 0.7
v -0.3 0.9 0.7
v -0.2 0.8 0.7
v -0.2 0.9 0.7
v 0.3 0.8 0.7
v 0.3 0.9 0.7
v 0.4 0.8 0.7
v 0.4 0.9 0.7
v -0.1 1.7 0.5
v -0.1 1.8 0.5
v 0.2 1.7 0.5
v 0.2 1.8 0.5
v -0.3 1.1 0.4
v -0.3 1.2 0.4
v -0.3 1.3 0.4
v -0.3 1.6 0.4
v -0.3 1.7 0.4
v -0.2 1.2 0.4
v -0.2 1.3 0.4
v 0.3 1.2 0.4
v 0.3 1.3 0.4
v 0.4 1.1 0.4
v 0.4 1.2 0.4
v 0.4 1.3 0.4
v 0.4 1.6 0.4
v 0.4 1.7 0.4
v -0.4 0.5 0.3
v -0.4 0.6 0.3
v -0.4 0.7 0.3
v -0.4 1 0.3
v -0.4 1.1 0.3
v -0.3 0.6 0.3
v -0.3 0.7 0.3
v -0.2 0.4 0.3
v -0.2 0.5 0.3
v -0.2 0.6 0.3
v -0.2 0.7 0.3
v -0.2 0.9 0.3
v -0.1 0.6 0.3
v -0.1 0.7 0.3
v -0.1 0.8 0.3
v -0.1 0.9 0.3
v -0.1 1 0.3
v 0 0.8 0.3
v 0 1 0.3
v 0.1 0.6 0.3
v 0.1 0.7 0.3
v 0.2 0.6 0.3
v 0.2 0.7 0.3
v 0.2 0.8 0.3
v 0.3 0.6 0.3
v 0.3 0.8 0.3
v 0.4 0.4 0.3
v 0.4 0.5 0.3
v 0.4 0.6 0.3
v 0.4 0.8 0.3
v 0.4 0.9 0.3
v 0.5 0.5 0.3
v 0.5 0.6 0.3
v 0.5 0.8 0.3
v 0.5 0.9 0.3
v 0.5 1 0.3
v 0.5 1.1 0.3
v -0.2 0.4 0.4
v 0.4 0.4 0.4
v -0.2 0.4 0.3
v 0.4 0.4 0.3
v -0.4 0.5 0.6
v -0.3 0.5 0.6
v 0.4 0.5 0.6
v 0.5 0.5 0.6
v -0.4 0.5 0.5
v -0.3 0.5 0.5
v 0.4 0.5 0.5
v 0.5 0.5 0.5
v -0.3 0.5 0.4
v -0.2 0.5 0.4
v 0.4 0.5 0.4
v -0.4 0.5 0.3
v -0.2 0.5 0.3
v 0.4 0.5 0.3
v 0.5 0.5 0.3
v -0.4 0.6 0.7
v -0.3 0.6 0.7
v 0.4 0.6 0.7
v 0.5 0.6 0.7
v -0.4 0.6 0.6
v -0.3 0.6 0.6
v 0.4 0.6 0.6
v 0.5 0.6 0.6
v -0.4 0.8 0.8
v -0.3 0.8 0.8
v -0.2 0.8 0.8
v 0.3 0.8 0.8
v 0.4 0.8 0.8
v 0.5 0.8 0.8
v -0.4 0.8 0.7
v -0.3 0.8 0.7
v -0.2 0.8 0.7
v 0.3 0.8 0.7
v 0.4 0.8 0.7
v 0.5 0.8 0.7
v -0.2 0.9 0.8
v -0.1 0.9 0.8
v 0.2 0.9 0.8
v 0.3 0.9 0.8
v -0.3 0.9 0.7
v -0.2 0.9 0.7
v -0.1 0.9 0.7
v 0.2 0.9 0.7
v 0.3 0.9 0.7
v 0.4 0.9 0.7
v 0.4 0.9 0.6
v -0.1 0.9 0.5
v 0.2 0.9 0.5
v 0.4 0.9 0.5
v -0.3 0.9 0.4
v -0.2 0.9 0.4
v -0.1 0.9 0.4
v 0 0.9 0.4
v 0.2 0.9 0.4
v 0.4 0.9 0.4
v -0.1 1 0.8
v 0.2 1 0.8
v -0.1 1 0.7
v 0.2 1 0.7
v -0.3 1.3 0.7
v -0.2 1.3 0.7
v 0.3 1.3 0.7
v 0.4 1.3 0.7
v -0.3 1.3 0.4
v -0.2 1.3 0.4
v 0.3 1.3 0.4
v 0.4 1.3 0.4
v -0.2 1.4 0.8
v 0.3 1.4 0.8
v -0.2 1.4 0.7
v 0 1.4 0.7
v 0.1 1.4 0.7
v 0.3 1.4 0.7
v -0.4 1.1 0.8
v 0.5 1.1 0.8
v -0.3 1.1 0.7
v 0.4 1.1 0.7
v -0.3 1.1 0.4
v 0.4 1.1 0.4
v -0.4 1.1 0.3
v 0.5 1.1 0.3
v -0.3 1.2 0.7
v -0.2 1.2 0.7
v 0.3 1.2 0.7
v 0.4 1.2 0.7
v -0.3 1.2 0.4
v -0.2 1.2 0.4
v 0.3 1.2 0.4
v 0.4 1.2 0.4
v -0.2 1.6 0.8
v 0.3 1.6 0.8
v -0.2 1.6 0.7
v 0.3 1.6 0.7
v -0.3 1.7 0.7
v 0.4 1.7 0.7
v -0.1 1.7 0.6
v 0.2 1.7 0.6
v -0.1 1.7 0.5
v 0.2 1.7 0.5
v -0.3 1.7 0.4
v 0.4 1.7 0.4
v -0.1 1.8 0.6
v 0.2 1.8 0.6
v -0.1 1.8 0.5
v 0.2 1.8 0.5

# faces
f 5/6/1 2/6/1 1/6/1
f 6/2/1 3/2/1 2/2/1
f 6/6/1 2/6/1 5/6/1
f 7/2/1 3/2/1 6/2/1
f 8/6/1 5/6/1 4/6/1
f 9/2/1 6/2/1 5/2/1
f 9/6/1 5/6/1 8/6/1
f 10/4/1 7/4/1 6/4/1
f 10/2/1 6/2/1 9/2/1
f 11/4/1 7/4/1 10/4/1
f 12/4/1 7/4/1 11/4/1
f 14/3/1 9/3/1 8/3/1
f 15/4/1 10/4/1 9/4/1
f 15/3/1 9/3/1 14/3/1
f 16/3/1 11/3/1 10/3/1
f 16/4/1 10/4/1 15/4/1
f 17/2/1 12/2/1 11/2/1
f 17/3/1 11/3/1 16/3/1
f 18/2/1 14/2/1 13/2/1
f 18/2/1 15/2/1 14/2/1
f 18/2/1 17/2/1 16/2/1
f 18/2/1 16/2/1 15/2/1
f 19/2/1 17/2/1 18/2/1
f 20/3/1 19/3/1 18/3/1
f 21/2/1 17/2/1 19/2/1
f 21/3/1 19/3/1 20/3/1
f 22/2/1 12/2/1 17/2/1
f 22/2/1 17/2/1 21/2/1
f 23/7/1 21/7/1 20/7/1
f 23/7/1 22/7/1 21/7/1
f 24/7/1 22/7/1 23/7/1
f 27/1/1 26/1/1 25/1/1
f 28/1/1 26/1/1 27/1/1
f 31/7/1 30/7/1 29/7/1
f 32/7/1 30/7/1 31/7/1
f 33/5/1 32/5/1 31/5/1
f 34/5/1 32/5/1 33/5/1
f 37/6/1 36/6/1 35/6/1
f 38/6/1 36/6/1 37/6/1
f 41/7/1 40/7/1 39/7/1
f 42/7/1 40/7/1 41/7/1
f 45/7/1 44/7/1 43/7/1
f 46/7/1 44/7/1 45/7/1
f 47/5/1 46/5/1 45/5/1
f 48/5/1 46/5/1 47/5/1
f 51/5/1 50/5/1 49/5/1
f 52/5/1 50/5/1 51/5/1
f 55/6/1 54/6/1 53/6/1
f 56/6/1 54/6/1 55/6/1
f 59/6/1 58/6/1 57/6/1
f 60/6/1 58/6/1 59/6/1
f 65/6/1 62/6/1 61/6/1
f 66/2/1 63/2/1 62/2/1
f 66/6/1 62/6/1 65/6/1
f 67/2/1 63/2/1 66/2/1
f 68/6/1 65/6/1 64/6/1
f 69/2/1 66/2/1 65/2/1
f 69/6/1 65/6/1 68/6/1
f 70/3/1 67/3/1 66/3/1
f 70/2/1 66/2/1 69/2/1
f 71/3/1 67/3/1 70/3/1
f 72/4/1 69/4/1 68/4/1
f 72/4/1 70/4/1 69/4/1
f 72/4/1 71/4/1 70/4/1
f 73/4/1 71/4/1 72/4/1
f 74/4/1 71/4/1 73/4/1
f 75/4/1 71/4/1 74/4/1
f 76/4/1 73/4/1 72/4/1
f 77/2/1 74/2/1 73/2/1
f 77/4/1 73/4/1 76/4/1
f 78/3/1 75/3/1 74/3/1
f 78/2/1 74/2/1 77/2/1
f 79/3/1 75/3/1 78/3/1
f 80/6/2 81/6/2 84/6/2
f 81/2/2 82/2/2 85/2/2
f 84/6/2 81/6/2 85/6/2
f 85/2/2 82/2/2 86/2/2
f 83/6/2 84/6/2 87/6/2
f 84/2/2 85/2/2 88/2/2
f 87/6/2 84/6/2 88/6/2
f 85/4/2 86/4/2 89/4/2
f 88/2/2 85/2/2 89/2/2
f 89/4/2 86/4/2 90/4/2
f 87/3/2 88/3/2 91/3/2
f 88/4/2 89/4/2 92/4/2
f 91/3/2 88/3/2 92/3/2
f 89/3/2 90/3/2 93/3/2
f 92/4/2 89/4/2 93/4/2
f 93/3/2 90/3/2 94/3/2
f 91/2/2 92/2/2 95/2/2
f 92/2/2 93/2/2 95/2/2
f 93/2/2 94/2/2 95/2/2
f 95/2/2 94/2/2 96/2/2
f 97/6/2 98/6/2 99/6/2
f 99/6/2 98/6/2 100/6/2
f 101/6/2 102/6/2 103/6/2
f 103/6/2 102/6/2 104/6/2
f 105/5/2 106/5/2 107/5/2
f 107/5/2 106/5/2 108/5/2
f 109/7/2 110/7/2 111/7/2
f 111/7/2 110/7/2 112/7/2
f 113/7/2 114/7/2 115/7/2
f 115/7/2 114/7/2 116/7/2
f 115/5/2 116/5/2 117/5/2
f 117/5/2 116/5/2 118/5/2
f 119/6/2 120/6/2 121/6/2
f 121/6/2 120/6/2 122/6/2
f 123/1/2 124/1/2 125/1/2
f 125/1/2 124/1/2 126/1/2
f 127/7/2 128/7/2 129/7/2
f 129/7/2 128/7/2 130/7/2
f 129/5/2 130/5/2 131/5/2
f 131/5/2 130/5/2 132/5/2
f 133/6/2 134/6/2 137/6/2
f 134/2/2 135/2/2 138/2/2
f 137/6/2 134/6/2 138/6/2
f 138/2/2 135/2/2 139/2/2
f 139/2/2 135/2/2 140/2/2
f 136/6/2 137/6/2 141/6/2
f 137/2/2 138/2/2 142/2/2
f 141/6/2 137/6/2 142/6/2
f 138/3/2 139/3/2 143/3/2
f 142/2/2 138/2/2 143/2/2
f 139/4/2 140/4/2 144/4/2
f 143/3/2 139/3/2 144/3/2
f 141/4/2 142/4/2 146/4/2
f 142/4/2 143/4/2 146/4/2
f 143/4/2 144/4/2 146/4/2
f 146/4/2 144/4/2 147/4/2
f 147/4/2 144/4/2 148/4/2
f 144/4/2 140/4/2 149/4/2
f 148/4/2 144/4/2 149/4/2
f 145/4/2 146/4/2 150/4/2
f 146/4/2 147/4/2 150/4/2
f 150/4/2 147/4/2 151/4/2
f 147/2/2 148/2/2 152/2/2
f 151/4/2 147/4/2 152/4/2
f 148/3/2 149/3/2 153/3/2
f 152/2/2 148/2/2 153/2/2
f 153/3/2 149/3/2 154/3/2
f 154/3/2 149/3/2 155/3/2
f 150/3/2 151/3/2 156/3/2
f 151/2/2 152/2/2 157/2/2
f 156/3/2 151/3/2 157/3/2
f 152/3/2 153/3/2 158/3/2
f 157/2/2 152/2/2 158/2/2
f 153/3/2 154/3/2 158/3/2
f 154/2/2 155/2/2 159/2/2
f 158/3/2 154/3/2 159/3/2
f 159/2/2 155/2/2 160/2/2
f 156/7/2 157/7/2 161/7/2
f 157/7/2 158/7/2 161/7/2
f 159/7/2 160/7/2 161/7/2
f 158/7/2 159/7/2 161/7/2
f 161/7/2 160/7/2 162/7/2
f 167/2/3 164/2/3 163/2/3
f 168/3/3 165/3/3 164/3/3
f 168/2/3 164/2/3 167/2/3
f 169/7/3 166/7/3 165/7/3
f 169/3/3 165/3/3 168/3/3
f 170/6/3 168/6/3 167/6/3
f 171/4/3 169/4/3 168/4/3
f 171/6/3 168/6/3 170/6/3
f 172/7/3 166/7/3 169/7/3
f 172/4/3 169/4/3 171/4/3
f 176/6/3 172/6/3 171/6/3
f 177/7/3 166/7/3 172/7/3
f 177/6/3 172/6/3 176/6/3
f 179/7/3 166/7/3 177/7/3
f 181/6/3 179/6/3 178/6/3
f 182/7/3 166/7/3 179/7/3
f 182/6/3 179/6/3 181/6/3
f 183/7/3 174/7/3 173/7/3
f 184/5/3 175/5/3 174/5/3
f 184/7/3 174/7/3 183/7/3
f 185/5/3 175/5/3 184/5/3
f 186/6/3 181/6/3 180/6/3
f 187/2/3 182/2/3 181/2/3
f 187/6/3 181/6/3 186/6/3
f 188/7/3 166/7/3 182/7/3
f 188/2/3 182/2/3 187/2/3
f 189/4/3 187/4/3 186/4/3
f 190/3/3 188/3/3 187/3/3
f 190/4/3 187/4/3 189/4/3
f 191/7/3 166/7/3 188/7/3
f 191/3/3 188/3/3 190/3/3
f 192/7/3 166/7/3 191/7/3
f 196/6/3 194/6/3 193/6/3
f 197/3/3 195/3/3 194/3/3
f 197/6/3 194/6/3 196/6/3
f 198/3/3 195/3/3 197/3/3
f 204/1/3 200/1/3 199/1/3
f 205/7/3 202/7/3 201/7/3
f 206/7/3 202/7/3 205/7/3
f 207/7/3 202/7/3 206/7/3
f 208/5/3 203/5/3 202/5/3
f 208/7/3 202/7/3 207/7/3
f 211/7/3 205/7/3 204/7/3
f 211/7/3 206/7/3 205/7/3
f 212/7/3 206/7/3 211/7/3
f 213/7/3 211/7/3 204/7/3
f 213/5/3 212/5/3 211/5/3
f 214/5/3 212/5/3 213/5/3
f 215/7/3 210/7/3 209/7/3
f 216/7/3 210/7/3 215/7/3
f 217/1/3 204/1/3 199/1/3
f 217/7/3 213/7/3 204/7/3
f 217/7/3 214/7/3 213/7/3
f 218/7/3 214/7/3 217/7/3
f 219/7/3 214/7/3 218/7/3
f 221/5/3 203/5/3 208/5/3
f 225/1/3 217/1/3 199/1/3
f 226/1/3 217/1/3 225/1/3
f 227/7/3 220/7/3 219/7/3
f 227/7/3 219/7/3 218/7/3
f 227/7/3 221/7/3 220/7/3
f 228/5/3 203/5/3 221/5/3
f 228/7/3 221/7/3 227/7/3
f 229/5/3 203/5/3 228/5/3
f 230/6/3 223/6/3 222/6/3
f 231/4/3 224/4/3 223/4/3
f 231/6/3 223/6/3 230/6/3
f 232/4/3 224/4/3 231/4/3
f 235/6/3 234/6/3 233/6/3
f 236/6/3 234/6/3 235/6/3
f 239/5/3 238/5/3 237/5/3
f 240/5/3 238/5/3 239/5/3
f 243/6/3 242/6/3 241/6/3
f 244/6/3 242/6/3 243/6/3
f 251/2/3 246/2/3 245/2/3
f 252/3/3 247/3/3 246/3/3
f 252/2/3 246/2/3 251/2/3
f 253/2/3 249/2/3 248/2/3
f 253/3/3 247/3/3 252/3/3
f 253/2/3 248/2/3 247/2/3
f 254/2/3 249/2/3 253/2/3
f 255/2/3 252/2/3 251/2/3
f 255/2/3 253/2/3 252/2/3
f 256/3/3 254/3/3 253/3/3
f 256/2/3 253/2/3 255/2/3
f 257/3/3 254/3/3 256/3/3
f 258/3/3 254/3/3 257/3/3
f 259/2/3 257/2/3 256/2/3
f 259/3/3 258/3/3 257/3/3
f 260/3/3 258/3/3 259/3/3
f 261/2/3 255/2/3 251/2/3
f 261/4/3 256/4/3 255/4/3
f 262/2/3 260/2/3 259/2/3
f 262/4/3 256/4/3 261/4/3
f 262/2/3 259/2/3 256/2/3
f 263/2/3 261/2/3 251/2/3
f 263/3/3 262/3/3 261/3/3
f 264/2/3 260/2/3 262/2/3
f 264/3/3 262/3/3 263/3/3
f 265/2/3 260/2/3 264/2/3
f 266/2/3 260/2/3 265/2/3
f 267/2/3 263/2/3 251/2/3
f 267/4/3 264/4/3 263/4/3
f 267/4/3 265/4/3 264/4/3
f 268/2/3 266/2/3 265/2/3
f 268/4/3 265/4/3 267/4/3
f 269/6/3 251/6/3 250/6/3
f 270/2/3 267/2/3 251/2/3
f 270/6/3 251/6/3 269/6/3
f 271/3/3 268/3/3 267/3/3
f 271/2/3 267/2/3 270/2/3
f 272/3/3 268/3/3 271/3/3
f 273/2/3 266/2/3 268/2/3
f 273/3/3 268/3/3 272/3/3
f 274/2/3 266/2/3 273/2/3
f 275/6/4 276/6/4 277/6/4
f 277/6/4 276/6/4 278/6/4
f 279/6/4 280/6/4 281/6/4
f 281/6/4 280/6/4 282/6/4
f 283/5/4 284/5/4 285/5/4
f 285/5/4 284/5/4 286/5/4
f 287/1/4 288/1/4 292/1/4
f 289/7/4 290/7/4 293/7/4
f 287/1/4 292/1/4 294/1/4
f 292/7/4 293/7/4 294/7/4
f 293/7/4 290/7/4 295/7/4
f 294/7/4 293/7/4 295/7/4
f 287/1/4 294/1/4 296/1/4
f 296/1/4 294/1/4 297/1/4
f 295/7/4 290/7/4 298/7/4
f 290/5/4 291/5/4 299/5/4
f 298/7/4 290/7/4 299/7/4
f 299/5/4 291/5/4 300/5/4
f 301/2/4 302/2/4 306/2/4
f 302/4/4 303/4/4 306/4/4
f 303/2/4 304/2/4 307/2/4
f 306/4/4 303/4/4 307/4/4
f 301/2/4 306/2/4 309/2/4
f 306/3/4 307/3/4 310/3/4
f 309/2/4 306/2/4 310/2/4
f 307/2/4 304/2/4 311/2/4
f 310/3/4 307/3/4 311/3/4
f 311/2/4 304/2/4 312/2/4
f 309/2/4 310/2/4 313/2/4
f 310/2/4 311/2/4 313/2/4
f 311/3/4 312/3/4 314/3/4
f 313/2/4 311/2/4 314/2/4
f 314/3/4 312/3/4 315/3/4
f 312/2/4 304/2/4 316/2/4
f 315/3/4 312/3/4 316/3/4
f 304/7/4 305/7/4 317/7/4
f 316/2/4 304/2/4 317/2/4
f 315/3/4 316/3/4 318/3/4
f 314/2/4 315/2/4 318/2/4
f 316/3/4 317/3/4 318/3/4
f 317/7/4 305/7/4 319/7/4
f 318/3/4 317/3/4 319/3/4
f 313/4/4 314/4/4 320/4/4
f 309/2/4 313/2/4 320/2/4
f 314/2/4 318/2/4 321/2/4
f 320/4/4 314/4/4 321/4/4
f 318/2/4 319/2/4 321/2/4
f 309/2/4 320/2/4 322/2/4
f 320/3/4 321/3/4 322/3/4
f 321/2/4 319/2/4 323/2/4
f 322/3/4 321/3/4 323/3/4
f 323/2/4 319/2/4 324/2/4
f 309/2/4 322/2/4 325/2/4
f 322/4/4 323/4/4 325/4/4
f 323/4/4 324/4/4 325/4/4
f 324/2/4 319/2/4 326/2/4
f 325/4/4 324/4/4 326/4/4
f 308/6/4 309/6/4 327/6/4
f 309/2/4 325/2/4 328/2/4
f 327/6/4 309/6/4 328/6/4
f 325/3/4 326/3/4 329/3/4
f 328/2/4 325/2/4 329/2/4
f 326/2/4 319/2/4 330/2/4
f 329/3/4 326/3/4 330/3/4
f 330/2/4 319/2/4 331/2/4
f 328/2/4 329/2/4 332/2/4
f 329/4/4 330/4/4 333/4/4
f 332/2/4 329/2/4 333/2/4
f 330/3/4 331/3/4 334/3/4
f 333/4/4 330/4/4 334/4/4
f 331/2/4 319/2/4 335/2/4
f 334/3/4 331/3/4 335/3/4
f 319/7/4 305/7/4 336/7/4
f 335/2/4 319/2/4 336/2/4
f 336/7/4 305/7/4 337/7/4
f 340/6/5 339/6/5 338/6/5
f 341/6/5 339/6/5 340/6/5
f 346/6/5 343/6/5 342/6/5
f 347/6/5 343/6/5 346/6/5
f 348/6/5 345/6/5 344/6/5
f 349/6/5 345/6/5 348/6/5
f 350/2/5 347/2/5 346/2/5
f 352/2/5 349/2/5 348/2/5
f 353/2/5 351/2/5 350/2/5
f 353/2/5 350/2/5 346/2/5
f 354/2/5 351/2/5 353/2/5
f 355/2/5 349/2/5 352/2/5
f 356/2/5 349/2/5 355/2/5
f 361/6/5 358/6/5 357/6/5
f 362/6/5 358/6/5 361/6/5
f 363/6/5 360/6/5 359/6/5
f 364/6/5 360/6/5 363/6/5
f 371/2/5 366/2/5 365/2/5
f 372/6/5 367/6/5 366/6/5
f 372/2/5 366/2/5 371/2/5
f 373/6/5 367/6/5 372/6/5
f 374/6/5 369/6/5 368/6/5
f 375/4/5 370/4/5 369/4/5
f 375/6/5 369/6/5 374/6/5
f 376/4/5 370/4/5 375/4/5
f 382/6/5 378/6/5 377/6/5
f 383/6/5 378/6/5 382/6/5
f 384/6/5 380/6/5 379/6/5
f 385/6/5 380/6/5 384/6/5
f 387/7/5 383/7/5 382/7/5
f 387/7/5 386/7/5 385/7/5
f 387/7/5 385/7/5 384/7/5
f 387/7/5 384/7/5 383/7/5
f 387/7/5 382/7/5 381/7/5
f 388/7/5 387/7/5 381/7/5
f 389/7/5 387/7/5 388/7/5
f 390/7/5 387/7/5 389/7/5
f 391/7/5 388/7/5 381/7/5
f 392/7/5 388/7/5 391/7/5
f 393/5/5 389/5/5 388/5/5
f 393/7/5 388/7/5 392/7/5
f 394/5/5 389/5/5 393/5/5
f 395/7/5 390/7/5 389/7/5
f 395/5/5 389/5/5 394/5/5
f 396/7/5 390/7/5 395/7/5
f 399/7/5 398/7/5 397/7/5
f 400/7/5 398/7/5 399/7/5
f 405/7/5 402/7/5 401/7/5
f 406/7/5 402/7/5 405/7/5
f 407/7/5 404/7/5 403/7/5
f 408/7/5 404/7/5 407/7/5
f 411/7/5 410/7/5 409/7/5
f 412/7/5 410/7/5 411/7/5
f 413/7/5 410/7/5 412/7/5
f 414/7/5 410/7/5 413/7/5
f 415/7/6 416/7/6 417/7/6
f 417/7/6 416/7/6 418/7/6
f 415/7/6 417/7/6 419/7/6
f 418/7/6 416/7/6 420/7/6
f 415/7/6 419/7/6 421/7/6
f 419/7/6 420/7/6 421/7/6
f 420/7/6 416/7/6 422/7/6
f 421/7/6 420/7/6 422/7/6
f 423/1/6 424/1/6 427/1/6
f 427/1/6 424/1/6 428/1/6
f 425/1/6 426/1/6 429/1/6
f 429/1/6 426/1/6 430/1/6
f 431/5/6 432/5/6 433/5/6
f 433/5/6 432/5/6 434/5/6
f 435/5/6 436/5/6 437/5/6
f 437/5/6 436/5/6 438/5/6
f 435/5/6 437/5/6 439/5/6
f 438/5/6 436/5/6 440/5/6
f 435/5/6 439/5/6 441/5/6
f 439/5/6 440/5/6 441/5/6
f 440/5/6 436/5/6 442/5/6
f 441/5/6 440/5/6 442/5/6
f 443/5/6 444/5/6 445/5/6
f 445/5/6 444/5/6 446/5/6
