# MagicaVoxel @ Ephtracy

# group
o 

# material
mtllib Marigold Split-2.mtl
usemtl palette

# normals
vn -1 0 0
vn 1 0 0
vn 0 0 1
vn 0 0 -1
vn 0 -1 0
vn 0 1 0

# texcoords
vt 0.0253906 0.5
vt 0.0292969 0.5
vt 0.0488281 0.5
vt 0.201172 0.5
vt 0.958984 0.5

# verts
v -0.3 0 0.7
v -0.3 0 0.4
v -0.3 0.1 0.7
v -0.3 0.1 0.6
v -0.3 0.1 0.4
v -0.3 0.2 0.7
v -0.3 0.2 0.6
v -0.3 0.3 0.7
v -0.3 0.3 0.6
v -0.3 0.4 0.7
v -0.3 0.4 0.6
v -0.3 0.5 0.7
v -0.3 0.5 0.6
v -0.3 0.6 0.7
v -0.3 0.6 0.6
v -0.3 0.7 0.7
v -0.3 0.7 0.4
v -0.3 0.8 0.7
v -0.3 0.8 0.4
v -0.3 0.9 0.7
v -0.3 0.9 0.4
v 0 0 0.7
v 0 0 0.4
v 0 0.1 0.7
v 0 0.1 0.6
v 0 0.1 0.5
v 0 0.1 0.4
v 0 0.2 0.7
v 0 0.2 0.6
v 0 0.2 0.5
v 0 0.3 0.7
v 0 0.3 0.6
v 0 0.4 0.7
v 0 0.4 0.6
v 0 0.7 0.7
v 0 0.7 0.4
v 0 0.8 0.7
v 0 0.8 0.4
v 0 0.9 0.7
v 0 0.9 0.4
v -0.3 0 0.7
v -0.3 0.1 0.7
v -0.3 0.2 0.7
v -0.3 0.3 0.7
v -0.3 0.4 0.7
v -0.3 0.5 0.7
v -0.3 0.6 0.7
v -0.3 0.7 0.7
v -0.3 0.8 0.7
v -0.3 0.9 0.7
v -0.2 0.2 0.7
v -0.2 0.3 0.7
v -0.2 0.4 0.7
v -0.2 0.5 0.7
v -0.2 0.6 0.7
v -0.2 0.7 0.7
v -0.1 0.1 0.7
v -0.1 0.2 0.7
v -0.1 0.3 0.7
v -0.1 0.4 0.7
v -0.1 0.5 0.7
v -0.1 0.6 0.7
v -0.1 0.7 0.7
v 0 0 0.7
v 0 0.1 0.7
v 0 0.2 0.7
v 0 0.3 0.7
v 0 0.4 0.7
v 0 0.7 0.7
v 0 0.8 0.7
v 0 0.9 0.7
v -0.3 0 0.4
v -0.3 0.1 0.4
v -0.3 0.7 0.4
v -0.3 0.8 0.4
v -0.3 0.9 0.4
v 0 0 0.4
v 0 0.1 0.4
v 0 0.7 0.4
v 0 0.8 0.4
v 0 0.9 0.4
v -0.3 0 0.7
v 0 0 0.7
v -0.3 0 0.4
v 0 0 0.4
v -0.3 0.9 0.7
v 0 0.9 0.7
v -0.3 0.9 0.4
v 0 0.9 0.4

# faces
f 3/1/1 2/1/1 1/1/1
f 4/1/1 2/1/1 3/1/1
f 5/1/1 2/1/1 4/1/1
f 6/4/1 4/4/1 3/4/1
f 7/2/1 5/2/1 4/2/1
f 7/4/1 4/4/1 6/4/1
f 8/2/1 7/2/1 6/2/1
f 9/2/1 5/2/1 7/2/1
f 9/2/1 7/2/1 8/2/1
f 10/4/1 9/4/1 8/4/1
f 11/2/1 5/2/1 9/2/1
f 11/4/1 9/4/1 10/4/1
f 12/2/1 11/2/1 10/2/1
f 13/2/1 5/2/1 11/2/1
f 13/2/1 11/2/1 12/2/1
f 14/4/1 13/4/1 12/4/1
f 15/2/1 5/2/1 13/2/1
f 15/4/1 13/4/1 14/4/1
f 16/2/1 15/2/1 14/2/1
f 17/2/1 5/2/1 15/2/1
f 17/2/1 15/2/1 16/2/1
f 18/4/1 17/4/1 16/4/1
f 19/4/1 17/4/1 18/4/1
f 20/5/1 19/5/1 18/5/1
f 21/5/1 19/5/1 20/5/1
f 22/1/2 23/1/2 24/1/2
f 24/1/2 23/1/2 25/1/2
f 25/1/2 23/1/2 26/1/2
f 26/1/2 23/1/2 27/1/2
f 24/5/2 25/5/2 28/5/2
f 25/3/2 26/3/2 29/3/2
f 28/5/2 25/5/2 29/5/2
f 26/2/2 27/2/2 30/2/2
f 29/3/2 26/3/2 30/3/2
f 28/2/2 29/2/2 31/2/2
f 29/2/2 30/2/2 31/2/2
f 31/2/2 30/2/2 32/2/2
f 31/4/2 32/4/2 33/4/2
f 32/2/2 30/2/2 34/2/2
f 33/4/2 32/4/2 34/4/2
f 33/2/2 34/2/2 35/2/2
f 30/2/2 27/2/2 36/2/2
f 35/2/2 34/2/2 36/2/2
f 34/2/2 30/2/2 36/2/2
f 35/4/2 36/4/2 37/4/2
f 37/4/2 36/4/2 38/4/2
f 37/5/2 38/5/2 39/5/2
f 39/5/2 38/5/2 40/5/2
f 51/4/3 43/4/3 42/4/3
f 51/2/3 44/2/3 43/2/3
f 52/4/3 45/4/3 44/4/3
f 52/2/3 44/2/3 51/2/3
f 53/2/3 46/2/3 45/2/3
f 53/4/3 45/4/3 52/4/3
f 54/4/3 47/4/3 46/4/3
f 54/2/3 46/2/3 53/2/3
f 55/2/3 48/2/3 47/2/3
f 55/4/3 47/4/3 54/4/3
f 56/4/3 49/4/3 48/4/3
f 56/2/3 48/2/3 55/2/3
f 57/1/3 42/1/3 41/1/3
f 57/4/3 51/4/3 42/4/3
f 58/3/3 52/3/3 51/3/3
f 58/4/3 51/4/3 57/4/3
f 59/4/3 53/4/3 52/4/3
f 59/3/3 52/3/3 58/3/3
f 60/3/3 54/3/3 53/3/3
f 60/4/3 53/4/3 59/4/3
f 61/4/3 55/4/3 54/4/3
f 61/3/3 54/3/3 60/3/3
f 62/3/3 56/3/3 55/3/3
f 62/4/3 55/4/3 61/4/3
f 63/4/3 49/4/3 56/4/3
f 63/3/3 56/3/3 62/3/3
f 64/1/3 57/1/3 41/1/3
f 65/5/3 58/5/3 57/5/3
f 65/1/3 57/1/3 64/1/3
f 66/2/3 59/2/3 58/2/3
f 66/5/3 58/5/3 65/5/3
f 67/4/3 60/4/3 59/4/3
f 67/2/3 59/2/3 66/2/3
f 68/2/3 62/2/3 61/2/3
f 68/4/3 60/4/3 67/4/3
f 68/2/3 61/2/3 60/2/3
f 68/2/3 63/2/3 62/2/3
f 69/4/3 49/4/3 63/4/3
f 69/2/3 63/2/3 68/2/3
f 70/5/3 50/5/3 49/5/3
f 70/4/3 49/4/3 69/4/3
f 71/5/3 50/5/3 70/5/3
f 72/1/4 73/1/4 77/1/4
f 73/2/4 74/2/4 78/2/4
f 77/1/4 73/1/4 78/1/4
f 74/4/4 75/4/4 79/4/4
f 78/2/4 74/2/4 79/2/4
f 75/5/4 76/5/4 80/5/4
f 79/4/4 75/4/4 80/4/4
f 80/5/4 76/5/4 81/5/4
f 84/1/5 83/1/5 82/1/5
f 85/1/5 83/1/5 84/1/5
f 86/5/6 87/5/6 88/5/6
f 88/5/6 87/5/6 89/5/6
