# MagicaVoxel @ Ephtracy

# group
o 

# material
mtllib CliSchi-5.mtl
usemtl palette

# normals
vn -1 0 0
vn 1 0 0
vn 0 0 1
vn 0 0 -1
vn 0 -1 0
vn 0 1 0

# texcoords
vt 0.0136719 0.5
vt 0.958984 0.5
vt 0.962891 0.5
vt 0.966797 0.5

# verts
v -1.2 0.5 0.6
v -1.2 0.5 0.5
v -1.2 0.5 0.4
v -1.2 0.7 0.5
v -1.2 0.7 0.4
v -1.2 0.8 0.5
v -1.2 0.8 0.4
v -1.2 1.1 0.6
v -1.2 1.1 0.5
v -1.2 1.7 0.6
v -1.2 1.7 0.4
v -1.1 0.3 0.5
v -1.1 0.3 0.4
v -1.1 0.5 0.5
v -1.1 0.5 0.4
v -1.1 0.9 0.4
v -1.1 0.9 0.3
v -1.1 1.3 0.7
v -1.1 1.3 0.6
v -1.1 1.7 0.7
v -1.1 1.7 0.6
v -1.1 1.7 0.4
v -1.1 1.7 0.3
v -1.1 1.8 0.6
v -1.1 1.8 0.4
v -1 0.3 0.4
v -1 0.3 0.3
v -1 0.5 0.4
v -1 0.5 0.3
v -1 0.9 0.4
v -1 0.9 0.3
v -1 1.7 0.7
v -1 1.7 0.6
v -1 1.8 0.7
v -1 1.8 0.6
v -0.9 1.7 0.4
v -0.9 1.7 0.3
v -0.9 1.8 0.4
v -0.9 1.8 0.3
v -0.8 0.2 0.4
v -0.8 0.2 0.3
v -0.8 0.3 0.4
v -0.8 0.3 0.3
v -0.3 1.7 0.7
v -0.3 1.7 0.4
v -0.3 1.8 0.7
v -0.3 1.8 0.4
v -0.2 1.6 0.7
v -0.2 1.6 0.6
v -0.2 1.7 0.7
v -0.2 1.7 0.6
v -0.1 0.3 0.5
v -0.1 0.3 0.4
v -0.1 0.4 0.5
v -0.1 0.4 0.4
v -0.1 0.7 0.5
v -0.1 0.7 0.4
v -0.1 0.8 0.5
v -0.1 0.8 0.4
v -0.1 0.9 0.5
v -0.1 0.9 0.4
v -0.1 1.1 0.7
v -0.1 1.1 0.6
v -0.1 1.6 0.7
v -0.1 1.6 0.6
v 0 0.6 0.6
v 0 0.6 0.5
v 0 0.7 0.5
v 0 0.8 0.5
v 0 0.9 0.6
v 0 0.9 0.5
v 0 0.9 0.4
v 0 1 0.4
v 0 1.1 0.6
v 0 1.2 0.5
v 0 1.2 0.4
v 0 1.7 0.6
v 0 1.7 0.4
v -1.1 0.5 0.6
v -1.1 0.5 0.5
v -1.1 0.9 0.5
v -1.1 0.9 0.4
v -1.1 1.1 0.6
v -1.1 1.1 0.5
v -1.1 1.3 0.6
v -1.1 1.7 0.6
v -1.1 1.7 0.4
v -1 0.3 0.5
v -1 0.3 0.4
v -1 0.5 0.4
v -1 0.9 0.5
v -1 0.9 0.4
v -1 1.3 0.7
v -1 1.3 0.6
v -1 1.6 0.7
v -1 1.6 0.6
v -0.9 1.6 0.7
v -0.9 1.6 0.6
v -0.9 1.7 0.7
v -0.9 1.7 0.6
v -0.8 1.7 0.7
v -0.8 1.7 0.4
v -0.8 1.8 0.7
v -0.8 1.8 0.4
v -0.3 0.2 0.4
v -0.3 0.2 0.3
v -0.3 0.3 0.4
v -0.3 0.3 0.3
v -0.2 1.7 0.4
v -0.2 1.7 0.3
v -0.2 1.8 0.4
v -0.2 1.8 0.3
v -0.1 0.3 0.4
v -0.1 0.3 0.3
v -0.1 0.4 0.4
v -0.1 0.4 0.3
v -0.1 0.7 0.4
v -0.1 0.7 0.3
v -0.1 0.8 0.4
v -0.1 0.9 0.4
v -0.1 0.9 0.3
v -0.1 1.7 0.7
v -0.1 1.7 0.6
v -0.1 1.8 0.7
v -0.1 1.8 0.6
v 0 0.3 0.5
v 0 0.3 0.4
v 0 0.4 0.5
v 0 0.4 0.4
v 0 0.6 0.5
v 0 0.6 0.4
v 0 0.9 0.4
v 0 0.9 0.3
v 0 1 0.4
v 0 1 0.3
v 0 1.1 0.7
v 0 1.1 0.6
v 0 1.2 0.4
v 0 1.7 0.7
v 0 1.7 0.6
v 0 1.7 0.4
v 0 1.7 0.3
v 0 1.8 0.6
v 0 1.8 0.4
v 0.0999999 0.6 0.6
v 0.0999999 0.6 0.4
v 0.0999999 0.9 0.6
v 0.0999999 0.9 0.5
v 0.0999999 1.2 0.5
v 0.0999999 1.2 0.4
v 0.0999999 1.7 0.6
v 0.0999999 1.7 0.4
v -1.1 1.3 0.7
v -1.1 1.7 0.7
v -1 1.3 0.7
v -1 1.6 0.7
v -1 1.7 0.7
v -1 1.8 0.7
v -0.9 1.6 0.7
v -0.9 1.7 0.7
v -0.8 1.7 0.7
v -0.8 1.8 0.7
v -0.3 1.7 0.7
v -0.3 1.8 0.7
v -0.2 1.6 0.7
v -0.2 1.7 0.7
v -0.1 1.1 0.7
v -0.1 1.6 0.7
v -0.1 1.7 0.7
v -0.1 1.8 0.7
v 0 1.1 0.7
v 0 1.7 0.7
v -1.2 0.5 0.6
v -1.2 1.1 0.6
v -1.2 1.7 0.6
v -1.1 0.5 0.6
v -1.1 1.1 0.6
v -1.1 1.3 0.6
v -1.1 1.7 0.6
v -1.1 1.8 0.6
v -1 1.7 0.6
v -1 1.8 0.6
v -0.1 1.7 0.6
v -0.1 1.8 0.6
v 0 0.6 0.6
v 0 0.9 0.6
v 0 1.1 0.6
v 0 1.7 0.6
v 0 1.8 0.6
v 0.0999999 0.6 0.6
v 0.0999999 0.9 0.6
v 0.0999999 1.7 0.6
v -1.1 0.3 0.5
v -1.1 0.5 0.5
v -1.1 0.9 0.5
v -1 0.3 0.5
v -1 0.9 0.5
v -0.1 0.3 0.5
v -0.1 0.4 0.5
v -0.1 0.7 0.5
v -0.1 0.8 0.5
v -0.1 0.9 0.5
v 0 0.3 0.5
v 0 0.4 0.5
v 0 0.6 0.5
v 0 0.7 0.5
v 0 0.8 0.5
v 0 0.9 0.5
v -1.1 0.9 0.4
v -1.1 1.7 0.4
v -1 0.3 0.4
v -1 0.5 0.4
v -1 0.9 0.4
v -0.9 0.3 0.4
v -0.9 0.5 0.4
v -0.9 0.9 0.4
v -0.9 1 0.4
v -0.8 0.2 0.4
v -0.8 0.3 0.4
v -0.8 0.5 0.4
v -0.8 0.6 0.4
v -0.8 0.7 0.4
v -0.8 0.8 0.4
v -0.8 0.9 0.4
v -0.8 1 0.4
v -0.8 1.2 0.4
v -0.8 1.3 0.4
v -0.8 1.4 0.4
v -0.8 1.5 0.4
v -0.8 1.6 0.4
v -0.8 1.7 0.4
v -0.8 1.8 0.4
v -0.7 0.2 0.4
v -0.7 0.5 0.4
v -0.7 0.8 0.4
v -0.7 0.9 0.4
v -0.7 1 0.4
v -0.7 1.2 0.4
v -0.6 0.6 0.4
v -0.6 0.7 0.4
v -0.6 0.8 0.4
v -0.6 0.9 0.4
v -0.6 1 0.4
v -0.6 1.2 0.4
v -0.6 1.4 0.4
v -0.6 1.5 0.4
v -0.5 0.2 0.4
v -0.5 0.5 0.4
v -0.5 0.8 0.4
v -0.5 0.9 0.4
v -0.5 1.2 0.4
v -0.5 1.3 0.4
v -0.5 1.6 0.4
v -0.4 0.2 0.4
v -0.4 0.3 0.4
v -0.4 0.5 0.4
v -0.4 0.8 0.4
v -0.4 1.6 0.4
v -0.3 0.2 0.4
v -0.3 0.3 0.4
v -0.3 0.5 0.4
v -0.3 1.1 0.4
v -0.3 1.6 0.4
v -0.3 1.7 0.4
v -0.3 1.8 0.4
v -0.2 0.3 0.4
v -0.2 0.4 0.4
v -0.2 0.7 0.4
v -0.2 1.1 0.4
v -0.1 0.3 0.4
v -0.1 0.4 0.4
v -0.1 0.7 0.4
v -0.1 0.8 0.4
v -0.1 0.9 0.4
v -0.1 1 0.4
v 0 0.9 0.4
v 0 1 0.4
v 0 1.2 0.4
v 0 1.7 0.4
v -1.1 1.3 0.6
v -1.1 1.7 0.6
v -1 1.3 0.6
v -1 1.6 0.6
v -0.9 1.6 0.6
v -0.9 1.7 0.6
v -0.2 1.6 0.6
v -0.2 1.7 0.6
v -0.1 1.1 0.6
v -0.1 1.6 0.6
v 0 1.1 0.6
v 0 1.7 0.6
v -1.2 0.5 0.4
v -1.2 0.7 0.4
v -1.2 0.8 0.4
v -1.2 1.7 0.4
v -1.1 0.3 0.4
v -1.1 0.5 0.4
v -1.1 0.7 0.4
v -1.1 0.8 0.4
v -1.1 0.9 0.4
v -1.1 1.7 0.4
v -1.1 1.8 0.4
v -1 0.3 0.4
v -1 0.5 0.4
v -1 0.9 0.4
v -0.9 1.7 0.4
v -0.9 1.8 0.4
v -0.2 1.7 0.4
v -0.2 1.8 0.4
v -0.1 0.3 0.4
v -0.1 0.4 0.4
v -0.1 0.7 0.4
v -0.1 0.8 0.4
v -0.1 0.9 0.4
v 0 0.3 0.4
v 0 0.4 0.4
v 0 0.6 0.4
v 0 0.7 0.4
v 0 0.8 0.4
v 0 0.9 0.4
v 0 1 0.4
v 0 1.2 0.4
v 0 1.7 0.4
v 0 1.8 0.4
v 0.0999999 0.6 0.4
v 0.0999999 1.2 0.4
v 0.0999999 1.7 0.4
v -1.1 0.9 0.3
v -1.1 1.7 0.3
v -1 0.3 0.3
v -1 0.5 0.3
v -1 0.9 0.3
v -0.9 0.3 0.3
v -0.9 0.5 0.3
v -0.9 0.9 0.3
v -0.9 1 0.3
v -0.9 1.7 0.3
v -0.9 1.8 0.3
v -0.8 0.2 0.3
v -0.8 0.3 0.3
v -0.8 0.5 0.3
v -0.8 0.6 0.3
v -0.8 0.7 0.3
v -0.8 0.8 0.3
v -0.8 0.9 0.3
v -0.8 1 0.3
v -0.8 1.2 0.3
v -0.8 1.3 0.3
v -0.8 1.4 0.3
v -0.8 1.5 0.3
v -0.8 1.6 0.3
v -0.7 0.2 0.3
v -0.7 0.5 0.3
v -0.7 0.8 0.3
v -0.7 0.9 0.3
v -0.7 1 0.3
v -0.7 1.2 0.3
v -0.6 0.6 0.3
v -0.6 0.7 0.3
v -0.6 0.8 0.3
v -0.6 0.9 0.3
v -0.6 1 0.3
v -0.6 1.2 0.3
v -0.6 1.4 0.3
v -0.6 1.5 0.3
v -0.5 0.2 0.3
v -0.5 0.5 0.3
v -0.5 0.8 0.3
v -0.5 0.9 0.3
v -0.5 1.2 0.3
v -0.5 1.3 0.3
v -0.5 1.6 0.3
v -0.4 0.2 0.3
v -0.4 0.3 0.3
v -0.4 0.5 0.3
v -0.4 0.8 0.3
v -0.4 1.6 0.3
v -0.3 0.2 0.3
v -0.3 0.3 0.3
v -0.3 0.5 0.3
v -0.3 1.1 0.3
v -0.3 1.6 0.3
v -0.2 0.3 0.3
v -0.2 0.4 0.3
v -0.2 0.7 0.3
v -0.2 1.1 0.3
v -0.2 1.7 0.3
v -0.2 1.8 0.3
v -0.1 0.3 0.3
v -0.1 0.4 0.3
v -0.1 0.7 0.3
v -0.1 0.9 0.3
v -0.1 1 0.3
v 0 0.9 0.3
v 0 1 0.3
v 0 1.7 0.3
v -0.8 0.2 0.4
v -0.7 0.2 0.4
v -0.5 0.2 0.4
v -0.4 0.2 0.4
v -0.3 0.2 0.4
v -0.8 0.2 0.3
v -0.7 0.2 0.3
v -0.5 0.2 0.3
v -0.4 0.2 0.3
v -0.3 0.2 0.3
v -1.1 0.3 0.5
v -1 0.3 0.5
v -0.1 0.3 0.5
v 0 0.3 0.5
v -1.1 0.3 0.4
v -1 0.3 0.4
v -0.9 0.3 0.4
v -0.8 0.3 0.4
v -0.3 0.3 0.4
v -0.2 0.3 0.4
v -0.1 0.3 0.4
v 0 0.3 0.4
v -1 0.3 0.3
v -0.9 0.3 0.3
v -0.8 0.3 0.3
v -0.3 0.3 0.3
v -0.2 0.3 0.3
v -0.1 0.3 0.3
v -1.2 0.5 0.6
v -1.1 0.5 0.6
v -1.2 0.5 0.5
v -1.1 0.5 0.5
v -1.2 0.5 0.4
v -1.1 0.5 0.4
v 0 0.6 0.6
v 0.0999999 0.6 0.6
v 0 0.6 0.5
v 0 0.6 0.4
v 0.0999999 0.6 0.4
v -1.1 0.9 0.4
v -1 0.9 0.4
v -0.1 0.9 0.4
v 0 0.9 0.4
v -1.1 0.9 0.3
v -1 0.9 0.3
v -0.1 0.9 0.3
v 0 0.9 0.3
v -0.1 1.1 0.7
v 0 1.1 0.7
v -0.1 1.1 0.6
v 0 1.1 0.6
v -1.1 1.3 0.7
v -1 1.3 0.7
v -1.1 1.3 0.6
v -1 1.3 0.6
v -1 1.6 0.7
v -0.9 1.6 0.7
v -0.2 1.6 0.7
v -0.1 1.6 0.7
v -1 1.6 0.6
v -0.9 1.6 0.6
v -0.2 1.6 0.6
v -0.1 1.6 0.6
v -0.9 1.7 0.7
v -0.8 1.7 0.7
v -0.3 1.7 0.7
v -0.2 1.7 0.7
v -1.1 1.7 0.6
v -0.9 1.7 0.6
v -0.2 1.7 0.6
v 0 1.7 0.6
v -1.1 1.7 0.4
v -0.8 1.7 0.4
v -0.3 1.7 0.4
v 0 1.7 0.4
v -1.1 0.9 0.5
v -1 0.9 0.5
v -0.1 0.9 0.5
v 0 0.9 0.5
v -1.1 0.9 0.4
v -1 0.9 0.4
v -0.1 0.9 0.4
v 0 0.9 0.4
v -1.1 1.7 0.7
v -1 1.7 0.7
v -0.1 1.7 0.7
v 0 1.7 0.7
v -1.2 1.7 0.6
v -1.1 1.7 0.6
v -1 1.7 0.6
v -0.1 1.7 0.6
v 0 1.7 0.6
v 0.0999999 1.7 0.6
v -1.2 1.7 0.4
v -1.1 1.7 0.4
v -0.9 1.7 0.4
v -0.2 1.7 0.4
v 0 1.7 0.4
v 0.0999999 1.7 0.4
v -1.1 1.7 0.3
v -0.9 1.7 0.3
v -0.2 1.7 0.3
v 0 1.7 0.3
v -1 1.8 0.7
v -0.8 1.8 0.7
v -0.3 1.8 0.7
v -0.1 1.8 0.7
v -1.1 1.8 0.6
v -1 1.8 0.6
v -0.1 1.8 0.6
v 0 1.8 0.6
v -1.1 1.8 0.4
v -0.9 1.8 0.4
v -0.8 1.8 0.4
v -0.3 1.8 0.4
v -0.2 1.8 0.4
v 0 1.8 0.4
v -0.9 1.8 0.3
v -0.2 1.8 0.3

# faces
f 4/3/1 2/3/1 1/3/1
f 4/4/1 3/4/1 2/4/1
f 5/4/1 3/4/1 4/4/1
f 6/3/1 4/3/1 1/3/1
f 6/3/1 5/3/1 4/3/1
f 7/3/1 5/3/1 6/3/1
f 8/3/1 6/3/1 1/3/1
f 9/2/1 7/2/1 6/2/1
f 9/3/1 6/3/1 8/3/1
f 10/2/1 9/2/1 8/2/1
f 11/2/1 7/2/1 9/2/1
f 11/2/1 9/2/1 10/2/1
f 14/3/1 13/3/1 12/3/1
f 15/3/1 13/3/1 14/3/1
f 20/2/1 19/2/1 18/2/1
f 21/2/1 19/2/1 20/2/1
f 22/2/1 17/2/1 16/2/1
f 23/2/1 17/2/1 22/2/1
f 24/2/1 22/2/1 21/2/1
f 25/2/1 22/2/1 24/2/1
f 28/4/1 27/4/1 26/4/1
f 29/4/1 27/4/1 28/4/1
f 30/3/1 29/3/1 28/3/1
f 31/3/1 29/3/1 30/3/1
f 34/2/1 33/2/1 32/2/1
f 35/2/1 33/2/1 34/2/1
f 38/2/1 37/2/1 36/2/1
f 39/2/1 37/2/1 38/2/1
f 42/3/1 41/3/1 40/3/1
f 43/3/1 41/3/1 42/3/1
f 46/2/1 45/2/1 44/2/1
f 47/2/1 45/2/1 46/2/1
f 50/2/1 49/2/1 48/2/1
f 51/2/1 49/2/1 50/2/1
f 54/4/1 53/4/1 52/4/1
f 55/4/1 53/4/1 54/4/1
f 56/3/1 55/3/1 54/3/1
f 57/3/1 55/3/1 56/3/1
f 58/2/1 57/2/1 56/2/1
f 59/2/1 57/2/1 58/2/1
f 60/3/1 59/3/1 58/3/1
f 61/3/1 59/3/1 60/3/1
f 64/2/1 63/2/1 62/2/1
f 65/2/1 63/2/1 64/2/1
f 68/3/1 67/3/1 66/3/1
f 69/3/1 68/3/1 66/3/1
f 70/3/1 69/3/1 66/3/1
f 71/3/1 69/3/1 70/3/1
f 73/3/1 72/3/1 71/3/1
f 74/2/1 71/2/1 70/2/1
f 75/3/1 73/3/1 71/3/1
f 75/2/1 71/2/1 74/2/1
f 76/3/1 73/3/1 75/3/1
f 77/2/1 75/2/1 74/2/1
f 77/2/1 76/2/1 75/2/1
f 78/2/1 76/2/1 77/2/1
f 79/3/2 80/3/2 81/3/2
f 79/3/2 81/3/2 83/3/2
f 81/2/2 82/2/2 84/2/2
f 83/3/2 81/3/2 84/3/2
f 83/2/2 84/2/2 85/2/2
f 85/2/2 84/2/2 86/2/2
f 84/2/2 82/2/2 87/2/2
f 86/2/2 84/2/2 87/2/2
f 88/3/2 89/3/2 90/3/2
f 88/3/2 90/3/2 91/3/2
f 91/3/2 90/3/2 92/3/2
f 93/2/2 94/2/2 95/2/2
f 95/2/2 94/2/2 96/2/2
f 97/2/2 98/2/2 99/2/2
f 99/2/2 98/2/2 100/2/2
f 101/2/2 102/2/2 103/2/2
f 103/2/2 102/2/2 104/2/2
f 105/4/2 106/4/2 107/4/2
f 107/4/2 106/4/2 108/4/2
f 109/2/2 110/2/2 111/2/2
f 111/2/2 110/2/2 112/2/2
f 113/4/2 114/4/2 115/4/2
f 115/4/2 114/4/2 116/4/2
f 115/3/2 116/3/2 117/3/2
f 117/3/2 116/3/2 118/3/2
f 117/2/2 118/2/2 119/2/2
f 119/2/2 118/2/2 120/2/2
f 120/2/2 118/2/2 121/2/2
f 122/2/2 123/2/2 124/2/2
f 124/2/2 123/2/2 125/2/2
f 126/4/2 127/4/2 128/4/2
f 128/4/2 127/4/2 129/4/2
f 128/3/2 129/3/2 130/3/2
f 130/3/2 129/3/2 131/3/2
f 132/3/2 133/3/2 134/3/2
f 134/3/2 133/3/2 135/3/2
f 134/2/2 135/2/2 138/2/2
f 136/2/2 137/2/2 139/2/2
f 139/2/2 137/2/2 140/2/2
f 138/2/2 135/2/2 141/2/2
f 141/2/2 135/2/2 142/2/2
f 140/2/2 141/2/2 143/2/2
f 143/2/2 141/2/2 144/2/2
f 145/3/2 146/3/2 147/3/2
f 147/3/2 146/3/2 148/3/2
f 147/2/2 148/2/2 149/2/2
f 148/3/2 146/3/2 149/3/2
f 149/3/2 146/3/2 150/3/2
f 147/2/2 149/2/2 151/2/2
f 149/2/2 150/2/2 151/2/2
f 151/2/2 150/2/2 152/2/2
f 155/2/3 154/2/3 153/2/3
f 156/2/3 154/2/3 155/2/3
f 157/2/3 154/2/3 156/2/3
f 159/2/3 158/2/3 157/2/3
f 159/2/3 157/2/3 156/2/3
f 160/2/3 158/2/3 159/2/3
f 161/2/3 158/2/3 160/2/3
f 162/2/3 158/2/3 161/2/3
f 166/2/3 164/2/3 163/2/3
f 168/2/3 166/2/3 165/2/3
f 169/2/3 164/2/3 166/2/3
f 169/2/3 166/2/3 168/2/3
f 170/2/3 164/2/3 169/2/3
f 171/2/3 168/2/3 167/2/3
f 171/2/3 169/2/3 168/2/3
f 172/2/3 169/2/3 171/2/3
f 176/3/3 174/3/3 173/3/3
f 177/2/3 175/2/3 174/2/3
f 177/3/3 174/3/3 176/3/3
f 178/2/3 175/2/3 177/2/3
f 179/2/3 175/2/3 178/2/3
f 181/2/3 180/2/3 179/2/3
f 182/2/3 180/2/3 181/2/3
f 188/2/3 184/2/3 183/2/3
f 189/2/3 184/2/3 188/2/3
f 190/3/3 186/3/3 185/3/3
f 191/2/3 187/2/3 186/2/3
f 191/3/3 186/3/3 190/3/3
f 191/2/3 188/2/3 187/2/3
f 192/2/3 188/2/3 191/2/3
f 196/3/3 194/3/3 193/3/3
f 196/3/3 195/3/3 194/3/3
f 197/3/3 195/3/3 196/3/3
f 203/4/3 199/4/3 198/4/3
f 204/3/3 200/3/3 199/3/3
f 204/4/3 199/4/3 203/4/3
f 205/3/3 200/3/3 204/3/3
f 206/2/3 201/2/3 200/2/3
f 206/3/3 200/3/3 205/3/3
f 207/3/3 202/3/3 201/3/3
f 207/2/3 201/2/3 206/2/3
f 208/3/3 202/3/3 207/3/3
f 213/2/3 210/2/3 209/2/3
f 214/4/3 212/4/3 211/4/3
f 215/3/3 213/3/3 212/3/3
f 215/4/3 212/4/3 214/4/3
f 216/2/3 210/2/3 213/2/3
f 216/3/3 213/3/3 215/3/3
f 217/2/3 210/2/3 216/2/3
f 219/3/3 215/3/3 214/3/3
f 219/3/3 216/3/3 215/3/3
f 219/3/3 217/3/3 216/3/3
f 220/3/3 217/3/3 219/3/3
f 221/3/3 217/3/3 220/3/3
f 222/3/3 217/3/3 221/3/3
f 223/3/3 217/3/3 222/3/3
f 224/3/3 217/3/3 223/3/3
f 225/2/3 210/2/3 217/2/3
f 225/3/3 217/3/3 224/3/3
f 226/2/3 210/2/3 225/2/3
f 227/2/3 210/2/3 226/2/3
f 228/2/3 210/2/3 227/2/3
f 229/2/3 210/2/3 228/2/3
f 230/2/3 210/2/3 229/2/3
f 231/2/3 210/2/3 230/2/3
f 233/3/3 219/3/3 218/3/3
f 233/3/3 220/3/3 219/3/3
f 234/1/3 221/1/3 220/1/3
f 234/3/3 220/3/3 233/3/3
f 235/3/3 224/3/3 223/3/3
f 235/1/3 223/1/3 222/1/3
f 236/1/3 225/1/3 224/1/3
f 236/3/3 224/3/3 235/3/3
f 236/1/3 226/1/3 225/1/3
f 237/1/3 226/1/3 236/1/3
f 238/2/3 227/2/3 226/2/3
f 238/1/3 226/1/3 237/1/3
f 239/1/3 221/1/3 234/1/3
f 239/3/3 222/3/3 221/3/3
f 240/1/3 235/1/3 222/1/3
f 240/3/3 222/3/3 239/3/3
f 241/2/3 236/2/3 235/2/3
f 241/1/3 235/1/3 240/1/3
f 242/1/3 237/1/3 236/1/3
f 242/2/3 236/2/3 241/2/3
f 243/2/3 238/2/3 237/2/3
f 243/1/3 237/1/3 242/1/3
f 244/2/3 227/2/3 238/2/3
f 244/2/3 238/2/3 243/2/3
f 245/1/3 228/1/3 227/1/3
f 245/2/3 229/2/3 228/2/3
f 246/1/3 230/1/3 229/1/3
f 246/2/3 229/2/3 245/2/3
f 247/4/3 234/4/3 233/4/3
f 248/1/3 239/1/3 234/1/3
f 248/4/3 234/4/3 247/4/3
f 248/1/3 241/1/3 240/1/3
f 248/1/3 240/1/3 239/1/3
f 249/3/3 242/3/3 241/3/3
f 249/1/3 241/1/3 248/1/3
f 250/1/3 243/1/3 242/1/3
f 250/3/3 242/3/3 249/3/3
f 250/1/3 244/1/3 243/1/3
f 251/2/3 227/2/3 244/2/3
f 251/1/3 244/1/3 250/1/3
f 252/1/3 245/1/3 227/1/3
f 252/2/3 227/2/3 251/2/3
f 252/1/3 246/1/3 245/1/3
f 253/2/3 232/2/3 231/2/3
f 253/1/3 246/1/3 252/1/3
f 253/2/3 231/2/3 230/2/3
f 253/1/3 230/1/3 246/1/3
f 254/3/3 249/3/3 248/3/3
f 254/3/3 248/3/3 247/3/3
f 255/3/3 249/3/3 254/3/3
f 256/3/3 249/3/3 255/3/3
f 257/2/3 252/2/3 251/2/3
f 257/3/3 249/3/3 256/3/3
f 257/2/3 250/2/3 249/2/3
f 257/2/3 253/2/3 252/2/3
f 257/2/3 251/2/3 250/2/3
f 258/2/3 232/2/3 253/2/3
f 258/2/3 253/2/3 257/2/3
f 259/4/3 255/4/3 254/4/3
f 260/3/3 256/3/3 255/3/3
f 260/4/3 255/4/3 259/4/3
f 261/1/3 257/1/3 256/1/3
f 261/3/3 256/3/3 260/3/3
f 261/1/3 258/1/3 257/1/3
f 262/1/3 258/1/3 261/1/3
f 263/2/3 232/2/3 258/2/3
f 263/1/3 258/1/3 262/1/3
f 264/2/3 232/2/3 263/2/3
f 265/2/3 232/2/3 264/2/3
f 266/3/3 262/3/3 261/3/3
f 266/3/3 261/3/3 260/3/3
f 267/3/3 262/3/3 266/3/3
f 268/3/3 262/3/3 267/3/3
f 269/2/3 264/2/3 263/2/3
f 269/3/3 262/3/3 268/3/3
f 269/2/3 263/2/3 262/2/3
f 270/4/3 267/4/3 266/4/3
f 271/3/3 268/3/3 267/3/3
f 271/4/3 267/4/3 270/4/3
f 272/2/3 269/2/3 268/2/3
f 272/3/3 268/3/3 271/3/3
f 273/2/3 269/2/3 272/2/3
f 274/2/3 269/2/3 273/2/3
f 275/2/3 269/2/3 274/2/3
f 276/3/3 275/3/3 274/3/3
f 277/2/3 269/2/3 275/2/3
f 277/3/3 275/3/3 276/3/3
f 278/2/3 264/2/3 269/2/3
f 278/2/3 269/2/3 277/2/3
f 279/2/3 264/2/3 278/2/3
f 280/2/4 281/2/4 282/2/4
f 282/2/4 281/2/4 283/2/4
f 283/2/4 281/2/4 284/2/4
f 284/2/4 281/2/4 285/2/4
f 286/2/4 287/2/4 289/2/4
f 288/2/4 289/2/4 290/2/4
f 289/2/4 287/2/4 291/2/4
f 290/2/4 289/2/4 291/2/4
f 292/4/4 293/4/4 297/4/4
f 293/3/4 294/3/4 298/3/4
f 297/4/4 293/4/4 298/4/4
f 294/2/4 295/2/4 299/2/4
f 298/3/4 294/3/4 299/3/4
f 299/2/4 295/2/4 300/2/4
f 300/2/4 295/2/4 301/2/4
f 297/3/4 298/3/4 303/3/4
f 296/3/4 297/3/4 303/3/4
f 299/3/4 300/3/4 303/3/4
f 298/3/4 299/3/4 303/3/4
f 303/3/4 300/3/4 304/3/4
f 304/3/4 300/3/4 305/3/4
f 301/2/4 302/2/4 306/2/4
f 306/2/4 302/2/4 307/2/4
f 310/4/4 311/4/4 315/4/4
f 311/3/4 312/3/4 316/3/4
f 315/4/4 311/4/4 316/4/4
f 316/3/4 312/3/4 317/3/4
f 312/2/4 313/2/4 318/2/4
f 317/3/4 312/3/4 318/3/4
f 313/3/4 314/3/4 319/3/4
f 318/2/4 313/2/4 319/2/4
f 319/3/4 314/3/4 320/3/4
f 308/2/4 309/2/4 323/2/4
f 323/2/4 309/2/4 324/2/4
f 321/3/4 322/3/4 325/3/4
f 317/3/4 318/3/4 325/3/4
f 320/3/4 321/3/4 325/3/4
f 319/3/4 320/3/4 325/3/4
f 318/3/4 319/3/4 325/3/4
f 322/2/4 323/2/4 326/2/4
f 325/3/4 322/3/4 326/3/4
f 326/2/4 323/2/4 327/2/4
f 328/2/4 329/2/4 332/2/4
f 330/4/4 331/4/4 333/4/4
f 331/3/4 332/3/4 334/3/4
f 333/4/4 331/4/4 334/4/4
f 332/2/4 329/2/4 335/2/4
f 334/3/4 332/3/4 335/3/4
f 335/2/4 329/2/4 336/2/4
f 336/2/4 329/2/4 337/2/4
f 333/3/4 334/3/4 340/3/4
f 334/3/4 335/3/4 340/3/4
f 335/3/4 336/3/4 340/3/4
f 340/3/4 336/3/4 341/3/4
f 341/3/4 336/3/4 342/3/4
f 342/3/4 336/3/4 343/3/4
f 343/3/4 336/3/4 344/3/4
f 344/3/4 336/3/4 345/3/4
f 337/2/4 338/2/4 346/2/4
f 345/3/4 336/3/4 346/3/4
f 336/2/4 337/2/4 346/2/4
f 346/2/4 338/2/4 347/2/4
f 347/2/4 338/2/4 348/2/4
f 348/2/4 338/2/4 349/2/4
f 349/2/4 338/2/4 350/2/4
f 350/2/4 338/2/4 351/2/4
f 339/3/4 340/3/4 352/3/4
f 340/3/4 341/3/4 352/3/4
f 341/1/4 342/1/4 353/1/4
f 352/3/4 341/3/4 353/3/4
f 344/3/4 345/3/4 354/3/4
f 343/1/4 344/1/4 354/1/4
f 345/1/4 346/1/4 355/1/4
f 354/3/4 345/3/4 355/3/4
f 346/1/4 347/1/4 355/1/4
f 355/1/4 347/1/4 356/1/4
f 347/2/4 348/2/4 357/2/4
f 356/1/4 347/1/4 357/1/4
f 353/1/4 342/1/4 358/1/4
f 342/3/4 343/3/4 358/3/4
f 343/1/4 354/1/4 359/1/4
f 358/3/4 343/3/4 359/3/4
f 354/2/4 355/2/4 360/2/4
f 359/1/4 354/1/4 360/1/4
f 355/1/4 356/1/4 361/1/4
f 360/2/4 355/2/4 361/2/4
f 356/2/4 357/2/4 362/2/4
f 361/1/4 356/1/4 362/1/4
f 357/2/4 348/2/4 363/2/4
f 362/2/4 357/2/4 363/2/4
f 349/2/4 350/2/4 364/2/4
f 348/1/4 349/1/4 364/1/4
f 350/1/4 351/1/4 365/1/4
f 364/2/4 350/2/4 365/2/4
f 352/4/4 353/4/4 366/4/4
f 353/1/4 358/1/4 367/1/4
f 366/4/4 353/4/4 367/4/4
f 359/1/4 360/1/4 367/1/4
f 358/1/4 359/1/4 367/1/4
f 360/3/4 361/3/4 368/3/4
f 367/1/4 360/1/4 368/1/4
f 361/1/4 362/1/4 369/1/4
f 368/3/4 361/3/4 369/3/4
f 362/1/4 363/1/4 369/1/4
f 363/2/4 348/2/4 370/2/4
f 369/1/4 363/1/4 370/1/4
f 348/1/4 364/1/4 371/1/4
f 370/2/4 348/2/4 371/2/4
f 364/1/4 365/1/4 371/1/4
f 365/1/4 351/1/4 372/1/4
f 371/1/4 365/1/4 372/1/4
f 351/2/4 338/2/4 372/2/4
f 367/3/4 368/3/4 373/3/4
f 366/3/4 367/3/4 373/3/4
f 373/3/4 368/3/4 374/3/4
f 374/3/4 368/3/4 375/3/4
f 370/2/4 371/2/4 376/2/4
f 375/3/4 368/3/4 376/3/4
f 368/2/4 369/2/4 376/2/4
f 369/2/4 370/2/4 376/2/4
f 371/2/4 372/2/4 376/2/4
f 372/2/4 338/2/4 377/2/4
f 376/2/4 372/2/4 377/2/4
f 373/4/4 374/4/4 378/4/4
f 374/3/4 375/3/4 379/3/4
f 378/4/4 374/4/4 379/4/4
f 375/1/4 376/1/4 380/1/4
f 379/3/4 375/3/4 380/3/4
f 376/1/4 377/1/4 380/1/4
f 380/1/4 377/1/4 381/1/4
f 377/2/4 338/2/4 382/2/4
f 381/1/4 377/1/4 382/1/4
f 380/3/4 381/3/4 383/3/4
f 379/3/4 380/3/4 383/3/4
f 383/3/4 381/3/4 384/3/4
f 384/3/4 381/3/4 385/3/4
f 381/2/4 382/2/4 386/2/4
f 385/3/4 381/3/4 386/3/4
f 382/2/4 338/2/4 387/2/4
f 386/2/4 382/2/4 387/2/4
f 387/2/4 338/2/4 388/2/4
f 383/4/4 384/4/4 389/4/4
f 384/3/4 385/3/4 390/3/4
f 389/4/4 384/4/4 390/4/4
f 385/2/4 386/2/4 391/2/4
f 390/3/4 385/3/4 391/3/4
f 386/2/4 387/2/4 391/2/4
f 391/2/4 387/2/4 392/2/4
f 392/2/4 387/2/4 393/2/4
f 392/3/4 393/3/4 394/3/4
f 393/2/4 387/2/4 395/2/4
f 394/3/4 393/3/4 395/3/4
f 395/2/4 387/2/4 396/2/4
f 402/3/5 398/3/5 397/3/5
f 403/4/5 399/4/5 398/4/5
f 403/3/5 398/3/5 402/3/5
f 404/3/5 400/3/5 399/3/5
f 404/4/5 399/4/5 403/4/5
f 405/4/5 401/4/5 400/4/5
f 405/3/5 400/3/5 404/3/5
f 406/4/5 401/4/5 405/4/5
f 411/3/5 408/3/5 407/3/5
f 412/3/5 408/3/5 411/3/5
f 417/4/5 410/4/5 409/4/5
f 418/4/5 410/4/5 417/4/5
f 419/4/5 413/4/5 412/4/5
f 420/3/5 414/3/5 413/3/5
f 420/4/5 413/4/5 419/4/5
f 421/3/5 414/3/5 420/3/5
f 422/3/5 416/3/5 415/3/5
f 423/4/5 417/4/5 416/4/5
f 423/3/5 416/3/5 422/3/5
f 424/4/5 417/4/5 423/4/5
f 427/3/5 426/3/5 425/3/5
f 428/3/5 426/3/5 427/3/5
f 429/4/5 428/4/5 427/4/5
f 430/4/5 428/4/5 429/4/5
f 433/3/5 432/3/5 431/3/5
f 434/3/5 432/3/5 433/3/5
f 435/3/5 432/3/5 434/3/5
f 440/2/5 437/2/5 436/2/5
f 441/2/5 437/2/5 440/2/5
f 442/3/5 439/3/5 438/3/5
f 443/3/5 439/3/5 442/3/5
f 446/2/5 445/2/5 444/2/5
f 447/2/5 445/2/5 446/2/5
f 450/2/5 449/2/5 448/2/5
f 451/2/5 449/2/5 450/2/5
f 456/2/5 453/2/5 452/2/5
f 457/2/5 453/2/5 456/2/5
f 458/2/5 455/2/5 454/2/5
f 459/2/5 455/2/5 458/2/5
f 465/2/5 461/2/5 460/2/5
f 466/2/5 463/2/5 462/2/5
f 468/2/5 465/2/5 464/2/5
f 469/2/5 461/2/5 465/2/5
f 469/2/5 465/2/5 468/2/5
f 470/2/5 467/2/5 466/2/5
f 470/2/5 466/2/5 462/2/5
f 471/2/5 467/2/5 470/2/5
f 472/3/6 473/3/6 476/3/6
f 476/3/6 473/3/6 477/3/6
f 474/3/6 475/3/6 478/3/6
f 478/3/6 475/3/6 479/3/6
f 480/2/6 481/2/6 485/2/6
f 485/2/6 481/2/6 486/2/6
f 482/2/6 483/2/6 487/2/6
f 487/2/6 483/2/6 488/2/6
f 484/2/6 485/2/6 490/2/6
f 490/2/6 485/2/6 491/2/6
f 488/2/6 489/2/6 494/2/6
f 494/2/6 489/2/6 495/2/6
f 491/2/6 492/2/6 496/2/6
f 496/2/6 492/2/6 497/2/6
f 493/2/6 494/2/6 498/2/6
f 498/2/6 494/2/6 499/2/6
f 500/2/6 501/2/6 505/2/6
f 502/2/6 503/2/6 506/2/6
f 504/2/6 505/2/6 508/2/6
f 505/2/6 501/2/6 509/2/6
f 508/2/6 505/2/6 509/2/6
f 509/2/6 501/2/6 510/2/6
f 506/2/6 507/2/6 511/2/6
f 502/2/6 506/2/6 511/2/6
f 511/2/6 507/2/6 512/2/6
f 512/2/6 507/2/6 513/2/6
f 509/2/6 510/2/6 514/2/6
f 511/2/6 512/2/6 514/2/6
f 510/2/6 511/2/6 514/2/6
f 514/2/6 512/2/6 515/2/6
