# MagicaVoxel @ Ephtracy

# group
o 

# material
mtllib CliSchi-4.mtl
usemtl palette

# normals
vn -1 0 0
vn 1 0 0
vn 0 0 1
vn 0 0 -1
vn 0 -1 0
vn 0 1 0

# texcoords
vt 0.0332031 0.5
vt 0.283203 0.5
vt 0.369141 0.5
vt 0.419922 0.5
vt 0.724609 0.5
vt 0.744141 0.5
vt 0.958984 0.5
vt 0.962891 0.5
vt 0.966797 0.5

# verts
v -1 2.1 0.6
v -1 2.1 0.5
v -1 2.2 0.6
v -1 2.2 0.5
v -0.9 1.8 0.5
v -0.9 1.8 0.4
v -0.9 1.9 0.6
v -0.9 1.9 0.5
v -0.9 1.9 0.4
v -0.9 1.9 0.3
v -0.9 2 0.6
v -0.9 2 0.5
v -0.9 2.1 0.8
v -0.9 2.1 0.6
v -0.9 2.1 0.5
v -0.9 2.1 0.3
v -0.9 2.2 0.9
v -0.9 2.2 0.8
v -0.9 2.2 0.7
v -0.9 2.2 0.6
v -0.9 2.2 0.5
v -0.9 2.2 0.4
v -0.9 2.2 0.3
v -0.9 2.3 0.9
v -0.9 2.3 0.8
v -0.9 2.3 0.7
v -0.9 2.3 0.6
v -0.9 2.3 0.5
v -0.9 2.3 0.4
v -0.9 2.3 0.3
v -0.9 2.4 0.6
v -0.9 2.4 0.5
v -0.8 1.8 0.8
v -0.8 1.8 0.5
v -0.8 1.8 0.4
v -0.8 1.8 0.3
v -0.8 1.9 0.6
v -0.8 1.9 0.5
v -0.8 1.9 0.4
v -0.8 1.9 0.3
v -0.8 1.9 0.2
v -0.8 2 0.6
v -0.8 2 0.5
v -0.8 2.1 0.9
v -0.8 2.1 0.8
v -0.8 2.1 0.6
v -0.8 2.1 0.5
v -0.8 2.1 0.3
v -0.8 2.1 0.2
v -0.8 2.2 0.9
v -0.8 2.2 0.8
v -0.8 2.2 0.3
v -0.8 2.2 0.2
v -0.8 2.3 0.9
v -0.8 2.3 0.8
v -0.8 2.3 0.7
v -0.8 2.3 0.6
v -0.8 2.3 0.5
v -0.8 2.3 0.4
v -0.8 2.3 0.3
v -0.8 2.3 0.2
v -0.8 2.4 0.9
v -0.8 2.4 0.7
v -0.8 2.4 0.6
v -0.8 2.4 0.5
v -0.8 2.4 0.3
v -0.8 2.5 0.7
v -0.8 2.5 0.5
v -0.7 1.8 0.3
v -0.7 1.8 0.2
v -0.7 1.9 0.3
v -0.7 1.9 0.2
v -0.7 2.4 0.8
v -0.7 2.4 0.7
v -0.7 2.4 0.5
v -0.7 2.4 0.4
v -0.7 2.5 0.8
v -0.7 2.5 0.7
v -0.7 2.5 0.5
v -0.7 2.5 0.4
v -0.6 1.7 0.8
v -0.6 1.7 0.7
v -0.6 1.8 0.8
v -0.6 1.8 0.7
v -0.6 2 0.2
v -0.6 2 0.1
v -0.6 2.1 0.2
v -0.6 2.1 0.1
v -0.6 2.2 0.2
v -0.6 2.2 0.1
v -0.6 2.3 0.9
v -0.6 2.3 0.8
v -0.6 2.3 0.3
v -0.6 2.3 0.2
v -0.6 2.4 0.9
v -0.6 2.4 0.8
v -0.6 2.4 0.4
v -0.6 2.4 0.3
v -0.6 2.4 0.2
v -0.6 2.5 0.8
v -0.6 2.5 0.7
v -0.6 2.5 0.6
v -0.6 2.5 0.5
v -0.6 2.5 0.4
v -0.6 2.5 0.3
v -0.6 2.6 0.8
v -0.6 2.6 0.7
v -0.6 2.6 0.6
v -0.6 2.6 0.5
v -0.4 2.4 0.5
v -0.4 2.4 0.4
v -0.4 2.5 0.5
v -0.4 2.5 0.4
v -0.7 2.3 0.9
v -0.7 2.3 0.8
v -0.7 2.4 0.9
v -0.7 2.4 0.8
v -0.5 1.7 0.8
v -0.5 1.7 0.7
v -0.5 1.8 0.8
v -0.5 1.8 0.7
v -0.5 2 0.2
v -0.5 2 0.1
v -0.5 2.1 0.2
v -0.5 2.1 0.1
v -0.5 2.2 0.2
v -0.5 2.2 0.1
v -0.5 2.3 0.9
v -0.5 2.3 0.8
v -0.5 2.4 0.9
v -0.5 2.4 0.8
v -0.5 2.4 0.5
v -0.5 2.4 0.4
v -0.5 2.4 0.3
v -0.5 2.5 0.8
v -0.5 2.5 0.7
v -0.5 2.5 0.6
v -0.5 2.5 0.5
v -0.5 2.5 0.4
v -0.5 2.5 0.3
v -0.5 2.6 0.8
v -0.5 2.6 0.7
v -0.5 2.6 0.6
v -0.5 2.6 0.5
v -0.4 1.8 0.3
v -0.4 1.8 0.2
v -0.4 1.9 0.3
v -0.4 1.9 0.2
v -0.4 2.3 0.3
v -0.4 2.3 0.2
v -0.4 2.4 0.8
v -0.4 2.4 0.7
v -0.4 2.4 0.6
v -0.4 2.4 0.5
v -0.4 2.4 0.3
v -0.4 2.4 0.2
v -0.4 2.5 0.8
v -0.4 2.5 0.7
v -0.4 2.5 0.6
v -0.4 2.5 0.5
v -0.3 1.8 0.8
v -0.3 1.8 0.3
v -0.3 1.9 0.6
v -0.3 1.9 0.3
v -0.3 1.9 0.2
v -0.3 2 0.6
v -0.3 2 0.5
v -0.3 2 0.3
v -0.3 2 0.2
v -0.3 2.1 0.9
v -0.3 2.1 0.8
v -0.3 2.1 0.5
v -0.3 2.1 0.3
v -0.3 2.1 0.2
v -0.3 2.2 0.9
v -0.3 2.2 0.8
v -0.3 2.3 0.9
v -0.3 2.3 0.8
v -0.3 2.3 0.6
v -0.3 2.3 0.5
v -0.3 2.3 0.4
v -0.3 2.3 0.3
v -0.3 2.3 0.2
v -0.3 2.4 0.8
v -0.3 2.4 0.7
v -0.3 2.4 0.6
v -0.3 2.4 0.5
v -0.3 2.4 0.4
v -0.3 2.5 0.7
v -0.3 2.5 0.6
v -0.3 2.5 0.5
v -0.3 2.5 0.4
v -0.2 1.9 0.6
v -0.2 1.9 0.3
v -0.2 2 0.6
v -0.2 2 0.5
v -0.2 2 0.3
v -0.2 2 0.2
v -0.2 2.1 0.8
v -0.2 2.1 0.5
v -0.2 2.1 0.4
v -0.2 2.1 0.3
v -0.2 2.1 0.2
v -0.2 2.2 0.6
v -0.2 2.2 0.5
v -0.2 2.2 0.4
v -0.2 2.2 0.3
v -0.2 2.3 0.8
v -0.2 2.3 0.6
v -0.2 2.3 0.5
v -0.2 2.3 0.4
v -0.2 2.4 0.6
v -0.2 2.4 0.5
v -0.2 2.4 0.4
v -0.2 2.4 0.3
v -0.1 2.1 0.4
v -0.1 2.1 0.3
v -0.1 2.2 0.4
v -0.1 2.2 0.3
v -0.9 2.2 0.9
v -0.9 2.3 0.9
v -0.8 2.1 0.9
v -0.8 2.2 0.9
v -0.8 2.3 0.9
v -0.8 2.4 0.9
v -0.7 2.1 0.9
v -0.7 2.2 0.9
v -0.7 2.3 0.9
v -0.7 2.4 0.9
v -0.6 2.1 0.9
v -0.6 2.2 0.9
v -0.6 2.3 0.9
v -0.6 2.4 0.9
v -0.5 2.1 0.9
v -0.5 2.2 0.9
v -0.5 2.3 0.9
v -0.5 2.4 0.9
v -0.4 2.1 0.9
v -0.4 2.2 0.9
v -0.4 2.3 0.9
v -0.3 2.1 0.9
v -0.3 2.2 0.9
v -0.3 2.3 0.9
v -0.9 2.1 0.8
v -0.9 2.2 0.8
v -0.8 1.8 0.8
v -0.8 2.1 0.8
v -0.8 2.2 0.8
v -0.7 1.9 0.8
v -0.7 2 0.8
v -0.7 2.1 0.8
v -0.7 2.3 0.8
v -0.7 2.4 0.8
v -0.7 2.5 0.8
v -0.6 1.7 0.8
v -0.6 1.8 0.8
v -0.6 1.9 0.8
v -0.6 2 0.8
v -0.6 2.1 0.8
v -0.6 2.3 0.8
v -0.6 2.4 0.8
v -0.6 2.5 0.8
v -0.6 2.6 0.8
v -0.5 1.7 0.8
v -0.5 1.8 0.8
v -0.5 1.9 0.8
v -0.5 2 0.8
v -0.5 2.1 0.8
v -0.5 2.3 0.8
v -0.5 2.4 0.8
v -0.5 2.5 0.8
v -0.5 2.6 0.8
v -0.4 1.9 0.8
v -0.4 2 0.8
v -0.4 2.1 0.8
v -0.4 2.3 0.8
v -0.4 2.4 0.8
v -0.4 2.5 0.8
v -0.3 1.8 0.8
v -0.3 2.1 0.8
v -0.3 2.2 0.8
v -0.3 2.3 0.8
v -0.3 2.4 0.8
v -0.2 2.1 0.8
v -0.2 2.3 0.8
v -0.8 2.4 0.7
v -0.8 2.5 0.7
v -0.7 2.4 0.7
v -0.7 2.5 0.7
v -0.4 2.4 0.7
v -0.4 2.5 0.7
v -0.3 2.4 0.7
v -0.3 2.5 0.7
v -1 2.1 0.6
v -1 2.2 0.6
v -0.9 1.9 0.6
v -0.9 2 0.6
v -0.9 2.1 0.6
v -0.9 2.2 0.6
v -0.9 2.3 0.6
v -0.9 2.4 0.6
v -0.8 1.9 0.6
v -0.8 2 0.6
v -0.8 2.3 0.6
v -0.8 2.4 0.6
v -0.6 2.5 0.6
v -0.6 2.6 0.6
v -0.5 2.5 0.6
v -0.5 2.6 0.6
v -0.3 1.9 0.6
v -0.3 2 0.6
v -0.3 2.3 0.6
v -0.3 2.4 0.6
v -0.2 1.9 0.6
v -0.2 2 0.6
v -0.2 2.3 0.6
v -0.2 2.4 0.6
v -0.9 1.8 0.5
v -0.9 1.9 0.5
v -0.9 2 0.5
v -0.9 2.1 0.5
v -0.8 1.8 0.5
v -0.8 1.9 0.5
v -0.8 2 0.5
v -0.8 2.1 0.5
v -0.4 2.4 0.5
v -0.4 2.5 0.5
v -0.3 2 0.5
v -0.3 2.1 0.5
v -0.3 2.4 0.5
v -0.3 2.5 0.5
v -0.2 2 0.5
v -0.2 2.1 0.5
v -0.3 2.3 0.4
v -0.3 2.4 0.4
v -0.2 2.1 0.4
v -0.2 2.2 0.4
v -0.2 2.3 0.4
v -0.2 2.4 0.4
v -0.1 2.1 0.4
v -0.1 2.2 0.4
v -0.6 1.7 0.7
v -0.6 1.8 0.7
v -0.6 2.5 0.7
v -0.6 2.6 0.7
v -0.5 1.7 0.7
v -0.5 1.8 0.7
v -0.5 2.5 0.7
v -0.5 2.6 0.7
v -0.4 2.4 0.6
v -0.4 2.5 0.6
v -0.3 2.4 0.6
v -0.3 2.5 0.6
v -1 2.1 0.5
v -1 2.2 0.5
v -0.9 2.1 0.5
v -0.9 2.2 0.5
v -0.9 2.3 0.5
v -0.9 2.4 0.5
v -0.8 2.3 0.5
v -0.8 2.4 0.5
v -0.8 2.5 0.5
v -0.7 2.4 0.5
v -0.7 2.5 0.5
v -0.6 2.5 0.5
v -0.6 2.6 0.5
v -0.5 2.4 0.5
v -0.5 2.5 0.5
v -0.5 2.6 0.5
v -0.4 2.4 0.5
v -0.4 2.5 0.5
v -0.3 2.3 0.5
v -0.3 2.4 0.5
v -0.2 2.3 0.5
v -0.2 2.4 0.5
v -0.9 1.8 0.4
v -0.9 1.9 0.4
v -0.8 1.8 0.4
v -0.8 1.9 0.4
v -0.7 2.4 0.4
v -0.7 2.5 0.4
v -0.6 2.4 0.4
v -0.6 2.5 0.4
v -0.4 2.4 0.4
v -0.4 2.5 0.4
v -0.3 2.4 0.4
v -0.3 2.5 0.4
v -0.9 1.9 0.3
v -0.9 2.1 0.3
v -0.9 2.2 0.3
v -0.9 2.3 0.3
v -0.8 1.8 0.3
v -0.8 1.9 0.3
v -0.8 2.1 0.3
v -0.8 2.2 0.3
v -0.8 2.3 0.3
v -0.8 2.4 0.3
v -0.7 1.8 0.3
v -0.7 1.9 0.3
v -0.6 2.3 0.3
v -0.6 2.4 0.3
v -0.6 2.5 0.3
v -0.5 2.4 0.3
v -0.5 2.5 0.3
v -0.4 1.8 0.3
v -0.4 1.9 0.3
v -0.4 2.3 0.3
v -0.4 2.4 0.3
v -0.3 1.8 0.3
v -0.3 1.9 0.3
v -0.3 2 0.3
v -0.3 2.1 0.3
v -0.3 2.3 0.3
v -0.2 1.9 0.3
v -0.2 2 0.3
v -0.2 2.1 0.3
v -0.2 2.2 0.3
v -0.2 2.4 0.3
v -0.1 2.1 0.3
v -0.1 2.2 0.3
v -0.8 1.9 0.2
v -0.8 2.1 0.2
v -0.8 2.2 0.2
v -0.8 2.3 0.2
v -0.7 1.8 0.2
v -0.7 1.9 0.2
v -0.7 2 0.2
v -0.7 2.1 0.2
v -0.6 1.9 0.2
v -0.6 2 0.2
v -0.6 2.1 0.2
v -0.6 2.2 0.2
v -0.6 2.3 0.2
v -0.6 2.4 0.2
v -0.5 1.8 0.2
v -0.5 2 0.2
v -0.5 2.1 0.2
v -0.5 2.2 0.2
v -0.5 2.3 0.2
v -0.5 2.4 0.2
v -0.4 1.8 0.2
v -0.4 1.9 0.2
v -0.4 2 0.2
v -0.4 2.3 0.2
v -0.4 2.4 0.2
v -0.3 1.9 0.2
v -0.3 2 0.2
v -0.3 2.1 0.2
v -0.3 2.3 0.2
v -0.2 2 0.2
v -0.2 2.1 0.2
v -0.6 2 0.1
v -0.6 2.1 0.1
v -0.6 2.2 0.1
v -0.5 2 0.1
v -0.5 2.1 0.1
v -0.5 2.2 0.1
v -0.6 1.7 0.8
v -0.5 1.7 0.8
v -0.6 1.7 0.7
v -0.5 1.7 0.7
v -0.8 1.8 0.8
v -0.6 1.8 0.8
v -0.5 1.8 0.8
v -0.3 1.8 0.8
v -0.6 1.8 0.7
v -0.5 1.8 0.7
v -0.9 1.8 0.5
v -0.8 1.8 0.5
v -0.9 1.8 0.4
v -0.8 1.8 0.4
v -0.8 1.8 0.3
v -0.7 1.8 0.3
v -0.5 1.8 0.3
v -0.4 1.8 0.3
v -0.3 1.8 0.3
v -0.7 1.8 0.2
v -0.5 1.8 0.2
v -0.4 1.8 0.2
v -0.9 1.9 0.6
v -0.8 1.9 0.6
v -0.3 1.9 0.6
v -0.2 1.9 0.6
v -0.9 1.9 0.5
v -0.8 1.9 0.5
v -0.9 1.9 0.4
v -0.8 1.9 0.4
v -0.9 1.9 0.3
v -0.8 1.9 0.3
v -0.7 1.9 0.3
v -0.4 1.9 0.3
v -0.3 1.9 0.3
v -0.2 1.9 0.3
v -0.8 1.9 0.2
v -0.7 1.9 0.2
v -0.4 1.9 0.2
v -0.3 1.9 0.2
v -0.3 2 0.3
v -0.2 2 0.3
v -0.6 2 0.2
v -0.5 2 0.2
v -0.3 2 0.2
v -0.2 2 0.2
v -0.6 2 0.1
v -0.5 2 0.1
v -0.8 2.1 0.9
v -0.7 2.1 0.9
v -0.6 2.1 0.9
v -0.5 2.1 0.9
v -0.4 2.1 0.9
v -0.3 2.1 0.9
v -0.9 2.1 0.8
v -0.8 2.1 0.8
v -0.7 2.1 0.8
v -0.6 2.1 0.8
v -0.5 2.1 0.8
v -0.4 2.1 0.8
v -0.3 2.1 0.8
v -0.2 2.1 0.8
v -1 2.1 0.6
v -0.9 2.1 0.6
v -0.8 2.1 0.6
v -1 2.1 0.5
v -0.9 2.1 0.5
v -0.8 2.1 0.5
v -0.3 2.1 0.5
v -0.2 2.1 0.5
v -0.2 2.1 0.4
v -0.1 2.1 0.4
v -0.2 2.1 0.3
v -0.1 2.1 0.3
v -0.9 2.2 0.9
v -0.8 2.2 0.9
v -0.9 2.2 0.8
v -0.8 2.2 0.8
v -0.9 2 0.6
v -0.8 2 0.6
v -0.3 2 0.6
v -0.2 2 0.6
v -0.9 2 0.5
v -0.8 2 0.5
v -0.3 2 0.5
v -0.2 2 0.5
v -0.3 2.1 0.3
v -0.2 2.1 0.3
v -0.3 2.1 0.2
v -0.2 2.1 0.2
v -1 2.2 0.6
v -0.9 2.2 0.6
v -1 2.2 0.5
v -0.9 2.2 0.5
v -0.2 2.2 0.4
v -0.1 2.2 0.4
v -0.2 2.2 0.3
v -0.1 2.2 0.3
v -0.6 2.2 0.2
v -0.5 2.2 0.2
v -0.6 2.2 0.1
v -0.5 2.2 0.1
v -0.9 2.3 0.9
v -0.8 2.3 0.9
v -0.7 2.3 0.9
v -0.6 2.3 0.9
v -0.5 2.3 0.9
v -0.4 2.3 0.9
v -0.3 2.3 0.9
v -0.9 2.3 0.8
v -0.8 2.3 0.8
v -0.7 2.3 0.8
v -0.6 2.3 0.8
v -0.5 2.3 0.8
v -0.4 2.3 0.8
v -0.3 2.3 0.8
v -0.2 2.3 0.8
v -0.9 2.3 0.7
v -0.8 2.3 0.7
v -0.9 2.3 0.6
v -0.8 2.3 0.6
v -0.3 2.3 0.6
v -0.2 2.3 0.6
v -0.9 2.3 0.5
v -0.8 2.3 0.5
v -0.3 2.3 0.5
v -0.2 2.3 0.5
v -0.9 2.3 0.4
v -0.8 2.3 0.4
v -0.3 2.3 0.4
v -0.2 2.3 0.4
v -0.9 2.3 0.3
v -0.8 2.3 0.3
v -0.6 2.3 0.3
v -0.4 2.3 0.3
v -0.3 2.3 0.3
v -0.8 2.3 0.2
v -0.6 2.3 0.2
v -0.4 2.3 0.2
v -0.3 2.3 0.2
v -0.8 2.4 0.9
v -0.7 2.4 0.9
v -0.6 2.4 0.9
v -0.5 2.4 0.9
v -0.7 2.4 0.8
v -0.6 2.4 0.8
v -0.5 2.4 0.8
v -0.4 2.4 0.8
v -0.3 2.4 0.8
v -0.8 2.4 0.7
v -0.7 2.4 0.7
v -0.4 2.4 0.7
v -0.3 2.4 0.7
v -0.9 2.4 0.6
v -0.8 2.4 0.6
v -0.4 2.4 0.6
v -0.3 2.4 0.6
v -0.2 2.4 0.6
v -0.9 2.4 0.5
v -0.8 2.4 0.5
v -0.7 2.4 0.5
v -0.5 2.4 0.5
v -0.4 2.4 0.5
v -0.3 2.4 0.5
v -0.2 2.4 0.5
v -0.7 2.4 0.4
v -0.6 2.4 0.4
v -0.5 2.4 0.4
v -0.4 2.4 0.4
v -0.3 2.4 0.4
v -0.2 2.4 0.4
v -0.8 2.4 0.3
v -0.6 2.4 0.3
v -0.5 2.4 0.3
v -0.4 2.4 0.3
v -0.2 2.4 0.3
v -0.6 2.4 0.2
v -0.5 2.4 0.2
v -0.4 2.4 0.2
v -0.7 2.5 0.8
v -0.6 2.5 0.8
v -0.5 2.5 0.8
v -0.4 2.5 0.8
v -0.8 2.5 0.7
v -0.7 2.5 0.7
v -0.6 2.5 0.7
v -0.5 2.5 0.7
v -0.4 2.5 0.7
v -0.3 2.5 0.7
v -0.6 2.5 0.6
v -0.5 2.5 0.6
v -0.4 2.5 0.6
v -0.3 2.5 0.6
v -0.8 2.5 0.5
v -0.7 2.5 0.5
v -0.6 2.5 0.5
v -0.5 2.5 0.5
v -0.4 2.5 0.5
v -0.3 2.5 0.5
v -0.7 2.5 0.4
v -0.6 2.5 0.4
v -0.5 2.5 0.4
v -0.4 2.5 0.4
v -0.3 2.5 0.4
v -0.6 2.5 0.3
v -0.5 2.5 0.3
v -0.6 2.6 0.8
v -0.5 2.6 0.8
v -0.6 2.6 0.7
v -0.5 2.6 0.7
v -0.6 2.6 0.6
v -0.5 2.6 0.6
v -0.6 2.6 0.5
v -0.5 2.6 0.5

# faces
f 3/5/1 2/5/1 1/5/1
f 4/5/1 2/5/1 3/5/1
f 8/6/1 6/6/1 5/6/1
f 9/6/1 6/6/1 8/6/1
f 11/6/1 8/6/1 7/6/1
f 11/6/1 10/6/1 9/6/1
f 11/6/1 9/6/1 8/6/1
f 12/6/1 10/6/1 11/6/1
f 15/6/1 10/6/1 12/6/1
f 16/6/1 10/6/1 15/6/1
f 18/3/1 14/3/1 13/3/1
f 19/3/1 14/3/1 18/3/1
f 20/3/1 14/3/1 19/3/1
f 21/5/1 16/5/1 15/5/1
f 22/5/1 16/5/1 21/5/1
f 23/5/1 16/5/1 22/5/1
f 24/6/1 18/6/1 17/6/1
f 25/3/1 19/3/1 18/3/1
f 25/6/1 18/6/1 24/6/1
f 26/6/1 20/6/1 19/6/1
f 26/3/1 19/3/1 25/3/1
f 27/5/1 21/5/1 20/5/1
f 27/6/1 20/6/1 26/6/1
f 27/5/1 22/5/1 21/5/1
f 28/5/1 22/5/1 27/5/1
f 29/6/1 23/6/1 22/6/1
f 29/5/1 22/5/1 28/5/1
f 30/6/1 23/6/1 29/6/1
f 31/5/1 28/5/1 27/5/1
f 32/5/1 28/5/1 31/5/1
f 37/1/1 34/1/1 33/1/1
f 38/1/1 34/1/1 37/1/1
f 39/1/1 36/1/1 35/1/1
f 40/1/1 36/1/1 39/1/1
f 42/1/1 37/1/1 33/1/1
f 45/1/1 42/1/1 33/1/1
f 45/1/1 43/1/1 42/1/1
f 46/1/1 43/1/1 45/1/1
f 47/1/1 43/1/1 46/1/1
f 48/6/1 41/6/1 40/6/1
f 49/6/1 41/6/1 48/6/1
f 50/2/1 45/2/1 44/2/1
f 51/2/1 45/2/1 50/2/1
f 52/5/1 49/5/1 48/5/1
f 53/5/1 49/5/1 52/5/1
f 60/6/1 53/6/1 52/6/1
f 61/6/1 53/6/1 60/6/1
f 62/6/1 55/6/1 54/6/1
f 62/6/1 56/6/1 55/6/1
f 62/6/1 57/6/1 56/6/1
f 63/6/1 57/6/1 62/6/1
f 64/6/1 57/6/1 63/6/1
f 65/6/1 59/6/1 58/6/1
f 65/6/1 60/6/1 59/6/1
f 66/6/1 60/6/1 65/6/1
f 67/5/1 64/5/1 63/5/1
f 67/5/1 65/5/1 64/5/1
f 68/5/1 65/5/1 67/5/1
f 71/5/1 70/5/1 69/5/1
f 72/5/1 70/5/1 71/5/1
f 77/6/1 74/6/1 73/6/1
f 78/6/1 74/6/1 77/6/1
f 79/6/1 76/6/1 75/6/1
f 80/6/1 76/6/1 79/6/1
f 83/6/1 82/6/1 81/6/1
f 84/6/1 82/6/1 83/6/1
f 87/5/1 86/5/1 85/5/1
f 88/5/1 86/5/1 87/5/1
f 89/6/1 88/6/1 87/6/1
f 90/6/1 88/6/1 89/6/1
f 95/6/1 92/6/1 91/6/1
f 96/6/1 92/6/1 95/6/1
f 98/6/1 94/6/1 93/6/1
f 99/6/1 94/6/1 98/6/1
f 104/5/1 98/5/1 97/5/1
f 105/5/1 98/5/1 104/5/1
f 106/5/1 101/5/1 100/5/1
f 107/5/1 101/5/1 106/5/1
f 108/6/1 103/6/1 102/6/1
f 109/6/1 103/6/1 108/6/1
f 112/6/1 111/6/1 110/6/1
f 113/6/1 111/6/1 112/6/1
f 114/6/2 115/6/2 116/6/2
f 116/6/2 115/6/2 117/6/2
f 118/6/2 119/6/2 120/6/2
f 120/6/2 119/6/2 121/6/2
f 122/5/2 123/5/2 124/5/2
f 124/5/2 123/5/2 125/5/2
f 124/6/2 125/6/2 126/6/2
f 126/6/2 125/6/2 127/6/2
f 128/6/2 129/6/2 130/6/2
f 130/6/2 129/6/2 131/6/2
f 132/6/2 133/6/2 138/6/2
f 133/5/2 134/5/2 139/5/2
f 138/6/2 133/6/2 139/6/2
f 139/5/2 134/5/2 140/5/2
f 135/5/2 136/5/2 141/5/2
f 141/5/2 136/5/2 142/5/2
f 137/6/2 138/6/2 143/6/2
f 143/6/2 138/6/2 144/6/2
f 145/6/2 146/6/2 147/6/2
f 147/6/2 146/6/2 148/6/2
f 149/5/2 150/5/2 155/5/2
f 155/5/2 150/5/2 156/5/2
f 151/5/2 152/5/2 157/5/2
f 157/5/2 152/5/2 158/5/2
f 153/6/2 154/6/2 159/6/2
f 159/6/2 154/6/2 160/6/2
f 161/1/2 162/1/2 163/1/2
f 163/1/2 162/1/2 164/1/2
f 161/1/2 163/1/2 166/1/2
f 164/6/2 165/6/2 168/6/2
f 168/6/2 165/6/2 169/6/2
f 166/1/2 167/1/2 171/1/2
f 161/1/2 166/1/2 171/1/2
f 171/1/2 167/1/2 172/1/2
f 170/8/2 171/8/2 175/8/2
f 175/8/2 171/8/2 176/8/2
f 175/9/2 176/9/2 177/9/2
f 177/9/2 176/9/2 178/9/2
f 173/5/2 174/5/2 182/5/2
f 182/5/2 174/5/2 183/5/2
f 178/6/2 179/6/2 184/6/2
f 184/6/2 179/6/2 185/6/2
f 185/6/2 179/6/2 186/6/2
f 180/5/2 181/5/2 187/5/2
f 187/5/2 181/5/2 188/5/2
f 185/5/2 186/5/2 189/5/2
f 189/5/2 186/5/2 190/5/2
f 187/6/2 188/6/2 191/6/2
f 191/6/2 188/6/2 192/6/2
f 193/6/2 194/6/2 195/6/2
f 195/6/2 194/6/2 196/6/2
f 196/6/2 194/6/2 197/6/2
f 197/6/2 198/6/2 200/6/2
f 196/6/2 197/6/2 200/6/2
f 200/6/2 198/6/2 201/6/2
f 201/6/2 198/6/2 202/6/2
f 202/6/2 198/6/2 203/6/2
f 199/3/2 200/3/2 204/3/2
f 200/3/2 201/3/2 204/3/2
f 204/3/2 201/3/2 205/3/2
f 205/3/2 201/3/2 206/3/2
f 199/3/2 204/3/2 208/3/2
f 204/6/2 205/6/2 209/6/2
f 208/3/2 204/3/2 209/3/2
f 205/5/2 206/5/2 210/5/2
f 209/6/2 205/6/2 210/6/2
f 206/6/2 207/6/2 211/6/2
f 210/5/2 206/5/2 211/5/2
f 209/5/2 210/5/2 212/5/2
f 212/5/2 210/5/2 213/5/2
f 211/6/2 207/6/2 214/6/2
f 214/6/2 207/6/2 215/6/2
f 216/6/2 217/6/2 218/6/2
f 218/6/2 217/6/2 219/6/2
f 223/6/3 221/6/3 220/6/3
f 224/6/3 221/6/3 223/6/3
f 226/2/3 223/2/3 222/2/3
f 227/8/3 224/8/3 223/8/3
f 227/2/3 223/2/3 226/2/3
f 228/6/3 225/6/3 224/6/3
f 228/8/3 224/8/3 227/8/3
f 229/6/3 225/6/3 228/6/3
f 230/8/3 227/8/3 226/8/3
f 231/9/3 228/9/3 227/9/3
f 231/8/3 227/8/3 230/8/3
f 232/9/3 228/9/3 231/9/3
f 234/3/3 231/3/3 230/3/3
f 234/3/3 232/3/3 231/3/3
f 235/3/3 232/3/3 234/3/3
f 236/6/3 233/6/3 232/6/3
f 236/3/3 232/3/3 235/3/3
f 237/6/3 233/6/3 236/6/3
f 238/2/3 235/2/3 234/2/3
f 239/8/3 236/8/3 235/8/3
f 239/2/3 235/2/3 238/2/3
f 240/8/3 236/8/3 239/8/3
f 241/8/3 239/8/3 238/8/3
f 242/9/3 240/9/3 239/9/3
f 242/8/3 239/8/3 241/8/3
f 243/9/3 240/9/3 242/9/3
f 247/3/3 245/3/3 244/3/3
f 248/3/3 245/3/3 247/3/3
f 249/1/3 247/1/3 246/1/3
f 250/1/3 247/1/3 249/1/3
f 251/1/3 247/1/3 250/1/3
f 256/1/3 249/1/3 246/1/3
f 257/4/3 250/4/3 249/4/3
f 257/1/3 249/1/3 256/1/3
f 258/7/3 251/7/3 250/7/3
f 258/4/3 250/4/3 257/4/3
f 259/7/3 251/7/3 258/7/3
f 260/6/3 254/6/3 253/6/3
f 260/6/3 253/6/3 252/6/3
f 261/6/3 254/6/3 260/6/3
f 262/6/3 254/6/3 261/6/3
f 264/6/3 256/6/3 255/6/3
f 265/1/3 257/1/3 256/1/3
f 265/6/3 256/6/3 264/6/3
f 265/1/3 259/1/3 258/1/3
f 265/1/3 258/1/3 257/1/3
f 266/1/3 259/1/3 265/1/3
f 267/1/3 259/1/3 266/1/3
f 268/1/3 259/1/3 267/1/3
f 270/6/3 262/6/3 261/6/3
f 271/5/3 263/5/3 262/5/3
f 271/6/3 262/6/3 270/6/3
f 272/5/3 263/5/3 271/5/3
f 273/1/3 266/1/3 265/1/3
f 273/4/3 267/4/3 266/4/3
f 274/7/3 268/7/3 267/7/3
f 274/4/3 267/4/3 273/4/3
f 275/7/3 268/7/3 274/7/3
f 276/6/3 270/6/3 269/6/3
f 277/5/3 271/5/3 270/5/3
f 277/6/3 270/6/3 276/6/3
f 278/5/3 271/5/3 277/5/3
f 279/1/3 273/1/3 265/1/3
f 279/1/3 275/1/3 274/1/3
f 279/1/3 274/1/3 273/1/3
f 280/1/3 275/1/3 279/1/3
f 282/6/3 277/6/3 276/6/3
f 283/6/3 277/6/3 282/6/3
f 284/3/3 281/3/3 280/3/3
f 284/3/3 282/3/3 281/3/3
f 285/3/3 282/3/3 284/3/3
f 288/5/3 287/5/3 286/5/3
f 289/5/3 287/5/3 288/5/3
f 292/5/3 291/5/3 290/5/3
f 293/5/3 291/5/3 292/5/3
f 298/5/3 295/5/3 294/5/3
f 299/5/3 295/5/3 298/5/3
f 302/6/3 297/6/3 296/6/3
f 303/6/3 297/6/3 302/6/3
f 304/5/3 301/5/3 300/5/3
f 305/5/3 301/5/3 304/5/3
f 308/6/3 307/6/3 306/6/3
f 309/6/3 307/6/3 308/6/3
f 314/6/3 311/6/3 310/6/3
f 315/6/3 311/6/3 314/6/3
f 316/5/3 313/5/3 312/5/3
f 317/5/3 313/5/3 316/5/3
f 322/6/3 319/6/3 318/6/3
f 323/6/3 319/6/3 322/6/3
f 324/6/3 321/6/3 320/6/3
f 325/6/3 321/6/3 324/6/3
f 330/6/3 327/6/3 326/6/3
f 331/6/3 327/6/3 330/6/3
f 332/6/3 329/6/3 328/6/3
f 333/6/3 329/6/3 332/6/3
f 338/6/3 335/6/3 334/6/3
f 339/6/3 335/6/3 338/6/3
f 340/6/3 337/6/3 336/6/3
f 341/6/3 337/6/3 340/6/3
f 342/6/4 343/6/4 346/6/4
f 346/6/4 343/6/4 347/6/4
f 344/5/4 345/5/4 348/5/4
f 348/5/4 345/5/4 349/5/4
f 350/5/4 351/5/4 352/5/4
f 352/5/4 351/5/4 353/5/4
f 354/5/4 355/5/4 356/5/4
f 356/5/4 355/5/4 357/5/4
f 358/5/4 359/5/4 360/5/4
f 360/5/4 359/5/4 361/5/4
f 361/5/4 362/5/4 363/5/4
f 363/5/4 362/5/4 364/5/4
f 365/6/4 366/6/4 368/6/4
f 368/6/4 366/6/4 369/6/4
f 367/6/4 368/6/4 370/6/4
f 370/6/4 368/6/4 371/6/4
f 372/5/4 373/5/4 374/5/4
f 374/5/4 373/5/4 375/5/4
f 376/6/4 377/6/4 378/6/4
f 378/6/4 377/6/4 379/6/4
f 380/6/4 381/6/4 382/6/4
f 382/6/4 381/6/4 383/6/4
f 384/6/4 385/6/4 386/6/4
f 386/6/4 385/6/4 387/6/4
f 388/6/4 389/6/4 393/6/4
f 389/5/4 390/5/4 394/5/4
f 393/6/4 389/6/4 394/6/4
f 390/6/4 391/6/4 395/6/4
f 394/5/4 390/5/4 395/5/4
f 395/6/4 391/6/4 396/6/4
f 392/1/4 393/1/4 398/1/4
f 398/1/4 393/1/4 399/1/4
f 396/6/4 397/6/4 400/6/4
f 400/6/4 397/6/4 401/6/4
f 401/5/4 402/5/4 403/5/4
f 403/5/4 402/5/4 404/5/4
f 405/1/4 406/1/4 409/1/4
f 409/1/4 406/1/4 410/1/4
f 407/6/4 408/6/4 413/6/4
f 410/6/4 411/6/4 414/6/4
f 414/6/4 411/6/4 415/6/4
f 412/6/4 413/6/4 416/6/4
f 416/6/4 413/6/4 417/6/4
f 413/6/4 408/6/4 418/6/4
f 417/6/4 413/6/4 418/6/4
f 416/6/4 417/6/4 419/6/4
f 419/6/4 417/6/4 420/6/4
f 421/6/4 422/6/4 426/6/4
f 426/6/4 422/6/4 427/6/4
f 422/5/4 423/5/4 428/5/4
f 427/6/4 422/6/4 428/6/4
f 426/6/4 427/6/4 429/6/4
f 425/5/4 426/5/4 429/5/4
f 427/5/4 428/5/4 430/5/4
f 429/6/4 427/6/4 430/6/4
f 428/5/4 423/5/4 431/5/4
f 430/5/4 428/5/4 431/5/4
f 423/6/4 424/6/4 432/6/4
f 431/5/4 423/5/4 432/5/4
f 432/6/4 424/6/4 433/6/4
f 429/5/4 430/5/4 435/5/4
f 425/5/4 429/5/4 435/5/4
f 435/5/4 430/5/4 436/5/4
f 433/6/4 434/6/4 438/6/4
f 432/6/4 433/6/4 438/6/4
f 438/6/4 434/6/4 439/6/4
f 439/6/4 434/6/4 440/6/4
f 436/6/4 437/6/4 441/6/4
f 435/6/4 436/6/4 441/6/4
f 437/6/4 438/6/4 441/6/4
f 438/6/4 439/6/4 441/6/4
f 441/6/4 439/6/4 442/6/4
f 442/6/4 439/6/4 443/6/4
f 439/5/4 440/5/4 444/5/4
f 443/6/4 439/6/4 444/6/4
f 444/5/4 440/5/4 445/5/4
f 442/6/4 443/6/4 446/6/4
f 443/5/4 444/5/4 447/5/4
f 446/6/4 443/6/4 447/6/4
f 447/5/4 444/5/4 448/5/4
f 448/5/4 444/5/4 449/5/4
f 447/6/4 448/6/4 450/6/4
f 450/6/4 448/6/4 451/6/4
f 452/5/4 453/5/4 455/5/4
f 453/6/4 454/6/4 456/6/4
f 455/5/4 453/5/4 456/5/4
f 456/6/4 454/6/4 457/6/4
f 460/6/5 459/6/5 458/6/5
f 461/6/5 459/6/5 460/6/5
f 466/1/5 463/1/5 462/1/5
f 467/1/5 465/1/5 464/1/5
f 469/1/5 466/1/5 462/1/5
f 469/1/5 467/1/5 466/1/5
f 470/6/5 469/6/5 468/6/5
f 471/1/5 467/1/5 469/1/5
f 471/6/5 469/6/5 470/6/5
f 472/1/5 467/1/5 471/1/5
f 473/1/5 467/1/5 472/1/5
f 474/1/5 465/1/5 467/1/5
f 474/1/5 467/1/5 473/1/5
f 475/1/5 465/1/5 474/1/5
f 476/1/5 465/1/5 475/1/5
f 477/5/5 474/5/5 473/5/5
f 478/6/5 475/6/5 474/6/5
f 478/5/5 474/5/5 477/5/5
f 479/6/5 475/6/5 478/6/5
f 484/6/5 481/6/5 480/6/5
f 485/6/5 481/6/5 484/6/5
f 488/6/5 487/6/5 486/6/5
f 489/6/5 487/6/5 488/6/5
f 492/6/5 483/6/5 482/6/5
f 493/6/5 483/6/5 492/6/5
f 494/6/5 490/6/5 489/6/5
f 495/6/5 490/6/5 494/6/5
f 496/6/5 492/6/5 491/6/5
f 497/6/5 492/6/5 496/6/5
f 502/6/5 499/6/5 498/6/5
f 503/6/5 499/6/5 502/6/5
f 504/5/5 501/5/5 500/5/5
f 505/5/5 501/5/5 504/5/5
f 513/2/5 507/2/5 506/2/5
f 514/8/5 508/8/5 507/8/5
f 514/2/5 507/2/5 513/2/5
f 515/3/5 509/3/5 508/3/5
f 515/8/5 508/8/5 514/8/5
f 516/2/5 510/2/5 509/2/5
f 516/3/5 509/3/5 515/3/5
f 517/8/5 511/8/5 510/8/5
f 517/2/5 510/2/5 516/2/5
f 518/8/5 511/8/5 517/8/5
f 521/3/5 513/3/5 512/3/5
f 522/3/5 513/3/5 521/3/5
f 523/5/5 521/5/5 520/5/5
f 524/6/5 522/6/5 521/6/5
f 524/5/5 521/5/5 523/5/5
f 525/6/5 522/6/5 524/6/5
f 526/3/5 519/3/5 518/3/5
f 527/3/5 519/3/5 526/3/5
f 530/6/5 529/6/5 528/6/5
f 531/6/5 529/6/5 530/6/5
f 534/6/5 533/6/5 532/6/5
f 535/6/5 533/6/5 534/6/5
f 536/6/6 537/6/6 540/6/6
f 540/6/6 537/6/6 541/6/6
f 538/6/6 539/6/6 542/6/6
f 542/6/6 539/6/6 543/6/6
f 544/6/6 545/6/6 546/6/6
f 546/6/6 545/6/6 547/6/6
f 548/5/6 549/5/6 550/5/6
f 550/5/6 549/5/6 551/5/6
f 552/6/6 553/6/6 554/6/6
f 554/6/6 553/6/6 555/6/6
f 556/6/6 557/6/6 558/6/6
f 558/6/6 557/6/6 559/6/6
f 560/6/6 561/6/6 567/6/6
f 567/6/6 561/6/6 568/6/6
f 562/9/6 563/9/6 569/9/6
f 569/9/6 563/9/6 570/9/6
f 564/8/6 565/8/6 571/8/6
f 565/9/6 566/9/6 572/9/6
f 571/8/6 565/8/6 572/8/6
f 572/9/6 566/9/6 573/9/6
f 567/3/6 568/3/6 575/3/6
f 575/3/6 568/3/6 576/3/6
f 575/6/6 576/6/6 577/6/6
f 577/6/6 576/6/6 578/6/6
f 573/3/6 574/3/6 579/3/6
f 579/3/6 574/3/6 580/3/6
f 581/5/6 582/5/6 585/5/6
f 585/5/6 582/5/6 586/5/6
f 583/5/6 584/5/6 587/5/6
f 587/5/6 584/5/6 588/5/6
f 585/6/6 586/6/6 589/6/6
f 589/6/6 586/6/6 590/6/6
f 590/6/6 591/6/6 594/6/6
f 594/6/6 591/6/6 595/6/6
f 592/5/6 593/5/6 596/5/6
f 596/5/6 593/5/6 597/5/6
f 598/6/6 599/6/6 602/6/6
f 600/6/6 601/6/6 603/6/6
f 603/6/6 601/6/6 604/6/6
f 598/6/6 602/6/6 607/6/6
f 607/6/6 602/6/6 608/6/6
f 605/6/6 606/6/6 609/6/6
f 609/6/6 606/6/6 610/6/6
f 611/5/6 612/5/6 616/5/6
f 616/5/6 612/5/6 617/5/6
f 613/5/6 614/5/6 620/5/6
f 614/5/6 615/5/6 620/5/6
f 620/5/6 615/5/6 621/5/6
f 621/5/6 615/5/6 622/5/6
f 617/6/6 618/6/6 623/6/6
f 619/6/6 620/6/6 625/6/6
f 625/6/6 620/6/6 626/6/6
f 623/6/6 624/6/6 629/6/6
f 617/6/6 623/6/6 629/6/6
f 629/6/6 624/6/6 630/6/6
f 625/5/6 626/5/6 631/5/6
f 627/6/6 628/6/6 632/6/6
f 626/6/6 627/6/6 632/6/6
f 631/5/6 626/5/6 632/5/6
f 632/6/6 628/6/6 633/6/6
f 630/6/6 631/6/6 634/6/6
f 631/5/6 632/5/6 635/5/6
f 634/6/6 631/6/6 635/6/6
f 635/5/6 632/5/6 636/5/6
f 637/6/6 638/6/6 642/6/6
f 642/6/6 638/6/6 643/6/6
f 639/5/6 640/5/6 644/5/6
f 644/5/6 640/5/6 645/5/6
f 642/6/6 643/6/6 647/6/6
f 643/6/6 644/6/6 647/6/6
f 644/6/6 645/6/6 647/6/6
f 647/6/6 645/6/6 648/6/6
f 645/5/6 646/5/6 649/5/6
f 648/6/6 645/6/6 649/6/6
f 649/5/6 646/5/6 650/5/6
f 641/5/6 642/5/6 651/5/6
f 642/6/6 647/6/6 652/6/6
f 651/5/6 642/5/6 652/5/6
f 652/6/6 647/6/6 653/6/6
f 648/6/6 649/6/6 654/6/6
f 654/6/6 649/6/6 655/6/6
f 652/6/6 653/6/6 657/6/6
f 653/6/6 654/6/6 657/6/6
f 657/6/6 654/6/6 658/6/6
f 658/6/6 654/6/6 659/6/6
f 655/6/6 656/6/6 660/6/6
f 660/6/6 656/6/6 661/6/6
f 658/5/6 659/5/6 662/5/6
f 662/5/6 659/5/6 663/5/6
f 664/5/6 665/5/6 666/5/6
f 666/5/6 665/5/6 667/5/6
f 668/6/6 669/6/6 670/6/6
f 670/6/6 669/6/6 671/6/6
