# MagicaVoxel @ Ephtracy

# group
o 

# material
mtllib Head.mtl
usemtl palette

# normals
vn -1 0 0
vn 1 0 0
vn 0 0 1
vn 0 0 -1
vn 0 -1 0
vn 0 1 0

# texcoords
vt 0.369141 0.5
vt 0.537109 0.5
vt 0.701172 0.5
vt 0.873047 0.5
vt 0.958984 0.5
vt 0.978516 0.5
vt 0.986328 0.5
vt 0.994141 0.5

# verts
v -0.5 2.6 0.1
v -0.5 2.6 -0.2
v -0.5 2.7 0.2
v -0.5 2.7 0.1
v -0.5 2.8 0.3
v -0.5 2.8 0.2
v -0.5 3 0.3
v -0.5 3 -0.2
v -0.4 2.5 0.3
v -0.4 2.5 0.1
v -0.4 2.5 -0.2
v -0.4 2.6 0.1
v -0.4 2.6 -0.2
v -0.4 2.6 -0.3
v -0.4 2.7 0.3
v -0.4 2.7 0.2
v -0.4 2.7 0.1
v -0.4 2.8 0.3
v -0.4 2.8 0.2
v -0.4 2.9 0.4
v -0.4 2.9 0.3
v -0.4 3 0.4
v -0.4 3 0.3
v -0.4 3 -0.2
v -0.4 3 -0.3
v -0.4 3.1 0.3
v -0.4 3.1 -0.2
v -0.3 2.5 -0.2
v -0.3 2.5 -0.3
v -0.3 2.6 -0.2
v -0.3 2.6 -0.3
v -0.3 3.1 -0.2
v -0.3 3.1 -0.4
v -0.3 3.3 -0.2
v -0.3 3.3 -0.4
v -0.2 3 -0.2
v -0.2 3 -0.3
v -0.2 3 -0.4
v -0.2 3.1 -0.1
v -0.2 3.1 -0.2
v -0.2 3.1 -0.3
v -0.2 3.1 -0.4
v -0.2 3.1 -0.5
v -0.2 3.2 -0.1
v -0.2 3.2 -0.2
v -0.2 3.3 -0.3
v -0.2 3.3 -0.4
v -0.2 3.3 -0.5
v -0.2 3.4 -0.3
v -0.2 3.4 -0.4
v -0.1 2.9 0.4
v -0.1 2.9 0.3
v -0.1 3 0.4
v -0.1 3 0.3
v 0 2.8 0.4
v 0 2.8 0.3
v 0 2.9 0.4
v 0 2.9 0.3
v -0.3 2.9 0.4
v -0.3 2.9 0.3
v -0.3 3 0.4
v -0.3 3 0.3
v -0.1 3 -0.2
v -0.1 3 -0.3
v -0.1 3 -0.4
v -0.1 3.1 -0.1
v -0.1 3.1 -0.2
v -0.1 3.1 -0.3
v -0.1 3.1 -0.4
v -0.1 3.1 -0.5
v -0.1 3.2 -0.1
v -0.1 3.2 -0.2
v -0.1 3.3 -0.3
v -0.1 3.3 -0.4
v -0.1 3.3 -0.5
v -0.1 3.4 -0.3
v -0.1 3.4 -0.4
v 0 2.5 -0.2
v 0 2.5 -0.3
v 0 2.6 -0.2
v 0 2.6 -0.3
v 0 3.1 -0.2
v 0 3.1 -0.4
v 0 3.3 -0.2
v 0 3.3 -0.4
v 0.1 2.5 0.3
v 0.1 2.5 0.1
v 0.1 2.5 -0.2
v 0.1 2.6 0.1
v 0.1 2.6 -0.1
v 0.1 2.6 -0.2
v 0.1 2.6 -0.3
v 0.1 2.7 0.3
v 0.1 2.7 0.2
v 0.1 2.7 0.1
v 0.1 2.7 0
v 0.1 2.7 -0.1
v 0.1 2.8 0.4
v 0.1 2.8 0.3
v 0.1 2.8 0.2
v 0.1 2.8 0.1
v 0.1 2.9 0.4
v 0.1 2.9 0.3
v 0.1 2.9 0.2
v 0.1 3 0.4
v 0.1 3 0.3
v 0.1 3 0.2
v 0.1 3 0.1
v 0.1 3 0
v 0.1 3 -0.2
v 0.1 3 -0.3
v 0.1 3.1 0.3
v 0.1 3.1 0.2
v 0.1 3.1 0.1
v 0.1 3.1 -0.2
v 0.2 2.6 -0.1
v 0.2 2.6 -0.2
v 0.2 2.7 0.1
v 0.2 2.7 0
v 0.2 2.7 -0.1
v 0.2 2.8 0.2
v 0.2 2.8 0.1
v 0.2 2.8 0
v 0.2 2.9 0.3
v 0.2 2.9 0.2
v 0.2 2.9 0.1
v 0.2 2.9 0
v 0.2 3 0.3
v 0.2 3 0.2
v 0.2 3 0
v 0.2 3 -0.2
v -0.4 2.9 0.4
v -0.4 3 0.4
v -0.3 2.9 0.4
v -0.3 3 0.4
v -0.1 2.9 0.4
v -0.1 3 0.4
v 0 2.8 0.4
v 0 2.9 0.4
v 0 3 0.4
v 0.1 2.8 0.4
v 0.1 2.9 0.4
v 0.1 3 0.4
v -0.5 2.8 0.3
v -0.5 3 0.3
v -0.4 2.5 0.3
v -0.4 2.7 0.3
v -0.4 2.8 0.3
v -0.4 2.9 0.3
v -0.4 3 0.3
v -0.4 3.1 0.3
v -0.3 2.7 0.3
v -0.3 2.8 0.3
v -0.3 2.9 0.3
v -0.3 3 0.3
v -0.3 3.1 0.3
v -0.2 2.7 0.3
v -0.2 2.8 0.3
v -0.2 2.9 0.3
v -0.2 3 0.3
v -0.2 3.1 0.3
v -0.1 2.7 0.3
v -0.1 2.8 0.3
v -0.1 2.9 0.3
v -0.1 3 0.3
v 0 2.7 0.3
v 0 2.8 0.3
v 0 2.9 0.3
v 0 3 0.3
v 0.1 2.5 0.3
v 0.1 2.7 0.3
v 0.1 2.8 0.3
v 0.1 2.9 0.3
v 0.1 3 0.3
v 0.1 3.1 0.3
v 0.2 2.9 0.3
v 0.2 3 0.3
v -0.5 2.7 0.2
v -0.5 2.8 0.2
v -0.4 2.7 0.2
v -0.4 2.8 0.2
v 0.1 2.8 0.2
v 0.1 2.9 0.2
v 0.2 2.8 0.2
v 0.2 2.9 0.2
v -0.5 2.6 0.1
v -0.5 2.7 0.1
v -0.4 2.6 0.1
v -0.4 2.7 0.1
v 0.1 2.7 0.1
v 0.1 2.8 0.1
v 0.2 2.7 0.1
v 0.2 2.8 0.1
v -0.2 3.1 -0.1
v -0.2 3.2 -0.1
v -0.1 3.1 -0.1
v -0.1 3.2 -0.1
v 0.1 2.6 -0.1
v 0.1 2.7 -0.1
v 0.2 2.6 -0.1
v 0.2 2.7 -0.1
v -0.3 3.1 -0.2
v -0.3 3.3 -0.2
v -0.2 3.1 -0.2
v -0.2 3.2 -0.2
v -0.1 3.1 -0.2
v -0.1 3.2 -0.2
v 0 3.1 -0.2
v 0 3.3 -0.2
v -0.2 3.3 -0.3
v -0.2 3.4 -0.3
v -0.1 3.3 -0.3
v -0.1 3.4 -0.3
v -0.5 2.6 -0.2
v -0.5 3 -0.2
v -0.4 2.5 -0.2
v -0.4 2.6 -0.2
v -0.4 3 -0.2
v -0.4 3.1 -0.2
v -0.3 2.5 -0.2
v -0.3 2.6 -0.2
v -0.3 3.1 -0.2
v -0.2 3 -0.2
v -0.2 3.1 -0.2
v -0.1 3 -0.2
v -0.1 3.1 -0.2
v 0 2.5 -0.2
v 0 2.6 -0.2
v 0 3.1 -0.2
v 0.1 2.5 -0.2
v 0.1 2.6 -0.2
v 0.1 3 -0.2
v 0.1 3.1 -0.2
v 0.2 2.6 -0.2
v 0.2 3 -0.2
v -0.4 2.6 -0.3
v -0.4 3 -0.3
v -0.3 2.5 -0.3
v -0.3 2.6 -0.3
v -0.2 3 -0.3
v -0.1 3 -0.3
v 0 2.5 -0.3
v 0 2.6 -0.3
v 0.1 2.6 -0.3
v 0.1 3 -0.3
v -0.3 3.1 -0.4
v -0.3 3.3 -0.4
v -0.2 3 -0.4
v -0.2 3.1 -0.4
v -0.2 3.3 -0.4
v -0.2 3.4 -0.4
v -0.1 3 -0.4
v -0.1 3.1 -0.4
v -0.1 3.3 -0.4
v -0.1 3.4 -0.4
v 0 3.1 -0.4
v 0 3.3 -0.4
v -0.2 3.1 -0.5
v -0.2 3.3 -0.5
v -0.1 3.1 -0.5
v -0.1 3.3 -0.5
v -0.4 2.5 0.3
v 0.1 2.5 0.3
v -0.4 2.5 0.1
v 0.1 2.5 0.1
v -0.4 2.5 -0.2
v -0.3 2.5 -0.2
v 0 2.5 -0.2
v 0.1 2.5 -0.2
v -0.3 2.5 -0.3
v 0 2.5 -0.3
v -0.5 2.6 0.1
v -0.4 2.6 0.1
v 0.1 2.6 -0.1
v 0.2 2.6 -0.1
v -0.5 2.6 -0.2
v -0.4 2.6 -0.2
v -0.3 2.6 -0.2
v 0 2.6 -0.2
v 0.1 2.6 -0.2
v 0.2 2.6 -0.2
v -0.4 2.6 -0.3
v -0.3 2.6 -0.3
v 0 2.6 -0.3
v 0.1 2.6 -0.3
v -0.5 2.7 0.2
v -0.4 2.7 0.2
v -0.5 2.7 0.1
v -0.4 2.7 0.1
v 0.1 2.7 0.1
v 0.2 2.7 0.1
v 0.1 2.7 0
v 0.2 2.7 0
v 0.1 2.7 -0.1
v 0.2 2.7 -0.1
v 0 2.8 0.4
v 0.1 2.8 0.4
v -0.5 2.8 0.3
v -0.4 2.8 0.3
v 0 2.8 0.3
v 0.1 2.8 0.3
v -0.5 2.8 0.2
v -0.4 2.8 0.2
v 0.1 2.8 0.2
v 0.2 2.8 0.2
v 0.1 2.8 0.1
v 0.2 2.8 0.1
v -0.4 2.9 0.4
v -0.3 2.9 0.4
v -0.1 2.9 0.4
v 0 2.9 0.4
v -0.4 2.9 0.3
v -0.3 2.9 0.3
v -0.1 2.9 0.3
v 0 2.9 0.3
v 0.1 2.9 0.3
v 0.2 2.9 0.3
v 0.1 2.9 0.2
v 0.2 2.9 0.2
v -0.2 3 -0.3
v -0.1 3 -0.3
v -0.2 3 -0.4
v -0.1 3 -0.4
v -0.3 3.1 -0.2
v -0.2 3.1 -0.2
v -0.1 3.1 -0.2
v 0 3.1 -0.2
v -0.2 3.1 -0.3
v -0.1 3.1 -0.3
v -0.3 3.1 -0.4
v -0.2 3.1 -0.4
v -0.1 3.1 -0.4
v 0 3.1 -0.4
v -0.2 3.1 -0.5
v -0.1 3.1 -0.5
v -0.4 3 0.4
v -0.3 3 0.4
v -0.1 3 0.4
v 0 3 0.4
v 0.1 3 0.4
v -0.5 3 0.3
v -0.4 3 0.3
v -0.3 3 0.3
v -0.1 3 0.3
v 0 3 0.3
v 0.1 3 0.3
v 0.2 3 0.3
v 0.1 3 0.2
v 0.2 3 0.2
v 0.1 3 0.1
v 0.1 3 0
v 0.2 3 0
v -0.5 3 -0.2
v -0.4 3 -0.2
v -0.2 3 -0.2
v -0.1 3 -0.2
v 0.1 3 -0.2
v 0.2 3 -0.2
v -0.4 3 -0.3
v -0.2 3 -0.3
v -0.1 3 -0.3
v 0.1 3 -0.3
v -0.4 3.1 0.3
v -0.3 3.1 0.3
v -0.2 3.1 0.3
v 0.1 3.1 0.3
v -0.3 3.1 0.2
v -0.2 3.1 0.2
v -0.1 3.1 0.2
v 0 3.1 0.2
v 0.1 3.1 0.2
v -0.2 3.1 0.1
v -0.1 3.1 0.1
v 0 3.1 0.1
v 0.1 3.1 0.1
v -0.1 3.1 0
v 0 3.1 0
v -0.2 3.1 -0.1
v -0.1 3.1 -0.1
v -0.4 3.1 -0.2
v -0.3 3.1 -0.2
v -0.2 3.1 -0.2
v -0.1 3.1 -0.2
v 0 3.1 -0.2
v 0.1 3.1 -0.2
v -0.2 3.2 -0.1
v -0.1 3.2 -0.1
v -0.2 3.2 -0.2
v -0.1 3.2 -0.2
v -0.3 3.3 -0.2
v 0 3.3 -0.2
v -0.2 3.3 -0.3
v -0.1 3.3 -0.3
v -0.3 3.3 -0.4
v -0.2 3.3 -0.4
v -0.1 3.3 -0.4
v 0 3.3 -0.4
v -0.2 3.3 -0.5
v -0.1 3.3 -0.5
v -0.2 3.4 -0.3
v -0.1 3.4 -0.3
v -0.2 3.4 -0.4
v -0.1 3.4 -0.4

# faces
f 4/4/1 2/4/1 1/4/1
f 6/4/1 4/4/1 3/4/1
f 7/4/1 6/4/1 5/4/1
f 8/4/1 2/4/1 4/4/1
f 8/4/1 6/4/1 7/4/1
f 8/4/1 4/4/1 6/4/1
f 12/4/1 10/4/1 9/4/1
f 12/1/1 11/1/1 10/1/1
f 13/1/1 11/1/1 12/1/1
f 15/4/1 12/4/1 9/4/1
f 16/4/1 12/4/1 15/4/1
f 17/4/1 12/4/1 16/4/1
f 18/1/1 16/1/1 15/1/1
f 19/1/1 16/1/1 18/1/1
f 22/4/1 21/4/1 20/4/1
f 23/4/1 21/4/1 22/4/1
f 24/4/1 14/4/1 13/4/1
f 25/4/1 14/4/1 24/4/1
f 26/4/1 24/4/1 23/4/1
f 27/4/1 24/4/1 26/4/1
f 30/4/1 29/4/1 28/4/1
f 31/4/1 29/4/1 30/4/1
f 34/4/1 33/4/1 32/4/1
f 35/4/1 33/4/1 34/4/1
f 40/8/1 37/8/1 36/8/1
f 41/4/1 38/4/1 37/4/1
f 41/8/1 37/8/1 40/8/1
f 42/4/1 38/4/1 41/4/1
f 44/8/1 40/8/1 39/8/1
f 45/8/1 40/8/1 44/8/1
f 47/4/1 43/4/1 42/4/1
f 48/4/1 43/4/1 47/4/1
f 49/4/1 47/4/1 46/4/1
f 50/4/1 47/4/1 49/4/1
f 53/6/1 52/6/1 51/6/1
f 54/6/1 52/6/1 53/6/1
f 57/6/1 56/6/1 55/6/1
f 58/6/1 56/6/1 57/6/1
f 59/4/2 60/4/2 61/4/2
f 61/4/2 60/4/2 62/4/2
f 63/8/2 64/8/2 67/8/2
f 64/4/2 65/4/2 68/4/2
f 67/8/2 64/8/2 68/8/2
f 68/4/2 65/4/2 69/4/2
f 66/8/2 67/8/2 71/8/2
f 71/8/2 67/8/2 72/8/2
f 69/4/2 70/4/2 74/4/2
f 74/4/2 70/4/2 75/4/2
f 73/4/2 74/4/2 76/4/2
f 76/4/2 74/4/2 77/4/2
f 78/4/2 79/4/2 80/4/2
f 80/4/2 79/4/2 81/4/2
f 82/4/2 83/4/2 84/4/2
f 84/4/2 83/4/2 85/4/2
f 86/4/2 87/4/2 89/4/2
f 87/1/2 88/1/2 89/1/2
f 89/1/2 88/1/2 90/1/2
f 90/1/2 88/1/2 91/1/2
f 86/4/2 89/4/2 93/4/2
f 89/4/2 90/4/2 93/4/2
f 93/4/2 90/4/2 94/4/2
f 94/4/2 90/4/2 95/4/2
f 95/4/2 90/4/2 96/4/2
f 96/4/2 90/4/2 97/4/2
f 93/1/2 94/1/2 99/1/2
f 94/4/2 95/4/2 100/4/2
f 99/1/2 94/1/2 100/1/2
f 100/4/2 95/4/2 101/4/2
f 98/6/2 99/6/2 102/6/2
f 99/1/2 100/1/2 103/1/2
f 102/6/2 99/6/2 103/6/2
f 103/1/2 100/1/2 104/1/2
f 102/7/2 103/7/2 105/7/2
f 105/7/2 103/7/2 106/7/2
f 91/4/2 92/4/2 110/4/2
f 110/4/2 92/4/2 111/4/2
f 106/6/2 107/6/2 112/6/2
f 107/7/2 108/7/2 113/7/2
f 112/6/2 107/6/2 113/6/2
f 108/4/2 109/4/2 114/4/2
f 113/7/2 108/7/2 114/7/2
f 109/4/2 110/4/2 114/4/2
f 114/4/2 110/4/2 115/4/2
f 116/4/2 117/4/2 120/4/2
f 118/6/2 119/6/2 122/6/2
f 119/4/2 120/4/2 123/4/2
f 122/6/2 119/6/2 123/6/2
f 121/6/2 122/6/2 125/6/2
f 122/4/2 123/4/2 126/4/2
f 125/6/2 122/6/2 126/6/2
f 123/4/2 120/4/2 127/4/2
f 126/4/2 123/4/2 127/4/2
f 124/6/2 125/6/2 128/6/2
f 125/7/2 126/7/2 129/7/2
f 128/6/2 125/6/2 129/6/2
f 126/7/2 127/7/2 129/7/2
f 127/4/2 120/4/2 130/4/2
f 129/7/2 127/7/2 130/7/2
f 120/4/2 117/4/2 131/4/2
f 130/4/2 120/4/2 131/4/2
f 134/4/3 133/4/3 132/4/3
f 135/4/3 133/4/3 134/4/3
f 139/6/3 137/6/3 136/6/3
f 140/6/3 137/6/3 139/6/3
f 141/6/3 139/6/3 138/6/3
f 142/7/3 140/7/3 139/7/3
f 142/6/3 139/6/3 141/6/3
f 143/7/3 140/7/3 142/7/3
f 148/4/3 145/4/3 144/4/3
f 149/4/3 145/4/3 148/4/3
f 150/4/3 145/4/3 149/4/3
f 152/4/3 147/4/3 146/4/3
f 152/1/3 148/1/3 147/1/3
f 152/1/3 149/1/3 148/1/3
f 153/1/3 149/1/3 152/1/3
f 154/1/3 149/1/3 153/1/3
f 155/4/3 151/4/3 150/4/3
f 156/4/3 151/4/3 155/4/3
f 157/4/3 152/4/3 146/4/3
f 157/2/3 153/2/3 152/2/3
f 158/5/3 154/5/3 153/5/3
f 158/2/3 153/2/3 157/2/3
f 159/1/3 155/1/3 154/1/3
f 159/5/3 154/5/3 158/5/3
f 160/7/3 156/7/3 155/7/3
f 160/1/3 155/1/3 159/1/3
f 161/7/3 156/7/3 160/7/3
f 162/4/3 157/4/3 146/4/3
f 162/1/3 159/1/3 158/1/3
f 162/1/3 158/1/3 157/1/3
f 162/1/3 160/1/3 159/1/3
f 163/1/3 160/1/3 162/1/3
f 164/1/3 160/1/3 163/1/3
f 165/6/3 161/6/3 160/6/3
f 165/1/3 160/1/3 164/1/3
f 166/4/3 162/4/3 146/4/3
f 166/2/3 163/2/3 162/2/3
f 167/5/3 164/5/3 163/5/3
f 167/2/3 163/2/3 166/2/3
f 168/5/3 164/5/3 167/5/3
f 169/6/3 161/6/3 165/6/3
f 170/4/3 166/4/3 146/4/3
f 171/1/3 167/1/3 166/1/3
f 171/4/3 166/4/3 170/4/3
f 172/1/3 167/1/3 171/1/3
f 174/6/3 161/6/3 169/6/3
f 175/6/3 161/6/3 174/6/3
f 176/6/3 174/6/3 173/6/3
f 177/6/3 174/6/3 176/6/3
f 180/4/3 179/4/3 178/4/3
f 181/4/3 179/4/3 180/4/3
f 184/6/3 183/6/3 182/6/3
f 185/6/3 183/6/3 184/6/3
f 188/4/3 187/4/3 186/4/3
f 189/4/3 187/4/3 188/4/3
f 192/6/3 191/6/3 190/6/3
f 193/6/3 191/6/3 192/6/3
f 196/8/3 195/8/3 194/8/3
f 197/8/3 195/8/3 196/8/3
f 200/4/3 199/4/3 198/4/3
f 201/4/3 199/4/3 200/4/3
f 204/4/3 203/4/3 202/4/3
f 205/4/3 203/4/3 204/4/3
f 207/4/3 203/4/3 205/4/3
f 208/4/3 207/4/3 206/4/3
f 209/4/3 203/4/3 207/4/3
f 209/4/3 207/4/3 208/4/3
f 212/4/3 211/4/3 210/4/3
f 213/4/3 211/4/3 212/4/3
f 214/4/4 215/4/4 217/4/4
f 217/4/4 215/4/4 218/4/4
f 216/1/4 217/1/4 220/1/4
f 220/1/4 217/1/4 221/1/4
f 218/4/4 219/4/4 222/4/4
f 218/4/4 222/4/4 223/4/4
f 223/4/4 222/4/4 224/4/4
f 225/4/4 226/4/4 229/4/4
f 227/1/4 228/1/4 230/1/4
f 230/1/4 228/1/4 231/1/4
f 225/4/4 229/4/4 232/4/4
f 232/4/4 229/4/4 233/4/4
f 231/4/4 232/4/4 234/4/4
f 234/4/4 232/4/4 235/4/4
f 236/4/4 237/4/4 239/4/4
f 239/4/4 237/4/4 240/4/4
f 238/4/4 239/4/4 240/4/4
f 238/4/4 240/4/4 241/4/4
f 238/4/4 241/4/4 242/4/4
f 242/4/4 241/4/4 243/4/4
f 243/4/4 241/4/4 244/4/4
f 244/4/4 241/4/4 245/4/4
f 246/4/4 247/4/4 249/4/4
f 249/4/4 247/4/4 250/4/4
f 248/4/4 249/4/4 252/4/4
f 252/4/4 249/4/4 253/4/4
f 250/4/4 251/4/4 254/4/4
f 254/4/4 251/4/4 255/4/4
f 253/4/4 254/4/4 256/4/4
f 256/4/4 254/4/4 257/4/4
f 258/4/4 259/4/4 260/4/4
f 260/4/4 259/4/4 261/4/4
f 264/4/5 263/4/5 262/4/5
f 265/4/5 263/4/5 264/4/5
f 266/1/5 265/1/5 264/1/5
f 267/1/5 265/1/5 266/1/5
f 268/1/5 265/1/5 267/1/5
f 269/1/5 265/1/5 268/1/5
f 270/4/5 268/4/5 267/4/5
f 271/4/5 268/4/5 270/4/5
f 276/4/5 273/4/5 272/4/5
f 277/4/5 273/4/5 276/4/5
f 280/4/5 275/4/5 274/4/5
f 281/4/5 275/4/5 280/4/5
f 282/4/5 278/4/5 277/4/5
f 283/4/5 278/4/5 282/4/5
f 284/4/5 280/4/5 279/4/5
f 285/4/5 280/4/5 284/4/5
f 288/4/5 287/4/5 286/4/5
f 289/4/5 287/4/5 288/4/5
f 292/6/5 291/6/5 290/6/5
f 293/6/5 291/6/5 292/6/5
f 294/4/5 293/4/5 292/4/5
f 295/4/5 293/4/5 294/4/5
f 300/6/5 297/6/5 296/6/5
f 301/6/5 297/6/5 300/6/5
f 302/4/5 299/4/5 298/4/5
f 303/4/5 299/4/5 302/4/5
f 306/6/5 305/6/5 304/6/5
f 307/6/5 305/6/5 306/6/5
f 312/4/5 309/4/5 308/4/5
f 313/4/5 309/4/5 312/4/5
f 314/6/5 311/6/5 310/6/5
f 315/6/5 311/6/5 314/6/5
f 318/6/5 317/6/5 316/6/5
f 319/6/5 317/6/5 318/6/5
f 322/4/5 321/4/5 320/4/5
f 323/4/5 321/4/5 322/4/5
f 328/4/5 325/4/5 324/4/5
f 329/4/5 327/4/5 326/4/5
f 330/4/5 328/4/5 324/4/5
f 331/4/5 328/4/5 330/4/5
f 332/4/5 327/4/5 329/4/5
f 333/4/5 327/4/5 332/4/5
f 334/4/5 332/4/5 331/4/5
f 335/4/5 332/4/5 334/4/5
f 336/4/6 337/4/6 342/4/6
f 342/4/6 337/4/6 343/4/6
f 338/6/6 339/6/6 344/6/6
f 339/7/6 340/7/6 345/7/6
f 344/6/6 339/6/6 345/6/6
f 345/7/6 340/7/6 346/7/6
f 346/6/6 347/6/6 348/6/6
f 348/6/6 347/6/6 349/6/6
f 348/7/6 349/7/6 350/7/6
f 350/7/6 349/7/6 351/7/6
f 351/7/6 349/7/6 352/7/6
f 341/4/6 342/4/6 353/4/6
f 353/4/6 342/4/6 354/4/6
f 351/4/6 352/4/6 357/4/6
f 357/4/6 352/4/6 358/4/6
f 354/4/6 355/4/6 359/4/6
f 359/4/6 355/4/6 360/4/6
f 356/4/6 357/4/6 361/4/6
f 361/4/6 357/4/6 362/4/6
f 363/4/6 364/4/6 367/4/6
f 364/7/6 365/7/6 367/7/6
f 365/6/6 366/6/6 368/6/6
f 367/7/6 365/7/6 368/7/6
f 368/6/6 366/6/6 369/6/6
f 369/6/6 366/6/6 370/6/6
f 370/6/6 366/6/6 371/6/6
f 367/4/6 368/4/6 372/4/6
f 368/7/6 369/7/6 372/7/6
f 369/4/6 370/4/6 373/4/6
f 372/7/6 369/7/6 373/7/6
f 370/7/6 371/7/6 374/7/6
f 373/4/6 370/4/6 374/4/6
f 374/7/6 371/7/6 375/7/6
f 372/4/6 373/4/6 376/4/6
f 373/7/6 374/7/6 376/7/6
f 374/4/6 375/4/6 377/4/6
f 376/7/6 374/7/6 377/7/6
f 367/4/6 372/4/6 378/4/6
f 372/4/6 376/4/6 378/4/6
f 376/4/6 377/4/6 378/4/6
f 378/4/6 377/4/6 379/4/6
f 363/4/6 367/4/6 380/4/6
f 367/4/6 378/4/6 380/4/6
f 380/4/6 378/4/6 381/4/6
f 381/4/6 378/4/6 382/4/6
f 379/4/6 377/4/6 383/4/6
f 377/4/6 375/4/6 384/4/6
f 383/4/6 377/4/6 384/4/6
f 384/4/6 375/4/6 385/4/6
f 386/8/6 387/8/6 388/8/6
f 388/8/6 387/8/6 389/8/6
f 390/4/6 391/4/6 392/4/6
f 392/4/6 391/4/6 393/4/6
f 390/4/6 392/4/6 394/4/6
f 394/4/6 392/4/6 395/4/6
f 393/4/6 391/4/6 396/4/6
f 396/4/6 391/4/6 397/4/6
f 395/4/6 396/4/6 398/4/6
f 398/4/6 396/4/6 399/4/6
f 400/4/6 401/4/6 402/4/6
f 402/4/6 401/4/6 403/4/6
