# MagicaVoxel @ Ephtracy

# group
o 

# material
mtllib left leg actually this time#.mtl
usemtl palette

# normals
vn -1 0 0
vn 1 0 0
vn 0 0 1
vn 0 0 -1
vn 0 -1 0
vn 0 1 0

# texcoords
vt 0.369141 0.5
vt 0.548828 0.5
vt 0.958984 0.5
vt 0.962891 0.5
vt 0.966797 0.5
vt 0.990234 0.5

# verts
v -0.1 0.4 0.2
v -0.1 0.4 -0.1
v -0.1 0.5 0.2
v -0.1 0.5 -0.1
v -0.1 1 0.2
v -0.1 1 -0.1
v -0.1 1.1 0.2
v -0.1 1.1 -0.1
v -0.1 1.2 0.2
v -0.1 1.2 -0.1
v 0.2 0.4 0.2
v 0.2 0.4 -0.1
v 0.2 0.5 0.2
v 0.2 0.5 -0.1
v 0.2 0.9 0.2
v 0.2 0.9 -0.1
v 0.2 1 0.2
v 0.2 1 0.1
v 0.2 1 -0.1
v 0.2 1.1 0.2
v 0.2 1.1 0.1
v 0.2 1.1 0
v 0.2 1.2 0.2
v 0.2 1.2 0.1
v 0.2 1.2 0
v 0.2 1.2 -0.1
v -0.1 0.4 0.2
v -0.1 0.5 0.2
v -0.1 1 0.2
v -0.1 1.1 0.2
v -0.1 1.2 0.2
v 0.1 0.9 0.2
v 0.1 1 0.2
v 0.1 1.1 0.2
v 0.1 1.2 0.2
v 0.2 0.4 0.2
v 0.2 0.5 0.2
v 0.2 0.9 0.2
v 0.2 1 0.2
v 0.2 1.1 0.2
v 0.2 1.2 0.2
v -0.1 0.4 -0.1
v -0.1 0.5 -0.1
v -0.1 1 -0.1
v -0.1 1.1 -0.1
v -0.1 1.2 -0.1
v 0.1 0.9 -0.1
v 0.1 1 -0.1
v 0.1 1.1 -0.1
v 0.1 1.2 -0.1
v 0.2 0.4 -0.1
v 0.2 0.5 -0.1
v 0.2 0.9 -0.1
v 0.2 1 -0.1
v 0.2 1.2 -0.1
v -0.1 0.4 0.2
v 0.2 0.4 0.2
v -0.1 0.4 -0.1
v 0.2 0.4 -0.1
v -0.1 1.2 0.2
v 0.1 1.2 0.2
v 0.2 1.2 0.2
v 0 1.2 0.1
v 0.1 1.2 0.1
v 0.2 1.2 0.1
v 0 1.2 0
v 0.1 1.2 0
v 0.2 1.2 0
v -0.1 1.2 -0.1
v 0.1 1.2 -0.1
v 0.2 1.2 -0.1

# faces
f 3/1/1 2/1/1 1/1/1
f 4/1/1 2/1/1 3/1/1
f 5/6/1 4/6/1 3/6/1
f 6/6/1 4/6/1 5/6/1
f 7/2/1 6/2/1 5/2/1
f 8/2/1 6/2/1 7/2/1
f 9/3/1 8/3/1 7/3/1
f 10/3/1 8/3/1 9/3/1
f 11/1/2 12/1/2 13/1/2
f 13/1/2 12/1/2 14/1/2
f 13/6/2 14/6/2 15/6/2
f 15/6/2 14/6/2 16/6/2
f 15/2/2 16/2/2 17/2/2
f 17/2/2 16/2/2 18/2/2
f 18/2/2 16/2/2 19/2/2
f 17/3/2 18/3/2 20/3/2
f 18/4/2 19/4/2 21/4/2
f 20/3/2 18/3/2 21/3/2
f 21/4/2 19/4/2 22/4/2
f 20/5/2 21/5/2 23/5/2
f 21/3/2 22/3/2 24/3/2
f 23/5/2 21/5/2 24/5/2
f 22/4/2 19/4/2 25/4/2
f 24/3/2 22/3/2 25/3/2
f 25/4/2 19/4/2 26/4/2
f 32/6/3 29/6/3 28/6/3
f 33/2/3 30/2/3 29/2/3
f 33/6/3 29/6/3 32/6/3
f 34/3/3 31/3/3 30/3/3
f 34/2/3 30/2/3 33/2/3
f 35/3/3 31/3/3 34/3/3
f 36/1/3 28/1/3 27/1/3
f 37/6/3 32/6/3 28/6/3
f 37/1/3 28/1/3 36/1/3
f 38/2/3 33/2/3 32/2/3
f 38/6/3 32/6/3 37/6/3
f 39/3/3 34/3/3 33/3/3
f 39/2/3 33/2/3 38/2/3
f 40/5/3 35/5/3 34/5/3
f 40/3/3 34/3/3 39/3/3
f 41/5/3 35/5/3 40/5/3
f 43/6/4 44/6/4 47/6/4
f 44/2/4 45/2/4 48/2/4
f 47/6/4 44/6/4 48/6/4
f 45/3/4 46/3/4 49/3/4
f 48/2/4 45/2/4 49/2/4
f 49/3/4 46/3/4 50/3/4
f 42/1/4 43/1/4 51/1/4
f 43/6/4 47/6/4 52/6/4
f 51/1/4 43/1/4 52/1/4
f 47/2/4 48/2/4 53/2/4
f 52/6/4 47/6/4 53/6/4
f 48/4/4 49/4/4 54/4/4
f 53/2/4 48/2/4 54/2/4
f 49/4/4 50/4/4 54/4/4
f 54/4/4 50/4/4 55/4/4
f 58/1/5 57/1/5 56/1/5
f 59/1/5 57/1/5 58/1/5
f 60/3/6 61/3/6 63/3/6
f 61/5/6 62/5/6 64/5/6
f 63/3/6 61/3/6 64/3/6
f 64/5/6 62/5/6 65/5/6
f 60/3/6 63/3/6 66/3/6
f 63/1/6 64/1/6 66/1/6
f 64/3/6 65/3/6 67/3/6
f 66/1/6 64/1/6 67/1/6
f 67/3/6 65/3/6 68/3/6
f 60/3/6 66/3/6 69/3/6
f 66/3/6 67/3/6 69/3/6
f 67/4/6 68/4/6 70/4/6
f 69/3/6 67/3/6 70/3/6
f 70/4/6 68/4/6 71/4/6
